<?xml version="1.0" encoding="UTF-8" standalone="no"?>
<svg xmlns="http://www.w3.org/2000/svg" xmlns:svg="http://www.w3.org/2000/svg" xml:space="preserve" viewBox="0 0 14.188486 16.640469" version="1.1" id="svg1" width="14.188486" height="16.640469" fill="currentColor">
  <defs id="defs1" fill="currentColor"/>
  <path d="m 0.7284863,9.59 c -1.12,-2.4 -0.95,-4.66 0.52,-6.79 1.03,-1.48 2.6,-2.39 4.73,-2.72 0.16,-0.04 0.34,-0.07 0.54,-0.08 h 0.63 c 2.9099997,0.09 5.0499997,1.38 6.3999997,3.88 0.64,1.18 0.8,2.48 0.48,3.91 -0.26,1.13 -0.68,2.19 -1.28,3.17 -1.29,2.01 -2.63,3.64 -3.9999997,4.88 -0.07,0.07 -0.17,0.16 -0.3,0.26 -0.46,0.35 -0.89,0.53 -1.28,0.54 -0.39,0.01 -0.83,-0.14 -1.31,-0.45 a 3.4,3.4 0 0 1 -0.74,-0.59 c -1.96,-2 -3.43,-4 -4.39,-6.01 m 0.11,-2.21 c 0.02,0.11 0.05,0.25 0.09,0.44 0.04,0.19 0.07,0.32 0.09,0.4 0.28,1.26 0.86,2.23 1.73,2.93 0.88,0.7 1.96,1.11 3.26,1.23 q 0.435,0.045 0.51,-0.03 c 0.075,-0.075 0.08,-0.23 0.09,-0.52 -0.01,-0.08 -0.03,-0.21 -0.05,-0.39 q -0.03,-0.27 -0.06,-0.39 c -0.25,-1.34 -0.88,-2.32 -1.9,-2.93 -0.18,-0.11 -0.39,-0.22 -0.62,-0.34 -0.23,-0.12 -0.44,-0.2 -0.61,-0.27 q -0.255,-0.105 -0.69,-0.27 c -0.29,-0.11 -0.5,-0.19 -0.63,-0.25 -0.16,-0.06 -0.42,-0.1 -0.8,-0.11 -0.32,0 -0.46,0.17 -0.41,0.5 m 6.8,4.4 c -0.02,0.31 0,0.49 0.06,0.56 0.07,0.07 0.25,0.08 0.55,0.04 0.38,-0.04 0.78,-0.12 1.2,-0.22 1.0699997,-0.27 1.9399997,-0.84 2.6199997,-1.71 0.34,-0.41 0.6,-0.86 0.77,-1.34 0.17,-0.48 0.34,-1.05 0.47,-1.72 0.05,-0.23 0.04,-0.38 -0.03,-0.46 -0.07,-0.08 -0.22,-0.11 -0.44,-0.08 -0.59,0.1 -1.12,0.23 -1.59,0.4 -1.15,0.43 -2.0199997,1.01 -2.6199997,1.74 -0.6,0.74 -0.93,1.66 -0.99,2.79" id="path1" fill="currentColor"/>
</svg>
