<?xml version="1.0" encoding="UTF-8" standalone="no"?>
<svg xmlns="http://www.w3.org/2000/svg" xmlns:svg="http://www.w3.org/2000/svg" xml:space="preserve" viewBox="0 0 14.65 17.559999" version="1.1" id="svg1" width="14.65" height="17.559999" fill="currentColor">
  <defs id="defs1" fill="currentColor"/>
  <path d="M 0,7.32 C 0,6.33 0.19,5.38 0.58,4.47 0.97,3.56 1.49,2.79 2.15,2.14 2.81,1.49 3.59,0.97 4.49,0.58 5.39,0.19 6.34,0 7.33,0 c 0.99,0 1.94,0.19 2.85,0.58 0.9,0.39 1.68,0.91 2.33,1.56 0.65,0.65 1.17,1.43 1.56,2.33 0.39,0.9 0.58,1.85 0.58,2.85 0,1.62 -0.48,3.06 -1.44,4.34 A 7.25,7.25 0 0 1 9.5,14.27 v 3.29 H 5.26 V 14.31 C 3.72,13.86 2.45,12.99 1.47,11.7 0.49,10.41 0,8.95 0,7.32 m 1.61,0 c 0,1.55 0.56,2.88 1.69,3.99 q 1.665,1.68 4.02,1.68 c 1.03,0 1.99,-0.25 2.86,-0.76 a 5.76,5.76 0 0 0 2.09,-2.07 C 12.78,9.29 13.04,8.34 13.04,7.31 13.04,6.54 12.89,5.81 12.59,5.1 12.29,4.39 11.88,3.79 11.37,3.28 10.86,2.77 10.25,2.36 9.54,2.06 A 5.6,5.6 0 0 0 7.33,1.61 c -0.77,0 -1.5,0.15 -2.21,0.45 A 5.65,5.65 0 0 0 2.08,5.1 C 1.76,5.82 1.61,6.55 1.61,7.32 M 2.19,7.68 V 6.96 H 4.36 V 7.68 Z M 3.28,4.14 3.8,3.62 5.32,5.14 4.8,5.67 Z M 5.81,9.07 C 5.81,8.65 5.96,8.29 6.25,7.98 6.54,7.67 6.9,7.51 7.31,7.5 L 10.04,3.01 10.7,3.36 8.68,8.19 c 0.18,0.25 0.26,0.54 0.26,0.88 0,0.44 -0.15,0.81 -0.46,1.11 -0.31,0.3 -0.68,0.45 -1.12,0.45 -0.43,0 -0.8,-0.15 -1.1,-0.45 Q 5.81,9.73 5.81,9.07 M 7.12,4.4 V 2.24 H 7.81 V 4.41 H 7.12 Z m 2.94,3.27 V 6.93 h 2.17 v 0.74 z" id="path1" fill="currentColor"/>
</svg>
