<?xml version="1.0" encoding="UTF-8" standalone="no"?>
<svg xmlns="http://www.w3.org/2000/svg" xmlns:svg="http://www.w3.org/2000/svg" xml:space="preserve" viewBox="0 0 10.46 9.3599997" version="1.1" id="svg1" width="10.46" height="9.3599997" fill="currentColor">
  <defs id="defs1" fill="currentColor"/>
  <path d="M 0,1.86 C 0,1.36 0.18,0.93 0.53,0.58 0.89,0.22 1.31,0.05 1.81,0.05 2.3,0.05 2.73,0.23 3.08,0.58 3.43,0.94 3.61,1.36 3.61,1.86 3.61,2.36 3.43,2.79 3.08,3.14 2.73,3.5 2.3,3.67 1.81,3.67 1.31,3.67 0.88,3.49 0.53,3.14 0.18,2.79 0,2.36 0,1.86 m 0.88,0 c 0,0.26 0.09,0.48 0.27,0.67 C 1.34,2.72 1.56,2.81 1.82,2.81 2.08,2.81 2.3,2.72 2.49,2.53 2.68,2.34 2.77,2.12 2.77,1.86 2.77,1.6 2.68,1.38 2.49,1.19 2.3,1 2.08,0.91 1.82,0.91 1.56,0.91 1.34,1 1.15,1.19 A 0.92,0.92 0 0 0 0.88,1.86 m 3.89,4.42 c 0,0.77 0.21,1.45 0.64,2.05 q 0.33,0.465 0.93,0.75 c 0.39,0.18 0.84,0.28 1.34,0.28 1.46,0 2.38,-0.56 2.75,-1.67 0.04,-0.14 0.02,-0.28 -0.06,-0.41 A 0.49,0.49 0 0 0 10.04,7.05 0.44,0.44 0 0 0 9.64,7.12 C 9.52,7.2 9.44,7.31 9.41,7.46 c 0,0.01 0,0.02 -0.01,0.05 L 9.38,7.58 Q 9.215,7.865 8.93,8.03 C 8.62,8.22 8.21,8.31 7.7,8.31 7.39,8.31 7.11,8.26 6.87,8.15 6.47,7.98 6.19,7.68 6.02,7.26 5.91,6.99 5.85,6.66 5.85,6.29 V 3.07 q 0,-0.225 0.03,-0.45 C 5.92,2.24 6.07,1.89 6.33,1.58 6.62,1.23 7.08,1.06 7.71,1.06 q 0.78,0 1.23,0.27 0.3,0.18 0.45,0.45 C 9.4,1.8 9.4,1.83 9.41,1.86 9.42,1.89 9.42,1.91 9.42,1.92 9.46,2.06 9.54,2.16 9.65,2.22 9.77,2.29 9.9,2.3 10.05,2.27 10.19,2.24 10.3,2.16 10.38,2.04 10.46,1.92 10.48,1.79 10.44,1.64 V 1.63 L 10.36,1.4 C 10.31,1.29 10.22,1.14 10.08,0.97 9.95,0.79 9.79,0.65 9.63,0.53 9.42,0.38 9.15,0.26 8.81,0.15 Q 8.3,0 7.7,0 C 7.19,0 6.75,0.09 6.35,0.27 5.96,0.45 5.65,0.69 5.44,1 5.01,1.59 4.79,2.28 4.79,3.07 v 3.21 z" id="path1" fill="currentColor"/>
</svg>
