<?xml version="1.0" encoding="UTF-8" standalone="no"?>
<svg xmlns="http://www.w3.org/2000/svg" xmlns:svg="http://www.w3.org/2000/svg" xml:space="preserve" viewBox="0 0 22.770426 18.139999" version="1.1" id="svg1" width="22.770426" height="18.139999" fill="currentColor">
  <defs id="defs1" fill="currentColor"/>
  <path d="m 4.2571306e-4,13.64 c 0,-0.25 0.0799999969,-0.46 0.24999999694,-0.63 q 0.255,-0.24 0.6,-0.24 H 6.2704257 c 0.74,0 1.37,0.26 1.89,0.79 0.52,0.53 0.78,1.16 0.78,1.9 0,0.74 -0.26,1.38 -0.78,1.9 q -0.78,0.78 -1.89,0.78 c -1.11,0 -1.38,-0.26 -1.9,-0.79 a 0.8,0.8 0 0 1 -0.23,-0.6 c 0,-0.24 0.08,-0.45 0.23,-0.6 q 0.225,-0.24 0.6,-0.24 c 0.23,0 0.43,0.08 0.61,0.24 0.2,0.19 0.43,0.29 0.69,0.29 0.26,0 0.49,-0.1 0.68,-0.29 a 0.95,0.95 0 0 0 0.29,-0.7 c 0,-0.26 -0.1,-0.49 -0.29,-0.68 -0.19,-0.19 -0.42,-0.29 -0.68,-0.29 H 0.85042571 c -0.23,0 -0.43,-0.08 -0.6,-0.25 -0.17,-0.17 -0.24999999694,-0.35 -0.24999999694,-0.59 m 0,-3.04 c 0,-0.24 0.0799999969,-0.45 0.24999999694,-0.62 q 0.255,-0.24 0.6,-0.24 H 11.400426 c 0.26,0 0.49,-0.1 0.68,-0.29 0.19,-0.19 0.29,-0.43 0.29,-0.69 0,-0.26 -0.1,-0.5 -0.29,-0.69 a 0.94,0.94 0 0 0 -0.68,-0.29 c -0.28,0 -0.5,0.09 -0.68,0.28 -0.18,0.15 -0.39,0.23 -0.64,0.23 -0.2400003,0 -0.4400003,-0.08 -0.6000003,-0.23 a 0.81,0.81 0 0 1 -0.23,-0.6 c 0,-0.25 0.07,-0.45 0.23,-0.61 0.51,-0.51 1.1500003,-0.76 1.9200003,-0.76 0.74,0 1.38,0.26 1.9,0.78 0.52,0.52 0.78,1.15 0.78,1.88 0,0.73 -0.26,1.37 -0.78,1.89 -0.52,0.52 -1.15,0.78 -1.9,0.78 H 0.85042571 q -0.36,0 -0.6,-0.24 A 0.74,0.74 0 0 1 4.2571306e-4,10.6 M 2.1504257,8.24 c 0,0.08 0.05,0.12 0.16,0.12 h 1.44 c 0.08,0 0.15,-0.05 0.22,-0.15 0.22,-0.54 0.58,-0.99 1.05,-1.35 q 0.72,-0.54 1.59,-0.6 l 0.53,-0.08 c 0.13,0 0.2,-0.06 0.2,-0.17 l 0.07,-0.52 c 0.11,-1.08 0.56,-1.99 1.37,-2.72 0.81,-0.73 1.7600003,-1.1 2.8600003,-1.1 1.11,0 2.07,0.36 2.88,1.09 0.81,0.73 1.27,1.64 1.39,2.73 l 0.07,0.59 c 0,0.11 0.06,0.17 0.17,0.17 h 1.62 c 0.91,0 1.68,0.32 2.33,0.96 0.65,0.64 0.97,1.4 0.97,2.3 0,0.89 -0.32,1.66 -0.97,2.3 -0.65,0.64 -1.42,0.96 -2.33,0.96 h -6.91 c -0.12,0 -0.19,0.06 -0.19,0.17 v 1.39 c 0,0.11 0.06,0.17 0.19,0.17 h 6.91 c 0.91,0 1.74,-0.22 2.51,-0.67 0.77,-0.44 1.37,-1.05 1.82,-1.81 0.45,-0.77 0.67,-1.6 0.67,-2.5 0,-0.91 -0.22,-1.74 -0.67,-2.5 a 4.94,4.94 0 0 0 -1.82,-1.81 c -0.77,-0.44 -1.6,-0.67 -2.51,-0.67 h -0.31 q -0.465,-1.995 -2.1,-3.27 c -1.08,-0.85 -2.33,-1.27 -3.73,-1.27 Q 9.5154257,0 7.8804257,1.32 c -1.635,1.32 -1.78,2 -2.07,3.37 q -1.29,0.3 -2.28,1.23 c -0.99,0.93 -1.12,1.36 -1.38,2.21 v 0.11" id="path1" fill="currentColor"/>
</svg>
