<?xml version="1.0" encoding="UTF-8" standalone="no"?>
<svg xmlns="http://www.w3.org/2000/svg" xmlns:svg="http://www.w3.org/2000/svg" xml:space="preserve" viewBox="0 0 23.790007 17.610001" version="1.1" id="svg1" width="23.790007" height="17.610001" fill="currentColor">
  <defs id="defs1" fill="currentColor"/>
  <path d="m 7.1199714e-6,13.65 c 0,-0.24 0.080000000029,-0.45 0.2500000000286,-0.61 0.17,-0.16 0.38,-0.24 0.63,-0.24 H 9.8500071 c 0.2399999,0 0.4299999,0.08 0.5899999,0.24 0.16,0.16 0.23,0.36 0.23,0.61 q 0,0.36 -0.24,0.6 c -0.16,0.16 -0.35,0.24 -0.5899999,0.24 H 0.88000712 q -0.375,0 -0.63,-0.24 C -0.00499288,14.01 7.1199714e-6,13.88 7.1199714e-6,13.65 M 2.6300071,10.59 q 0,-0.36 0.27,-0.6 c 0.14,-0.15 0.34,-0.23 0.59,-0.23 h 8.9999999 c 0.23,0 0.42,0.08 0.58,0.23 0.16,0.15 0.23,0.35 0.23,0.59 0,0.24 -0.08,0.44 -0.23,0.61 -0.15,0.17 -0.35,0.25 -0.58,0.25 H 3.4900071 c -0.23,0 -0.43,-0.09 -0.6,-0.26 -0.17,-0.17 -0.26,-0.36 -0.26,-0.59 m 0.62,-2.33 c 0,0.09 0.06,0.14 0.17,0.14 h 1.43 c 0.09,0 0.17,-0.05 0.23,-0.14 0.23,-0.54 0.57,-0.99 1.04,-1.35 0.47,-0.36 0.99,-0.56 1.58,-0.6 l 0.54,-0.07 c 0.11,0 0.17,-0.06 0.17,-0.18 l 0.07,-0.52 c 0.11,-1.09 0.58,-1.99 1.39,-2.72 0.8199999,-0.73 1.7699999,-1.09 2.8699999,-1.09 1.09,0 2.03,0.36 2.83,1.07 q 1.2,1.08 1.41,2.7 l 0.07,0.59 c 0,0.11 0.06,0.16 0.18,0.16 h 1.6 c 0.91,0 1.68,0.32 2.32,0.96 0.64,0.64 0.96,1.41 0.96,2.32 0,0.88 -0.33,1.64 -0.97,2.28 -0.65,0.65 -1.42,0.97 -2.31,0.97 h -6.89 c -0.12,0 -0.18,0.06 -0.18,0.17 v 1.34 q 0,0.18 0.18,0.18 h 6.89 c 0.68,0 1.32,-0.13 1.94,-0.39 0.62,-0.26 1.14,-0.61 1.58,-1.05 0.44,-0.44 0.79,-0.97 1.05,-1.58 0.26,-0.61 0.39,-1.25 0.39,-1.92 q 0,-1.35 -0.66,-2.49 a 4.86,4.86 0 0 0 -1.8,-1.8 c -0.76,-0.44 -1.6,-0.66 -2.5,-0.66 h -0.31 a 5.95,5.95 0 0 0 -2.1,-3.3 c -1.08,-0.85 -2.3,-1.28 -3.68,-1.28 -1.42,0 -2.67,0.44 -3.7599999,1.33 -1.09,0.88 -1.78,2.01 -2.08,3.39 -0.86,0.19 -1.62,0.6 -2.27,1.21 -0.65,0.61 -1.1,1.35 -1.36,2.22 v 0.02 c -0.01,0.04 -0.02,0.06 -0.02,0.09 m 1.15,8.48 c 0,-0.24 0.09,-0.44 0.26,-0.6 0.15,-0.16 0.35,-0.23 0.59,-0.23 h 8.9899999 c 0.24,0 0.45,0.08 0.61,0.24 0.17,0.16 0.25,0.36 0.25,0.6 0,0.24 -0.08,0.44 -0.25,0.61 -0.17,0.17 -0.37,0.25 -0.61,0.25 H 5.2500071 c -0.23,0 -0.43,-0.08 -0.6,-0.25 a 0.86,0.86 0 0 1 -0.25,-0.62" id="path1" fill="currentColor"/>
</svg>
