<?xml version="1.0" encoding="UTF-8" standalone="no"?>
<svg xmlns="http://www.w3.org/2000/svg" xmlns:svg="http://www.w3.org/2000/svg" xml:space="preserve" viewBox="0 0 20.76 14.460305" version="1.1" id="svg1" width="20.76" height="14.460305" fill="currentColor">
  <defs id="defs1" fill="currentColor"/>
  <path d="m 0,9.4903046 c 0,1.3300004 0.46,2.4800004 1.39,3.4300004 0.93,0.96 2.06,1.47 3.4,1.53 0.11,0 0.17,-0.06 0.17,-0.17 v -1.33 c 0,-0.12 -0.06,-0.19 -0.17,-0.19 -0.86,-0.04 -1.58,-0.38 -2.18,-1.02 -0.6,-0.64 -0.9,-1.39 -0.9,-2.2500004 q 0,-1.23 0.84,-2.16 c 0.56,-0.61 1.26,-0.97 2.1,-1.07 h 0.53 c 0.13,0 0.2,-0.06 0.2,-0.18 l 0.06,-0.57 c 0.11,-1.08 0.57,-1.99 1.38,-2.72 0.81,-0.73 1.77,-1.1 2.86,-1.1 1.08,0 2.03,0.37 2.85,1.1 0.82,0.73 1.28,1.64 1.39,2.72 l 0.08,0.57 q 0,0.18 0.18,0.18 h 1.61 q 1.335,0 2.31,0.96 c 0.975,0.96 0.98,1.4 0.98,2.26 q 0,1.2900004 -0.9,2.2500004 c -0.6,0.64 -1.33,0.98 -2.18,1.02 -0.13,0 -0.2,0.06 -0.2,0.19 v 1.33 c 0,0.11 0.07,0.17 0.2,0.17 0.87,-0.02 1.67,-0.26 2.4,-0.71 0.73,-0.45 1.31,-1.05 1.73,-1.8 0.42,-0.75 0.63,-1.57 0.63,-2.4400004 0,-0.67 -0.13,-1.31 -0.39,-1.91 a 4.9,4.9 0 0 0 -1.06,-1.57 5,5 0 0 0 -1.58,-1.05 q -0.915,-0.39 -1.92,-0.39 h -0.32 a 5.9,5.9 0 0 0 -2.11,-3.29 A 5.76,5.76 0 0 0 9.7,3.0460439e-4 c -1.41,0 -2.67,0.43999999561 -3.76,1.31999999561 -1.09,0.88 -1.79,2 -2.1,3.36 -1.11,0.26 -2.02,0.83 -2.73,1.73 -0.76,0.91 -1.11,1.93 -1.11,3.08 m 6.94,0.6300004 c 0,0.25 0.08,0.46 0.24,0.64 0.15,0.15 0.35,0.23 0.61,0.23 0.24,0 0.45,-0.08 0.62,-0.23 L 9.52,9.6203046 v 3.9800004 c 0,0.24 0.08,0.44 0.23,0.61 0.16,0.17 0.35,0.25 0.59,0.25 0.23,0 0.43,-0.08 0.6,-0.25 0.17,-0.17 0.25,-0.37 0.25,-0.61 V 9.6603046 l 1.12,1.1100004 c 0.4,0.31 0.81,0.31 1.22,0 0.16,-0.15 0.24,-0.36 0.24,-0.62 0,-0.2400004 -0.08,-0.4400004 -0.24,-0.6200004 l -2.59,-2.57 a 0.81,0.81 0 0 0 -0.6,-0.24 c -0.24,0 -0.44,0.08 -0.59,0.24 l -2.58,2.57 c -0.15,0.16 -0.23,0.35 -0.23,0.5900004" id="path1" fill="currentColor"/>
</svg>
