<?xml version="1.0" encoding="UTF-8" standalone="no"?>
<svg xmlns="http://www.w3.org/2000/svg" xmlns:svg="http://www.w3.org/2000/svg" xml:space="preserve" viewBox="0 0 26.92 27.040087" version="1.1" id="svg1" width="26.92" height="27.040087" fill="currentColor">
  <defs id="defs1" fill="currentColor"/>
  <path d="m 0,16.040086 c 0,1.32 0.46,2.46 1.37,3.4 0.91,0.94 2.04,1.45 3.38,1.51 0.12,0 0.18,-0.06 0.18,-0.17 v -1.33 q 0,-0.18 -0.18,-0.18 c -0.86,-0.04 -1.58,-0.38 -2.17,-1 -0.59,-0.62 -0.88,-1.37 -0.88,-2.24 0,-0.84 0.28,-1.58 0.84,-2.19 0.56,-0.62 1.26,-0.96 2.1,-1.03 l 0.53,-0.08 c 0.11,0 0.16,-0.05 0.16,-0.14 l 0.08,-0.55 c 0.12,-1.09 0.59,-2 1.38,-2.7200002 0.79,-0.72 1.73,-1.07 2.83,-1.07 1.1,0 2.05,0.36 2.86,1.08 0.82,0.7200002 1.28,1.6200002 1.38,2.6900002 l 0.07,0.58 c 0.02,0.11 0.1,0.17 0.22,0.17 h 1.6 c 0.89,0 1.65,0.32 2.29,0.96 q 0.96,0.96 0.96,2.31 c 0,0.87 -0.29,1.61 -0.88,2.24 -0.59,0.63 -1.31,0.95 -2.17,1 -0.13,0 -0.2,0.06 -0.2,0.18 v 1.33 c 0,0.11 0.07,0.17 0.2,0.17 1.33,-0.04 2.45,-0.54 3.37,-1.49 0.91,-0.95 1.37,-2.09 1.37,-3.42 0,-0.68 -0.13,-1.34 -0.38,-2.01 0.78,-0.96 1.16,-2.08 1.16,-3.35 0,-0.7100002 -0.14,-1.3800002 -0.41,-2.0300002 -0.27,-0.65 -0.65,-1.2 -1.12,-1.67 -0.47,-0.47 -1.03,-0.84 -1.67,-1.12 -0.64,-0.28 -1.33,-0.42 -2.04,-0.42 -1.54,0 -2.83,0.58 -3.86,1.74 -0.89,-0.44 -1.81,-0.66 -2.74,-0.66 -1.41,0 -2.66,0.44 -3.74,1.31 -1.08,0.87 -1.77,2 -2.08,3.3800002 -1.12,0.26 -2.04,0.83 -2.75,1.73 -0.71,0.9 -1.06,1.93 -1.06,3.09 m 5.35,7.03 c 0,0.17 0.05,0.34 0.16,0.51 0.11,0.17 0.27,0.28 0.47,0.35 0.23,0.07 0.45,0.06 0.64,-0.04 0.2,-0.09 0.33,-0.28 0.4,-0.56 l 0.14,-0.61 c 0.05,-0.23 0.02,-0.44 -0.1,-0.63 a 0.88,0.88 0 0 0 -0.52,-0.4 c -0.23,-0.07 -0.44,-0.04 -0.64,0.08 -0.2,0.12 -0.32,0.29 -0.38,0.52 l -0.14,0.59 c -0.02,0.06 -0.03,0.12 -0.03,0.19 m 0.77,-2.9 q 0,0.33 0.24,0.57 c 0.16,0.18 0.35,0.26 0.56,0.26 q 0.36,0 0.6,-0.24 c 0.17,-0.16 0.25,-0.35 0.25,-0.59 0,-0.23 -0.08,-0.43 -0.25,-0.59 a 0.85,0.85 0 0 0 -0.6,-0.24 c -0.23,0 -0.42,0.08 -0.58,0.23 -0.16,0.15 -0.22,0.37 -0.22,0.6 m 0.61,-2.27 c -0.01,0.16 0.03,0.31 0.13,0.45 0.1,0.15 0.26,0.25 0.48,0.32 a 0.8,0.8 0 0 0 0.62,-0.07 q 0.315,-0.165 0.42,-0.51 l 0.27,-0.9 c 0.07,-0.24 0.05,-0.46 -0.07,-0.65 a 0.9,0.9 0 0 0 -0.54,-0.39 0.74,0.74 0 0 0 -0.63,0.07 0.85,0.85 0 0 0 -0.41,0.5 l -0.24,0.92 c -0.02,0.16 -0.03,0.25 -0.03,0.26 m 1.15,8.29 c 0,0.17 0.05,0.33 0.16,0.49 0.11,0.16 0.27,0.27 0.49,0.33 q 0.135,0.03 0.24,0.03 c 0.43,0 0.7,-0.2 0.8,-0.61 l 0.13,-0.59 c 0.06,-0.26 0.03,-0.48 -0.08,-0.68 -0.11,-0.2 -0.29,-0.32 -0.52,-0.37 a 0.74,0.74 0 0 0 -0.63,0.07 c -0.21,0.12 -0.34,0.29 -0.41,0.51 l -0.14,0.6 c -0.03,0.11 -0.04,0.19 -0.04,0.22 M 8.44,3.7500858 q 0,0.36 0.24,0.6 l 0.66,0.64 c 0.14,0.16 0.32,0.24 0.54,0.26 0.22,0.02 0.43,-0.07 0.62,-0.26 0.16,-0.16 0.24,-0.36 0.24,-0.59 q 0,-0.36 -0.24,-0.6 l -0.63,-0.65 a 0.87,0.87 0 0 0 -0.58,-0.26 c -0.23,0 -0.43,0.08 -0.6,0.25 -0.16,0.17 -0.25,0.37 -0.25,0.61 M 8.67,23.290086 c 0,0.23 0.08,0.42 0.24,0.58 0.16,0.16 0.36,0.24 0.58,0.24 0.24,0 0.43,-0.08 0.59,-0.23 0.16,-0.16 0.23,-0.35 0.23,-0.59 a 0.784,0.784 0 0 0 -0.82,-0.81 c -0.24,0 -0.43,0.08 -0.59,0.23 -0.16,0.15 -0.23,0.35 -0.23,0.58 m 0.62,-2.27 c -0.01,0.15 0.03,0.31 0.14,0.47 q 0.15,0.24 0.45,0.3 c 0.23,0.06 0.44,0.04 0.64,-0.06 0.2,-0.1 0.33,-0.29 0.41,-0.56 l 0.26,-0.9 c 0.07,-0.22 0.05,-0.43 -0.07,-0.63 a 0.87,0.87 0 0 0 -0.53,-0.4 c -0.22,-0.07 -0.43,-0.04 -0.64,0.08 -0.21,0.12 -0.34,0.3 -0.41,0.53 l -0.22,0.9 q -0.03,0.12 -0.03,0.27 m 2.76,2.15 q 0,0.255 0.15,0.48 c 0.1,0.15 0.25,0.26 0.46,0.32 0.03,0 0.08,0.01 0.14,0.02 0.06,0.01 0.11,0.02 0.14,0.02 0.41,0 0.66,-0.22 0.76,-0.66 l 0.14,-0.6 c 0.07,-0.21 0.05,-0.42 -0.07,-0.63 a 0.86,0.86 0 0 0 -0.51,-0.41 c -0.25,-0.06 -0.48,-0.04 -0.68,0.08 -0.2,0.12 -0.34,0.29 -0.41,0.53 l -0.09,0.59 c 0,0.01 0,0.05 -0.01,0.11 -0.01,0.07 -0.02,0.11 -0.02,0.15 m 0.74,-2.96 q 0,0.345 0.24,0.57 c 0.15,0.16 0.34,0.24 0.58,0.24 0.24,0 0.43,-0.08 0.59,-0.23 0.16,-0.16 0.23,-0.35 0.23,-0.58 0,-0.24 -0.08,-0.43 -0.23,-0.59 -0.16,-0.16 -0.35,-0.23 -0.59,-0.23 -0.24,0 -0.43,0.08 -0.59,0.23 -0.16,0.15 -0.23,0.35 -0.23,0.59 m 0.61,-2.31 c 0,0.17 0.05,0.33 0.16,0.48 0.11,0.15 0.27,0.26 0.49,0.32 0.02,0 0.06,0.01 0.12,0.02 0.06,0.01 0.11,0.02 0.14,0.02 0.11,0 0.23,-0.03 0.37,-0.09 0.21,-0.11 0.34,-0.28 0.4,-0.52 l 0.24,-0.9 c 0.06,-0.23 0.04,-0.44 -0.07,-0.63 -0.11,-0.19 -0.28,-0.33 -0.5,-0.4 a 0.79,0.79 0 0 0 -0.64,0.06 c -0.2,0.11 -0.33,0.27 -0.4,0.51 l -0.28,0.91 c 0,0.02 0,0.05 -0.01,0.11 a 0.4,0.4 0 0 0 -0.02,0.11 m 0.35,-9.7200002 c 0.66,-0.66 1.48,-0.99 2.47,-0.99 q 1.485,0 2.52,1.02 c 1.035,1.02 1.04,1.5 1.04,2.4800002 0,0.66 -0.18,1.29 -0.53,1.88 -0.98,-0.98 -2.15,-1.47 -3.5,-1.47 h -0.31 c -0.28,-1.1 -0.85,-2.0700002 -1.69,-2.9200002 m 1.65,-5.26 c 0,0.23 0.08,0.42 0.23,0.58 0.15,0.15 0.35,0.23 0.59,0.23 0.24,0 0.45,-0.08 0.62,-0.23 0.17,-0.15 0.25,-0.35 0.25,-0.58 V 0.85008575 c 0,-0.23 -0.09,-0.43 -0.26,-0.6 A 0.84,0.84 0 0 0 16.22,8.5752378e-5 c -0.23,0 -0.43,0.07999999762 -0.58,0.249999997622 -0.16,0.17 -0.23,0.37 -0.23,0.6 V 2.9200858 Z m 5.52,2.26 c 0,0.25 0.08,0.45 0.23,0.6 0.36,0.36 0.76,0.36 1.21,0 l 1.43,-1.43 c 0.17,-0.17 0.25,-0.38 0.25,-0.63 0,-0.24 -0.08,-0.44 -0.25,-0.6 a 0.82,0.82 0 0 0 -0.6,-0.25 c -0.23,0 -0.43,0.08 -0.61,0.24 l -1.43,1.48 a 0.8,0.8 0 0 0 -0.23,0.59 M 21.7,17.030086 c 0,0.23 0.09,0.43 0.27,0.59 l 0.61,0.63 c 0.2,0.16 0.4,0.24 0.61,0.24 q 0.3,0 0.6,-0.24 c 0.17,-0.16 0.25,-0.35 0.25,-0.59 0,-0.23 -0.08,-0.43 -0.25,-0.62 l -0.65,-0.61 c -0.15,-0.17 -0.34,-0.25 -0.57,-0.25 -0.23,0 -0.43,0.08 -0.6,0.25 a 0.8,0.8 0 0 0 -0.27,0.6 m 1.48,-6.34 c 0,0.24 0.09,0.43 0.26,0.59 0.18,0.18 0.39,0.27 0.62,0.27 h 2.03 c 0.23,0 0.43,-0.08 0.59,-0.25 0.16,-0.17 0.24,-0.37 0.24,-0.61 q 0,-0.36 -0.24,-0.6 A 0.76,0.76 0 0 0 26.09,9.8400858 h -2.03 c -0.24,0 -0.44,0.08 -0.62,0.2500002 -0.18,0.17 -0.26,0.37 -0.26,0.6" id="path1" fill="currentColor"/>
</svg>
