<?xml version="1.0" encoding="UTF-8" standalone="no"?>
<svg xmlns="http://www.w3.org/2000/svg" xmlns:svg="http://www.w3.org/2000/svg" xml:space="preserve" viewBox="0 0 15.35 10.520057" version="1.1" id="svg1" width="15.35" height="10.520057" fill="currentColor">
  <defs id="defs1" fill="currentColor"/>
  <path d="M 0,6.68 C 0,6.45 0.08,6.27 0.23,6.12 0.39,5.97 0.6,5.9 0.87,5.9 h 5.71 c 0.27,0 0.48,0.07 0.64,0.22 0.16,0.15 0.23,0.33 0.23,0.56 0,0.27 -0.08,0.49 -0.23,0.64 C 7.07,7.47 6.85,7.55 6.58,7.55 H 0.87 C 0.6,7.55 0.39,7.47 0.23,7.32 0.07,7.17 0,6.96 0,6.68 M 0,0.77 C 0,0.55 0.08,0.36 0.23,0.22 0.39,0.07 0.6,0 0.87,0 H 3.83 C 4.1,0 4.31,0.07 4.47,0.22 4.63,0.36 4.71,0.55 4.71,0.77 4.71,1.04 4.63,1.25 4.47,1.41 4.31,1.57 4.1,1.65 3.83,1.65 H 0.87 C 0.6,1.65 0.39,1.57 0.23,1.42 0.07,1.27 0,1.04 0,0.77 m 0.99,8.87 c 0,-0.22 0.09,-0.42 0.28,-0.6 0.18,-0.18 0.39,-0.28 0.6,-0.28 0.26,0 0.46,0.09 0.62,0.27 0.16,0.18 0.24,0.38 0.24,0.61 0,0.27 -0.08,0.49 -0.23,0.65 -0.15,0.16 -0.36,0.23 -0.63,0.23 A 0.87,0.87 0 0 1 1.26,10.28 C 1.07,10.11 0.99,9.9 0.99,9.64 M 2.41,3.71 C 2.41,3.48 2.48,3.27 2.63,3.1 Q 2.855,2.83 3.17,2.83 C 3.43,2.83 3.65,2.92 3.81,3.1 3.97,3.28 4.05,3.48 4.05,3.71 4.05,3.98 3.97,4.2 3.82,4.36 3.66,4.52 3.45,4.59 3.17,4.59 2.94,4.59 2.76,4.51 2.62,4.35 2.48,4.19 2.41,3.98 2.41,3.71 M 3.4,9.64 A 0.87,0.87 0 0 1 4.28,8.76 h 3.83 l 0.88,0.88 c 0,0.26 -0.09,0.47 -0.27,0.64 -0.18,0.17 -0.38,0.24 -0.61,0.24 H 4.28 C 4.01,10.52 3.79,10.44 3.63,10.28 3.47,10.12 3.4,9.91 3.4,9.64 M 4.72,3.71 C 4.72,3.49 4.81,3.29 5,3.11 5.18,2.93 5.39,2.83 5.6,2.83 h 3.83 q 0.39,0 0.63,0.27 c 0.16,0.18 0.24,0.38 0.24,0.61 0,0.27 -0.08,0.49 -0.23,0.65 C 9.91,4.52 9.7,4.59 9.43,4.59 H 5.6 A 0.87,0.87 0 0 1 4.99,4.35 C 4.81,4.19 4.72,3.98 4.72,3.71 M 5.48,0.77 C 5.48,0.55 5.56,0.36 5.72,0.22 5.88,0.08 6.09,0 6.36,0 h 5.71 c 0.23,0 0.43,0.08 0.61,0.23 q 0.27,0.225 0.27,0.54 c 0,0.26 -0.09,0.48 -0.27,0.64 C 12.5,1.57 12.3,1.65 12.07,1.65 H 6.36 C 6.09,1.65 5.87,1.57 5.71,1.41 5.55,1.25 5.48,1.04 5.48,0.77 m 2.63,5.91 c 0,-0.21 0.09,-0.4 0.27,-0.55 a 0.926,0.926 0 0 1 1.22,0 0.7,0.7 0 0 1 0.27,0.55 q 0,0.39 -0.27,0.63 C 9.42,7.47 9.22,7.55 8.99,7.55 A 0.87,0.87 0 0 1 8.38,7.31 Q 8.11,7.085 8.11,6.68 M 9.65,9.64 C 9.65,9.41 9.73,9.2 9.89,9.03 q 0.24,-0.27 0.63,-0.27 h 1.87 c 0.26,0 0.47,0.09 0.63,0.26 0.16,0.17 0.24,0.38 0.24,0.62 0,0.27 -0.08,0.49 -0.23,0.65 -0.15,0.16 -0.37,0.23 -0.64,0.23 h -1.87 c -0.27,0 -0.48,-0.08 -0.64,-0.23 C 9.73,10.13 9.65,9.91 9.65,9.64 m 0.87,-2.96 c 0,-0.21 0.09,-0.4 0.27,-0.55 C 10.97,5.98 11.17,5.9 11.4,5.9 h 3.07 c 0.22,0 0.4,0.08 0.54,0.23 0.14,0.15 0.22,0.33 0.22,0.55 0,0.27 -0.07,0.48 -0.21,0.64 -0.14,0.16 -0.32,0.23 -0.55,0.23 H 11.4 A 0.87,0.87 0 0 1 10.79,7.31 Q 10.52,7.085 10.52,6.68 m 0.44,-2.97 c 0,-0.22 0.09,-0.42 0.28,-0.6 0.18,-0.18 0.39,-0.28 0.6,-0.28 h 1.96 q 0.315,0 0.54,0.27 c 0.15,0.18 0.23,0.38 0.23,0.61 0,0.27 -0.07,0.48 -0.22,0.64 -0.14,0.16 -0.33,0.24 -0.55,0.24 H 11.84 A 0.87,0.87 0 0 1 11.23,4.35 C 11.05,4.19 10.96,3.98 10.96,3.71 M 13.7,0.77 c 0,-0.22 0.07,-0.4 0.22,-0.55 C 14.07,0.07 14.25,0 14.47,0 c 0.27,0 0.48,0.07 0.64,0.22 0.16,0.14 0.24,0.33 0.24,0.55 0,0.27 -0.08,0.48 -0.24,0.64 -0.16,0.16 -0.37,0.24 -0.64,0.24 -0.23,0 -0.41,-0.08 -0.55,-0.24 C 13.77,1.25 13.7,1.04 13.7,0.77" id="path1" fill="currentColor"/>
</svg>
