<?xml version="1.0" encoding="UTF-8" standalone="no"?>
<svg xmlns="http://www.w3.org/2000/svg" xmlns:svg="http://www.w3.org/2000/svg" xml:space="preserve" viewBox="0 0 23.83 21.990408" version="1.1" id="svg1" width="23.83" height="21.990408" fill="currentColor">
  <defs id="defs1" fill="currentColor"/>
  <path d="m 0,12.230407 c 0,0.27 0.09,0.49 0.28,0.67 0.19,0.18 0.43,0.26 0.72,0.26 h 1.69 q 0.405,0 0.69,-0.27 c 0.285,-0.27 0.29,-0.4 0.29,-0.66 0,-0.29 -0.09,-0.53 -0.28,-0.71 -0.19,-0.18 -0.42,-0.28 -0.69,-0.28 H 1 c -0.29,0 -0.53,0.09 -0.72,0.28 -0.19,0.17 -0.28,0.41 -0.28,0.71 m 1.77,6.18 c 0,0.97 0.35,1.81 1.06,2.52 0.71,0.71 1.54,1.06 2.51,1.06 h 6.86 q 1.455,0 2.49,-1.05 c 0.69,-0.7 1.04,-1.54 1.04,-2.53 q 0,-0.72 -0.21,-1.23 c 0.83,-0.53 1.49,-1.24 1.97,-2.12 0.48,-0.88 0.73,-1.83 0.73,-2.84 0,-0.81 -0.16,-1.59 -0.48,-2.3300003 a 6.1,6.1 0 0 0 -1.28,-1.91 6.1,6.1 0 0 0 -1.91,-1.28 c -0.74,-0.32 -1.51,-0.48 -2.32,-0.48 -1.09,0 -2.1,0.27 -3.02,0.81 -0.92,0.54 -1.65,1.27 -2.18,2.18 C 6.5,10.130407 6.24,11.130407 6.24,12.220407 v 0.34 q -1.5,0.855 -1.98,2.49 c -0.76,0.24 -1.36,0.66 -1.81,1.27 a 3.44,3.44 0 0 0 -0.68,2.09 M 3.33,4.2504067 c 0,0.28 0.09,0.51 0.26,0.67 l 1.61,1.69 q 0.705,0.54 1.41,0 c 0.19,-0.19 0.28,-0.42 0.28,-0.7 0,-0.27 -0.09,-0.5 -0.28,-0.7 l -1.65,-1.65 c -0.21,-0.19 -0.45,-0.29 -0.7,-0.29 -0.28,0 -0.51,0.09 -0.68,0.28 -0.17,0.19 -0.25,0.42 -0.25,0.7 M 3.75,18.410407 c 0,-0.42 0.13,-0.78 0.4,-1.08 q 0.405,-0.45 1.02,-0.51 l 0.62,-0.08 c 0.13,0 0.2,-0.08 0.2,-0.23 l 0.09,-0.56 c 0.07,-0.58 0.31,-1.06 0.73,-1.44 0.42,-0.39 0.91,-0.58 1.48,-0.58 0.58,0 1.09,0.19 1.51,0.58 q 0.645,0.585 0.75,1.44 l 0.08,0.65 c 0.06,0.15 0.14,0.23 0.24,0.23 h 1.32 c 0.43,0 0.8,0.16 1.12,0.47 0.32,0.31 0.47,0.68 0.47,1.12 0,0.45 -0.16,0.83 -0.47,1.15 -0.31,0.32 -0.69,0.48 -1.12,0.48 H 5.34 c -0.45,0 -0.83,-0.16 -1.13,-0.48 -0.31,-0.32 -0.46,-0.71 -0.46,-1.16 m 4.42,-6.39 c 0.07,-1.09 0.49,-2.01 1.27,-2.7600003 0.77,-0.74 1.71,-1.12 2.79,-1.12 1.11,0 2.06,0.4 2.84,1.19 0.78,0.7900003 1.17,1.7600003 1.17,2.8900003 q 0,1.05 -0.51,1.95 c -0.34,0.6 -0.8,1.08 -1.38,1.45 -0.59,-0.49 -1.27,-0.73 -2.03,-0.73 -0.29,-0.88 -0.81,-1.57 -1.54,-2.09 -0.73,-0.52 -1.56,-0.78 -2.48,-0.78 z m 3.09,-8.7500003 c 0,0.27 0.1,0.51 0.29,0.7 0.19,0.19 0.42,0.29 0.69,0.29 0.28,0 0.51,-0.1 0.7,-0.29 a 0.95,0.95 0 0 0 0.29,-0.7 V 0.93040668 c 0,-0.26 -0.1,-0.48 -0.29,-0.66 A 0.97,0.97 0 0 0 12.24,4.0667881e-4 q -0.405,0 -0.69,0.27000000119 c -0.19,0.18 -0.29,0.4 -0.29,0.66 z m 6.32,15.2300003 c 0,0.27 0.09,0.5 0.27,0.7 l 1.64,1.62 q 0.63,0.63 1.41,0 c 0.18,-0.17 0.26,-0.39 0.26,-0.68 0,-0.27 -0.09,-0.49 -0.26,-0.67 l -1.69,-1.67 a 0.95,0.95 0 0 0 -0.68,-0.25 c -0.28,0 -0.5,0.09 -0.68,0.27 -0.18,0.18 -0.27,0.41 -0.27,0.68 m 0,-12.6100003 q 0,0.42 0.27,0.72 c 0.18,0.18 0.41,0.27 0.68,0.27 0.27,0 0.5,-0.09 0.68,-0.27 l 1.69,-1.69 c 0.18,-0.17 0.26,-0.39 0.26,-0.67 0,-0.28 -0.1,-0.51 -0.29,-0.69 -0.19,-0.18 -0.42,-0.28 -0.7,-0.28 -0.26,0 -0.49,0.1 -0.68,0.29 l -1.64,1.63 q -0.27,0.27 -0.27,0.69 m 2.58,6.3400003 c 0,0.27 0.09,0.49 0.28,0.67 0.19,0.18 0.43,0.26 0.72,0.26 h 1.69 q 0.405,0 0.69,-0.27 c 0.285,-0.27 0.29,-0.4 0.29,-0.66 0,-0.29 -0.09,-0.53 -0.28,-0.71 -0.19,-0.18 -0.42,-0.28 -0.69,-0.28 h -1.69 c -0.29,0 -0.53,0.09 -0.72,0.28 -0.19,0.17 -0.29,0.41 -0.29,0.71" id="path1" fill="currentColor"/>
</svg>
