<?xml version="1.0" encoding="UTF-8" standalone="no"?>
<svg xmlns="http://www.w3.org/2000/svg" xmlns:svg="http://www.w3.org/2000/svg" xml:space="preserve" viewBox="0 0 3.6099999 3.6400001" version="1.1" id="svg1" width="3.6099999" height="3.6400001" fill="currentColor">
  <defs id="defs1" fill="currentColor"/>
  <path d="M 0,1.81 C 0,1.31 0.18,0.88 0.53,0.53 0.89,0.17 1.31,0 1.81,0 2.3,0 2.73,0.18 3.08,0.53 3.43,0.89 3.61,1.31 3.61,1.81 3.61,2.31 3.43,2.74 3.08,3.1 2.73,3.46 2.3,3.64 1.81,3.64 1.32,3.64 0.89,3.46 0.53,3.1 0.17,2.74 0,2.31 0,1.81 m 0.88,0 c 0,0.26 0.09,0.48 0.27,0.67 C 1.34,2.67 1.56,2.76 1.82,2.76 2.08,2.76 2.3,2.67 2.49,2.48 2.68,2.29 2.77,2.07 2.77,1.81 A 0.87,0.87 0 0 0 2.49,1.15 0.95,0.95 0 0 0 1.82,0.87 C 1.56,0.87 1.34,0.96 1.15,1.14 0.97,1.32 0.88,1.54 0.88,1.81" id="path1" fill="currentColor"/>
</svg>
