<?xml version="1.0" encoding="UTF-8" standalone="no"?>
<svg xmlns="http://www.w3.org/2000/svg" xmlns:svg="http://www.w3.org/2000/svg" xml:space="preserve" viewBox="0 0 27.040001 24.66" version="1.1" id="svg1" width="27.040001" height="24.66" fill="currentColor">
  <defs id="defs1" fill="currentColor"/>
  <path d="m 0,20.17 q 0,0.36 0.27,0.6 c 0.17,0.17 0.37,0.25 0.61,0.25 h 5.88 c 0.26,0 0.48,0.09 0.68,0.28 0.2,0.19 0.3,0.42 0.3,0.68 0,0.26 -0.1,0.5 -0.3,0.69 -0.2,0.19 -0.42,0.29 -0.68,0.29 -0.26,0 -0.48,-0.1 -0.68,-0.3 A 0.9,0.9 0 0 0 5.47,22.42 q -0.36,0 -0.6,0.24 -0.24,0.24 -0.24,0.6 0,0.36 0.24,0.6 c 0.53,0.53 1.16,0.8 1.89,0.8 0.74,0 1.37,-0.26 1.88,-0.78 C 9.15,23.36 9.42,22.73 9.42,21.99 9.42,21.25 9.16,20.62 8.64,20.1 8.12,19.58 7.49,19.32 6.76,19.32 H 0.88 A 0.86,0.86 0 0 0 0.26,19.57 C 0.09,19.74 0,19.94 0,20.17 m 0,-3.01 c 0,0.23 0.09,0.42 0.27,0.58 0.16,0.16 0.37,0.24 0.61,0.24 h 10.97 q 1.11,0 1.89,-0.78 0.78,-0.78 0.78,-1.89 c 0,-0.74 -0.26,-1.36 -0.78,-1.88 -0.52,-0.51 -1.15,-0.77 -1.89,-0.77 -0.76,0 -1.38,0.25 -1.88,0.76 -0.16,0.16 -0.23,0.37 -0.23,0.61 0,0.24 0.08,0.44 0.23,0.6 0.15,0.15 0.35,0.23 0.6,0.23 0.24,0 0.44,-0.08 0.62,-0.23 0.19,-0.19 0.41,-0.28 0.68,-0.28 0.27,0 0.49,0.09 0.68,0.28 0.19,0.19 0.29,0.42 0.29,0.68 0,0.27 -0.1,0.5 -0.29,0.69 -0.19,0.19 -0.42,0.29 -0.68,0.29 H 0.88 A 0.87,0.87 0 0 0 0.26,16.55 C 0.09,16.73 0,16.93 0,17.16 M 5.79,10.62 C 5.79,10.38 5.88,10.18 6.05,10 Q 6.32,9.76 6.65,9.76 h 2.03 c 0.23,0 0.42,0.08 0.58,0.25 0.16,0.17 0.23,0.37 0.23,0.61 0,0.24 -0.08,0.44 -0.23,0.6 -0.16,0.17 -0.35,0.25 -0.58,0.25 H 6.65 c -0.24,0 -0.44,-0.08 -0.61,-0.25 A 0.82,0.82 0 0 1 5.79,10.62 M 8.64,3.7 C 8.64,3.47 8.72,3.27 8.87,3.09 A 0.98,0.98 0 0 1 9.51,2.85 c 0.22,0 0.42,0.08 0.59,0.24 l 1.43,1.47 c 0.16,0.15 0.24,0.35 0.24,0.59 q 0,0.36 -0.24,0.6 C 11.29,5.99 11.17,5.99 10.94,5.99 10.7,5.99 10.5,5.91 10.35,5.75 L 8.88,4.32 A 0.86,0.86 0 0 1 8.64,3.7 m 2.56,6.8 V 10.43 C 11.22,9.52 11.47,8.68 11.94,7.9 a 5.3,5.3 0 0 1 1.9,-1.83 5.1,5.1 0 0 1 2.57,-0.67 c 0.7,0 1.37,0.14 2.02,0.42 0.64,0.28 1.2,0.65 1.66,1.12 0.47,0.47 0.84,1.02 1.11,1.66 0.27,0.64 0.41,1.32 0.41,2.02 0,0.94 -0.23,1.8 -0.69,2.6 -0.46,0.8 -1.09,1.43 -1.88,1.89 a 5.1,5.1 0 0 1 -2.6,0.71 h -0.21 c -0.07,0 -0.13,-0.02 -0.17,-0.07 a 0.24,0.24 0 0 1 -0.07,-0.18 v -1.22 c 0,-0.13 0.07,-0.2 0.22,-0.2 h 0.24 c 0.96,-0.01 1.79,-0.35 2.47,-1.05 0.68,-0.69 1.03,-1.52 1.03,-2.49 0,-0.96 -0.35,-1.78 -1.04,-2.47 -0.69,-0.68 -1.52,-1.02 -2.5,-1.02 -0.94,0 -1.76,0.32 -2.44,0.98 q -1.02,0.975 -1.08,2.37 c 0,0.06 -0.03,0.11 -0.08,0.17 -0.05,0.06 -0.14,0.09 -0.26,0.09 H 11.42 C 11.27,10.74 11.2,10.66 11.2,10.5 m 4.35,9.88 v -1.99 c 0,-0.24 0.08,-0.44 0.25,-0.6 0.17,-0.16 0.37,-0.24 0.6,-0.24 a 0.82,0.82 0 0 1 0.85,0.84 v 1.99 c 0,0.24 -0.08,0.45 -0.25,0.62 -0.17,0.17 -0.37,0.25 -0.6,0.25 -0.24,0 -0.44,-0.08 -0.6,-0.25 a 0.89,0.89 0 0 1 -0.25,-0.62 m 0,-17.48 V 0.85 c 0,-0.23 0.08,-0.43 0.25,-0.6 C 15.97,0.08 16.17,0 16.4,0 c 0.24,0 0.44,0.08 0.6,0.25 0.16,0.17 0.25,0.37 0.25,0.6 V 2.89 C 17.25,3.12 17.17,3.31 17,3.47 16.83,3.62 16.63,3.7 16.4,3.7 16.16,3.7 15.96,3.62 15.8,3.47 A 0.76,0.76 0 0 1 15.55,2.9 m 5.53,13.18 c 0,-0.23 0.08,-0.42 0.23,-0.56 a 0.74,0.74 0 0 1 0.57,-0.23 c 0.24,0 0.44,0.08 0.6,0.23 l 1.45,1.42 c 0.16,0.17 0.24,0.38 0.24,0.61 0,0.23 -0.08,0.43 -0.24,0.59 q -0.6,0.465 -1.2,0 l -1.42,-1.43 c -0.16,-0.16 -0.23,-0.38 -0.23,-0.63 m 0,-10.93 c 0,-0.25 0.08,-0.45 0.23,-0.59 l 1.42,-1.47 c 0.18,-0.16 0.37,-0.24 0.59,-0.24 0.23,0 0.43,0.08 0.6,0.25 0.17,0.17 0.25,0.37 0.25,0.6 0,0.25 -0.08,0.46 -0.24,0.62 l -1.45,1.43 q -0.27,0.24 -0.6,0.24 c -0.23,0 -0.41,-0.08 -0.57,-0.24 a 0.8,0.8 0 0 1 -0.23,-0.6 m 2.26,5.47 c 0,-0.24 0.08,-0.44 0.24,-0.62 q 0.24,-0.24 0.57,-0.24 h 2.02 c 0.23,0 0.43,0.09 0.61,0.26 0.18,0.17 0.26,0.37 0.26,0.6 0,0.23 -0.09,0.43 -0.26,0.6 -0.18,0.17 -0.38,0.25 -0.61,0.25 h -2.02 c -0.23,0 -0.42,-0.08 -0.58,-0.25 a 0.8,0.8 0 0 1 -0.23,-0.6" id="path1" fill="currentColor"/>
</svg>
