<?xml version="1.0" encoding="UTF-8" standalone="no"?>
<svg xmlns="http://www.w3.org/2000/svg" xmlns:svg="http://www.w3.org/2000/svg" xml:space="preserve" viewBox="0 0 26.879999 27.300835" version="1.1" id="svg1" width="26.879999" height="27.300835" fill="currentColor">
  <defs id="defs1" fill="currentColor"/>
  <path d="m 0,16.030835 c 0,1.33 0.46,2.47 1.39,3.43 0.93,0.96 2.06,1.47 3.4,1.53 0.11,0 0.17,-0.06 0.17,-0.17 v -1.37 c 0,-0.12 -0.06,-0.18 -0.17,-0.18 -0.87,-0.07 -1.6,-0.41 -2.19,-1.04 -0.59,-0.62 -0.89,-1.36 -0.89,-2.21 0,-0.84 0.28,-1.57 0.85,-2.19 0.57,-0.62 1.26,-0.97 2.1,-1.04 l 0.52,-0.08 c 0.13,0 0.2,-0.06 0.2,-0.17 l 0.06,-0.51 c 0.11,-1.08 0.56,-1.99 1.37,-2.7099997 0.81,-0.73 1.76,-1.09 2.86,-1.09 1.09,0 2.04,0.36 2.85,1.09 0.81,0.7199997 1.27,1.6299997 1.39,2.7199997 l 0.07,0.58 c 0,0.11 0.06,0.17 0.19,0.17 h 1.6 c 0.91,0 1.68,0.32 2.32,0.95 q 0.96,0.945 0.96,2.28 c 0,0.85 -0.3,1.59 -0.89,2.21 -0.59,0.62 -1.32,0.97 -2.19,1.04 -0.13,0 -0.2,0.06 -0.2,0.18 v 1.37 c 0,0.11 0.07,0.17 0.2,0.17 1.33,-0.04 2.46,-0.55 3.38,-1.51 0.92,-0.96 1.38,-2.11 1.38,-3.45 0,-0.68 -0.16,-1.37 -0.47,-2.07 0.78,-0.94 1.18,-2.03 1.18,-3.27 q 0,-1.0649997 -0.42,-2.0399997 c -0.28,-0.65 -0.65,-1.2 -1.12,-1.67 -0.47,-0.47 -1.03,-0.84 -1.67,-1.12 -0.65,-0.27 -1.32,-0.41 -2.03,-0.41 -1.54,0 -2.84,0.58 -3.88,1.73 -0.86,-0.41 -1.74,-0.62 -2.65,-0.62 -1.42,0 -2.67,0.43 -3.76,1.3 -1.09,0.87 -1.79,1.99 -2.1,3.3699997 -1.1,0.26 -2.01,0.83 -2.73,1.73 -0.72,0.9 -1.08,1.92 -1.08,3.07 m 7.5,11.27 h 0.3 l 5.32,-7.85 c 0.04,-0.04 0.05,-0.09 0.02,-0.14 -0.03,-0.05 -0.07,-0.07 -0.14,-0.07 h -2.18 l 2.3,-4.21 c 0.07,-0.14 0.03,-0.22 -0.14,-0.22 h -2.94 c -0.08,0 -0.15,0.05 -0.22,0.14 l -2.16,5.72 c -0.02,0.14 0.02,0.21 0.14,0.21 H 9.97 Z M 8.38,3.7208353 c 0,0.25 0.08,0.46 0.24,0.62 l 0.66,0.65 c 0.42,0.32 0.82,0.32 1.21,0 0.16,-0.18 0.24,-0.39 0.24,-0.64 0,-0.23 -0.08,-0.43 -0.24,-0.59 l -0.64,-0.65 a 0.9,0.9 0 0 0 -0.62,-0.25 c -0.23,0 -0.43,0.08 -0.6,0.25 -0.17,0.17 -0.25,0.38 -0.25,0.61 m 5.34,4.43 c 0.68,-0.68 1.51,-1.02 2.48,-1.02 0.98,0 1.81,0.35 2.49,1.04 0.69,0.69 1.03,1.53 1.03,2.5199997 0,0.61 -0.17,1.21 -0.51,1.81 -0.98,-0.94 -2.13,-1.41 -3.46,-1.41 H 15.44 C 15.18,9.9508353 14.6,8.9708353 13.72,8.1508353 m 1.62,-5.29 c 0,0.25 0.08,0.46 0.24,0.62 0.16,0.16 0.36,0.24 0.61,0.24 0.24,0 0.43,-0.08 0.59,-0.24 0.16,-0.16 0.23,-0.37 0.23,-0.62 v -2.04 c 0,-0.24 -0.08,-0.43 -0.23,-0.59 A 0.78,0.78 0 0 0 16.19,8.3529851e-4 c -0.24,0 -0.44,0.0800000015 -0.6,0.23000000149 -0.16,0.15 -0.25,0.35 -0.25,0.59 z m 5.52,2.32 q 0,0.345 0.27,0.6 c 0.18,0.17 0.37,0.25 0.55,0.25 0.16,0 0.37,-0.08 0.62,-0.25 l 1.44,-1.43 c 0.17,-0.18 0.25,-0.39 0.25,-0.63 0,-0.24 -0.08,-0.45 -0.25,-0.61 a 0.85,0.85 0 0 0 -0.6,-0.24 c -0.22,0 -0.41,0.08 -0.58,0.25 l -1.43,1.43 q -0.27,0.285 -0.27,0.63 m 0.81,11.8199997 c 0,0.23 0.08,0.43 0.24,0.61 l 0.65,0.66 c 0.16,0.16 0.36,0.24 0.58,0.24 0.24,0 0.44,-0.08 0.6,-0.25 0.17,-0.17 0.25,-0.38 0.25,-0.63 0,-0.23 -0.08,-0.42 -0.25,-0.57 l -0.62,-0.66 a 0.92,0.92 0 0 0 -0.62,-0.23 c -0.23,0 -0.43,0.08 -0.59,0.24 -0.16,0.16 -0.24,0.36 -0.24,0.59 m 1.45,-6.31 c 0,0.22 0.09,0.41 0.26,0.57 0.17,0.17 0.37,0.25 0.6,0.25 h 2.04 c 0.24,0 0.44,-0.08 0.61,-0.24 0.17,-0.16 0.25,-0.35 0.25,-0.59 0,-0.24 -0.09,-0.44 -0.26,-0.61 -0.17,-0.1699997 -0.37,-0.2499997 -0.6,-0.2499997 h -2.04 c -0.23,0 -0.43,0.08 -0.6,0.2499997 a 0.87,0.87 0 0 0 -0.26,0.62" id="path1" fill="currentColor"/>
</svg>
