<?xml version="1.0" encoding="UTF-8" standalone="no"?>
<svg xmlns="http://www.w3.org/2000/svg" xmlns:svg="http://www.w3.org/2000/svg" xml:space="preserve" viewBox="0 0 9.9099998 9.9099998" version="1.1" id="svg1" width="9.9099998" height="9.9099998" fill="currentColor">
  <defs id="defs1" fill="currentColor"/>
  <path d="m 0,8.9 c 0,0.3 0.09,0.55 0.26,0.73 0.2,0.19 0.46,0.28 0.79,0.28 0.3,0 0.55,-0.09 0.73,-0.28 L 7.82,3.58 v 1.95 q 0,0.45 0.3,0.75 0.3,0.3 0.75,0.3 c 0.29,0 0.54,-0.1 0.74,-0.31 0.2,-0.21 0.3,-0.45 0.3,-0.75 V 1.05 Q 9.91,0.6 9.61,0.3 C 9.31,0 9.16,0 8.87,0 H 4.37 C 4.08,0 3.83,0.1 3.64,0.3 3.45,0.5 3.35,0.74 3.35,1.05 c 0,0.29 0.1,0.54 0.29,0.73 0.19,0.19 0.44,0.29 0.73,0.29 H 6.32 L 0.26,8.13 C 0.09,8.34 0,8.6 0,8.9" id="path1" fill="currentColor"/>
</svg>
