<?xml version="1.0" encoding="UTF-8" standalone="no"?>
<svg xmlns="http://www.w3.org/2000/svg" xmlns:svg="http://www.w3.org/2000/svg" xml:space="preserve" viewBox="0 0 29.299999 24.620251" version="1.1" id="svg1" width="29.299999" height="24.620251" fill="currentColor">
  <defs id="defs1" fill="currentColor"/>
  <path d="m 0,20.13025 q 0,0.36 0.27,0.6 c 0.17,0.17 0.37,0.25 0.61,0.25 h 5.88 c 0.26,0 0.48,0.09 0.68,0.28 0.2,0.19 0.3,0.42 0.3,0.68 0,0.26 -0.1,0.5 -0.3,0.69 -0.2,0.19 -0.42,0.29 -0.68,0.29 -0.26,0 -0.48,-0.1 -0.68,-0.3 a 0.9,0.9 0 0 0 -0.61,-0.24 q -0.36,0 -0.6,0.24 -0.24,0.24 -0.24,0.6 0,0.36 0.24,0.6 c 0.53,0.53 1.16,0.8 1.89,0.8 0.74,0 1.37,-0.26 1.88,-0.78 q 0.78,-0.78 0.78,-1.89 c 0,-1.11 -0.26,-1.37 -0.78,-1.89 -0.52,-0.53 -1.15,-0.79 -1.88,-0.79 H 0.88 c -0.24,0 -0.44,0.09 -0.62,0.26 -0.18,0.17 -0.26,0.37 -0.26,0.6 m 0,-3.01 q 0,0.33 0.27,0.57 c 0.17,0.17 0.37,0.25 0.61,0.25 h 10.97 q 1.11,0 1.89,-0.78 0.78,-0.78 0.78,-1.89 c 0,-0.74 -0.26,-1.36 -0.78,-1.88 -0.52,-0.51 -1.15,-0.77 -1.89,-0.77 -0.76,0 -1.38,0.25 -1.88,0.76 -0.16,0.16 -0.23,0.37 -0.23,0.61 0,0.24 0.08,0.44 0.23,0.6 0.15,0.15 0.35,0.23 0.6,0.23 0.24,0 0.44,-0.08 0.62,-0.23 0.19,-0.19 0.41,-0.28 0.67,-0.28 0.26,0 0.49,0.09 0.68,0.28 0.19,0.19 0.29,0.42 0.29,0.68 0,0.27 -0.1,0.5 -0.29,0.69 -0.19,0.19 -0.42,0.29 -0.68,0.29 H 0.88 a 0.87,0.87 0 0 0 -0.62,0.26 c -0.18,0.18 -0.26,0.38 -0.26,0.61 m 2.65,-2.35 c 0,0.08 0.06,0.12 0.17,0.12 h 1.43 c 0.07,0 0.13,-0.05 0.2,-0.14 q 0.33,-0.81 1.05,-1.35 c 0.47,-0.35 1,-0.55 1.6,-0.6 l 0.53,-0.07 c 0.12,0 0.19,-0.06 0.19,-0.17 l 0.07,-0.52 c 0.11,-1.08 0.56,-1.98 1.37,-2.7099995 0.81,-0.73 1.76,-1.09 2.85,-1.09 1.1,0 2.05,0.36 2.86,1.08 0.81,0.7199995 1.27,1.6299995 1.38,2.7099995 l 0.07,0.58 q 0,0.18 0.18,0.18 h 1.63 c 0.9,0 1.67,0.31 2.3,0.94 0.63,0.63 0.95,1.39 0.95,2.27 0,0.89 -0.32,1.66 -0.95,2.29 -0.63,0.63 -1.4,0.95 -2.3,0.95 h -6.9 c -0.13,0 -0.19,0.06 -0.19,0.18 v 1.37 c 0,0.11 0.06,0.17 0.19,0.17 h 6.9 c 0.89,0 1.72,-0.22 2.48,-0.67 0.76,-0.44 1.36,-1.05 1.8,-1.81 0.44,-0.76 0.66,-1.59 0.66,-2.48 0,-0.74 -0.14,-1.41 -0.42,-2.03 0.76,-0.99 1.13,-2.1 1.13,-3.31 0,-0.9399995 -0.24,-1.8099995 -0.71,-2.6199995 -0.47,-0.81 -1.11,-1.45 -1.92,-1.92 -0.81,-0.47 -1.68,-0.71 -2.62,-0.71 -1.54,0 -2.83,0.58 -3.86,1.73 -0.8,-0.41 -1.69,-0.61 -2.67,-0.61 -1.41,0 -2.65,0.44 -3.73,1.31 -1.08,0.87 -1.77,1.99 -2.06,3.3399995 q -1.275,0.3 -2.25,1.23 c -0.65,0.62 -1.11,1.35 -1.36,2.19 v 0.04 c -0.04,0.07 -0.05,0.1 -0.05,0.13 M 10.83,3.7402505 q 0,0.345 0.27,0.6 l 0.61,0.65 c 0.16,0.16 0.37,0.24 0.61,0.24 0.25,0 0.45,-0.08 0.61,-0.23 q 0.24,-0.225 0.24,-0.6 c 0,-0.24 -0.07,-0.44 -0.23,-0.6 l -0.66,-0.65 c -0.16,-0.17 -0.35,-0.26 -0.59,-0.26 -0.24,0 -0.44,0.08 -0.61,0.25 -0.17,0.17 -0.25,0.37 -0.25,0.6 m 5.32,4.41 c 0.72,-0.68 1.54,-1.02 2.48,-1.02 0.97,0 1.8,0.35 2.51,1.05 0.7,0.7 1.05,1.54 1.05,2.5099995 0,0.65 -0.17,1.26 -0.52,1.83 -0.96,-0.96 -2.11,-1.43 -3.46,-1.43 h -0.34 c -0.23,-1.09 -0.81,-2.0699995 -1.72,-2.9399995 m 1.62,-5.24 c 0,0.23 0.08,0.43 0.25,0.59 q 0.255,0.24 0.6,0.24 c 0.24,0 0.44,-0.08 0.61,-0.24 0.17,-0.16 0.25,-0.35 0.25,-0.59 V 0.86025049 c 0,-0.24 -0.08,-0.44 -0.25,-0.61 A 0.82,0.82 0 0 0 18.62,2.5048621e-4 c -0.24,0 -0.44,0.0800000038 -0.6,0.25000000379 -0.16,0.17 -0.25,0.37 -0.25,0.61 z m 5.55,2.27 c 0,0.24 0.08,0.44 0.23,0.6 0.17,0.17 0.37,0.25 0.61,0.26 0.24,0.01 0.43,-0.08 0.57,-0.26 l 1.46,-1.43 c 0.17,-0.17 0.25,-0.37 0.25,-0.61 0,-0.23 -0.08,-0.43 -0.25,-0.6 -0.17,-0.17 -0.37,-0.25 -0.61,-0.25 -0.24,0 -0.44,0.07 -0.6,0.23 l -1.43,1.47 c -0.15,0.16 -0.23,0.35 -0.23,0.59 M 24.09,17.01025 c 0,0.23 0.08,0.43 0.25,0.6 l 0.64,0.65 c 0.2,0.16 0.41,0.24 0.62,0.24 0.19,0 0.39,-0.08 0.59,-0.24 0.17,-0.17 0.25,-0.37 0.25,-0.6 a 0.9,0.9 0 0 0 -0.25,-0.61 l -0.64,-0.65 a 0.8,0.8 0 0 0 -0.58,-0.24 c -0.25,0 -0.46,0.08 -0.63,0.25 -0.17,0.16 -0.25,0.36 -0.25,0.6 m 1.51,-6.32 c 0,0.24 0.08,0.43 0.25,0.59 0.15,0.18 0.34,0.26 0.57,0.26 h 2.02 c 0.24,0 0.44,-0.08 0.61,-0.25 0.17,-0.17 0.25,-0.37 0.25,-0.6 0,-0.23 -0.09,-0.43 -0.26,-0.6 a 0.83,0.83 0 0 0 -0.6,-0.2599995 h -2.02 c -0.24,0 -0.43,0.08 -0.59,0.2499995 a 0.9,0.9 0 0 0 -0.23,0.61" id="path1" fill="currentColor"/>
</svg>
