<?xml version="1.0" encoding="UTF-8" standalone="no"?>
<svg xmlns="http://www.w3.org/2000/svg" xmlns:svg="http://www.w3.org/2000/svg" xml:space="preserve" viewBox="0 0 26.98 26.830214" version="1.1" id="svg1" width="26.98" height="26.830214" fill="currentColor">
  <defs id="defs1" fill="currentColor"/>
  <path d="m 0,16.030213 c 0,1.33 0.46,2.48 1.39,3.44 0.93,0.96 2.06,1.47 3.41,1.53 0.11,0 0.17,-0.06 0.17,-0.17 v -1.34 c 0,-0.11 -0.06,-0.17 -0.17,-0.17 -0.86,-0.04 -1.59,-0.39 -2.19,-1.03 -0.6,-0.64 -0.9,-1.4 -0.9,-2.26 0,-0.82 0.28,-1.54 0.85,-2.16 0.57,-0.62 1.27,-0.97 2.1,-1.07 l 0.53,-0.05 c 0.13,0 0.2,-0.06 0.2,-0.17 l 0.07,-0.54 c 0.11,-1.08 0.56,-1.99 1.37,-2.7199996 0.81,-0.73 1.76,-1.1 2.85,-1.1 1.09,0 2.04,0.37 2.86,1.1 0.82,0.7299996 1.28,1.6399996 1.4,2.7199996 l 0.07,0.57 c 0,0.12 0.06,0.19 0.17,0.19 h 1.62 c 0.89,0 1.65,0.32 2.3,0.96 0.65,0.64 0.97,1.39 0.97,2.27 0,0.87 -0.3,1.62 -0.9,2.26 -0.6,0.64 -1.33,0.98 -2.18,1.03 -0.12,0 -0.19,0.06 -0.19,0.17 v 1.34 c 0,0.11 0.06,0.17 0.19,0.17 1.33,-0.04 2.46,-0.55 3.39,-1.51 0.93,-0.97 1.39,-2.12 1.39,-3.45 q 0,-1.08 -0.42,-2.01 c 0.78,-0.97 1.17,-2.07 1.17,-3.31 0,-0.9499996 -0.24,-1.8299996 -0.71,-2.6399996 q -0.705,-1.215 -1.92,-1.92 c -1.215,-0.705 -1.68,-0.7 -2.62,-0.7 -1.56,0 -2.85,0.58 -3.88,1.74 -0.82,-0.44 -1.72,-0.66 -2.71,-0.66 -1.41,0 -2.67,0.44 -3.76,1.32 -1.09,0.88 -1.79,2 -2.1,3.3599996 -1.11,0.26 -2.02,0.84 -2.74,1.74 -0.72,0.9 -1.08,1.92 -1.08,3.07 m 5.4,6.86 c 0,0.17 0.05,0.33 0.16,0.49 0.11,0.16 0.27,0.27 0.49,0.33 0.11,0.02 0.2,0.04 0.27,0.04 0.39,0 0.65,-0.21 0.77,-0.64 l 1.58,-5.88 c 0.07,-0.24 0.04,-0.46 -0.08,-0.67 a 0.77,0.77 0 0 0 -0.53,-0.38 0.74,0.74 0 0 0 -0.63,0.07 c -0.2,0.11 -0.34,0.28 -0.41,0.51 l -1.58,5.91 c -0.02,0.13 -0.04,0.2 -0.04,0.22 m 2.61,3.08 c 0,0.19 0.05,0.36 0.15,0.52 0.1,0.16 0.27,0.26 0.52,0.3 0.11,0.02 0.2,0.04 0.26,0.04 0.16,0 0.31,-0.06 0.45,-0.17 q 0.21,-0.18 0.27,-0.48 l 2.4,-8.93 c 0.06,-0.23 0.04,-0.45 -0.07,-0.64 -0.11,-0.19 -0.28,-0.33 -0.5,-0.4 a 0.78,0.78 0 0 0 -0.65,0.07 c -0.2,0.11 -0.34,0.28 -0.4,0.51 l -2.4,8.93 c -0.02,0.15 -0.03,0.24 -0.03,0.25 M 8.43,3.7402134 c 0,0.24 0.08,0.44 0.25,0.61 l 0.65,0.66 c 0.19,0.15 0.4,0.22 0.62,0.22 0.21,0 0.41,-0.08 0.58,-0.23 0.17,-0.16 0.26,-0.35 0.26,-0.59 0,-0.24 -0.08,-0.46 -0.24,-0.64 l -0.64,-0.65 a 0.854,0.854 0 0 0 -1.22,0.01 c -0.17,0.17 -0.26,0.38 -0.26,0.61 m 3.73,19.1699996 a 0.822,0.822 0 0 0 0.61,0.79 c 0.11,0.02 0.2,0.04 0.25,0.04 0.17,0 0.34,-0.05 0.49,-0.15 0.15,-0.1 0.25,-0.26 0.3,-0.49 l 1.58,-5.88 a 0.835,0.835 0 0 0 -0.57,-1.04 0.77,0.77 0 0 0 -0.65,0.07 0.78,0.78 0 0 0 -0.39,0.51 l -1.58,5.91 c -0.02,0.15 -0.04,0.23 -0.04,0.24 M 13.79,8.1702134 c 0.71,-0.67 1.53,-1 2.48,-1 0.98,0 1.82,0.35 2.5,1.04 0.69,0.69 1.03,1.53 1.03,2.5199996 0,0.62 -0.17,1.24 -0.52,1.85 -0.97,-0.97 -2.13,-1.45 -3.49,-1.45 H 15.46 A 5.76,5.76 0 0 0 13.79,8.1702134 m 1.62,-5.25 c 0,0.23 0.08,0.43 0.25,0.59 0.17,0.16 0.37,0.24 0.61,0.24 0.23,0 0.43,-0.08 0.59,-0.23 0.16,-0.16 0.24,-0.35 0.24,-0.59 V 0.87021339 c 0,-0.26 -0.08,-0.47 -0.23,-0.63 A 0.8,0.8 0 0 0 16.28,2.1339485e-4 c -0.25,0 -0.46,0.0799999951 -0.62,0.24999999515 -0.16,0.17 -0.24,0.37 -0.24,0.62 V 2.9202134 Z m 5.53,2.28 c 0,0.24 0.09,0.44 0.27,0.59 0.14,0.16 0.32,0.24 0.55,0.26 0.23,0.02 0.44,-0.07 0.62,-0.26 l 1.44,-1.43 c 0.18,-0.17 0.26,-0.38 0.26,-0.63 0,-0.24 -0.08,-0.45 -0.25,-0.61 a 0.85,0.85 0 0 0 -0.61,-0.24 c -0.21,0 -0.4,0.08 -0.58,0.25 l -1.43,1.44 q -0.27,0.255 -0.27,0.63 m 0.81,11.8499996 q 0,0.36 0.24,0.63 l 0.65,0.63 q 0.27,0.21 0.6,0.21 l 0.02,0.02 c 0.23,0 0.42,-0.08 0.58,-0.24 0.16,-0.16 0.24,-0.37 0.24,-0.61 0,-0.24 -0.09,-0.43 -0.26,-0.58 l -0.62,-0.66 c -0.18,-0.16 -0.39,-0.24 -0.62,-0.24 -0.23,0 -0.43,0.08 -0.59,0.25 -0.16,0.17 -0.24,0.35 -0.24,0.59 m 1.46,-6.33 c 0,0.24 0.09,0.43 0.26,0.59 0.18,0.18 0.38,0.26 0.62,0.26 h 2.03 c 0.24,0 0.44,-0.08 0.61,-0.25 0.17,-0.17 0.25,-0.37 0.25,-0.6 0,-0.24 -0.08,-0.44 -0.25,-0.61 C 26.56,9.9402134 26.36,9.8502134 26.12,9.8502134 h -2.03 a 0.87,0.87 0 0 0 -0.62,0.2599996 c -0.18,0.17 -0.26,0.37 -0.26,0.61" id="path1" fill="currentColor"/>
</svg>
