<?xml version="1.0" encoding="UTF-8" standalone="no"?>
<svg xmlns="http://www.w3.org/2000/svg" xmlns:svg="http://www.w3.org/2000/svg" xml:space="preserve" viewBox="0 0 21.24 16.850058" version="1.1" id="svg1" width="21.24" height="16.850058" fill="currentColor">
  <defs id="defs1" fill="currentColor"/>
  <path d="M 0,10.62 C 0,10.38 0.08,10.18 0.25,10.01 0.43,9.84 0.63,9.76 0.85,9.76 h 2.04 c 0.23,0 0.42,0.08 0.58,0.25 0.15,0.17 0.23,0.37 0.23,0.61 0,0.24 -0.08,0.44 -0.23,0.6 -0.15,0.17 -0.35,0.25 -0.58,0.25 H 0.86 c -0.23,0 -0.43,-0.08 -0.6,-0.25 A 0.83,0.83 0 0 1 0,10.62 M 2.86,3.71 C 2.86,3.48 2.94,3.28 3.09,3.1 3.29,2.93 3.5,2.85 3.73,2.85 c 0.21,0 0.41,0.08 0.59,0.25 l 1.43,1.46 c 0.16,0.15 0.24,0.35 0.24,0.59 q 0,0.36 -0.24,0.6 -0.24,0.24 -0.6,0.24 C 4.91,5.99 4.71,5.91 4.56,5.75 L 3.1,4.32 A 0.85,0.85 0 0 1 2.86,3.71 m 0.16,9.31 c 0,-0.22 0.08,-0.41 0.23,-0.55 0.16,-0.14 0.37,-0.22 0.64,-0.22 H 9.6 c 0.27,0 0.48,0.07 0.64,0.22 0.16,0.14 0.24,0.33 0.24,0.55 0,0.27 -0.08,0.48 -0.23,0.64 C 10.09,13.82 9.88,13.9 9.6,13.9 H 3.89 C 3.62,13.9 3.41,13.82 3.25,13.67 3.09,13.52 3.02,13.29 3.02,13.02 m 0.99,2.95 c 0,-0.22 0.09,-0.42 0.28,-0.6 a 0.85,0.85 0 0 1 1.23,-0.01 c 0.16,0.18 0.24,0.38 0.24,0.61 0,0.28 -0.08,0.49 -0.23,0.65 -0.15,0.16 -0.37,0.23 -0.64,0.23 A 0.87,0.87 0 0 1 4.28,16.61 0.82,0.82 0 0 1 4.01,15.97 M 5.42,10.91 V 10.84 C 5.45,9.58 5.89,8.49 6.73,7.56 7.57,6.63 8.6,6.07 9.83,5.87 h 0.05 c 0.19,-0.04 0.45,-0.06 0.76,-0.06 0.31,0 0.57,0.02 0.76,0.06 h 0.04 c 1.22,0.19 2.26,0.76 3.1,1.69 0.84,0.93 1.28,2.02 1.31,3.28 v 0.07 c 0,0.16 -0.08,0.24 -0.23,0.24 h -1.13 c -0.12,0 -0.2,-0.03 -0.25,-0.09 A 0.27,0.27 0 0 1 14.17,10.88 Q 14.11,9.485 13.09,8.51 C 12.41,7.86 11.6,7.54 10.65,7.54 9.7,7.54 8.89,7.86 8.21,8.51 Q 7.19,9.485 7.13,10.88 C 7.13,10.94 7.1,11 7.05,11.06 7,11.12 6.91,11.15 6.79,11.15 H 5.66 q -0.24,0 -0.24,-0.24 m 1.01,5.06 c 0,-0.23 0.08,-0.43 0.24,-0.61 C 6.83,15.19 7.04,15.1 7.3,15.1 h 3.83 q 0.33,0 0.6,0.27 c 0.18,0.18 0.28,0.38 0.28,0.6 0,0.26 -0.09,0.48 -0.27,0.64 -0.18,0.16 -0.38,0.24 -0.61,0.24 H 7.3 C 7.03,16.85 6.82,16.77 6.66,16.62 6.5,16.46 6.43,16.25 6.43,15.97 M 9.77,2.89 V 0.86 C 9.77,0.62 9.85,0.42 10.02,0.25 10.19,0.08 10.39,0 10.63,0 c 0.24,0 0.43,0.08 0.6,0.25 0.17,0.17 0.25,0.37 0.25,0.61 v 2.03 c 0,0.23 -0.08,0.43 -0.25,0.58 -0.17,0.15 -0.37,0.24 -0.6,0.24 -0.23,0 -0.44,-0.08 -0.6,-0.23 C 9.87,3.33 9.77,3.12 9.77,2.89 m 1.36,10.13 q 0,-0.315 0.27,-0.54 c 0.27,-0.225 0.38,-0.23 0.61,-0.23 0.23,0 0.43,0.08 0.61,0.23 0.18,0.15 0.27,0.33 0.27,0.54 0,0.26 -0.09,0.48 -0.27,0.64 -0.18,0.16 -0.38,0.24 -0.61,0.24 -0.23,0 -0.44,-0.08 -0.61,-0.24 a 0.84,0.84 0 0 1 -0.27,-0.64 m 1.54,2.95 c 0,-0.23 0.08,-0.43 0.24,-0.61 0.16,-0.17 0.38,-0.26 0.64,-0.26 h 1.86 c 0.26,0 0.47,0.09 0.63,0.26 0.16,0.18 0.24,0.38 0.24,0.61 0,0.28 -0.08,0.49 -0.23,0.65 -0.15,0.16 -0.37,0.23 -0.64,0.23 h -1.86 c -0.27,0 -0.48,-0.08 -0.64,-0.23 -0.16,-0.16 -0.24,-0.37 -0.24,-0.65 m 0.88,-2.95 q 0,-0.315 0.27,-0.54 c 0.27,-0.225 0.38,-0.23 0.6,-0.23 h 3.07 c 0.22,0 0.4,0.07 0.54,0.22 0.14,0.15 0.22,0.33 0.22,0.55 0,0.27 -0.07,0.48 -0.21,0.64 -0.14,0.16 -0.32,0.24 -0.55,0.24 h -3.07 c -0.23,0 -0.43,-0.08 -0.61,-0.24 a 0.87,0.87 0 0 1 -0.26,-0.64 m 1.74,-7.87 c 0,-0.25 0.08,-0.45 0.23,-0.59 L 16.94,3.1 c 0.18,-0.17 0.38,-0.25 0.59,-0.25 0.23,0 0.43,0.08 0.6,0.25 0.17,0.17 0.25,0.37 0.25,0.61 0,0.24 -0.08,0.45 -0.24,0.61 l -1.46,1.42 q -0.27,0.24 -0.6,0.24 C 15.85,5.98 15.67,5.9 15.52,5.74 A 0.8,0.8 0 0 1 15.29,5.15 m 2.26,5.47 c 0,-0.23 0.08,-0.43 0.24,-0.61 0.17,-0.17 0.36,-0.25 0.57,-0.25 h 2.02 c 0.23,0 0.43,0.09 0.6,0.26 0.17,0.17 0.26,0.37 0.26,0.6 0,0.23 -0.09,0.43 -0.26,0.6 -0.17,0.17 -0.37,0.25 -0.6,0.25 h -2.02 c -0.23,0 -0.43,-0.08 -0.58,-0.25 -0.15,-0.17 -0.23,-0.36 -0.23,-0.6" id="path1" fill="currentColor"/>
</svg>
