<?xml version="1.0" encoding="UTF-8" standalone="no"?>
<svg xmlns="http://www.w3.org/2000/svg" xmlns:svg="http://www.w3.org/2000/svg" xml:space="preserve" viewBox="0 0 21.240026 21.26" version="1.1" id="svg1" width="21.240026" height="21.26" fill="currentColor">
  <defs id="defs1" fill="currentColor"/>
  <path d="m 2.664608e-5,10.62 c 0,-0.24 0.08000000392,-0.45 0.25000000392,-0.62 0.17,-0.16 0.38,-0.24 0.6,-0.24 H 2.8900266 c 0.23,0 0.42,0.08 0.58,0.25 0.15,0.17 0.23,0.37 0.23,0.61 0,0.24 -0.07,0.44 -0.22,0.61 -0.15,0.17 -0.35,0.25 -0.58,0.25 H 0.86002665 c -0.23,0 -0.43,-0.08 -0.6,-0.25 A 0.83,0.83 0 0 1 2.664608e-5,10.62 M 2.8600266,17.55 c 0,-0.23 0.08,-0.43 0.23,-0.61 l 1.47,-1.43 c 0.15,-0.16 0.35,-0.23 0.59,-0.23 0.24,0 0.44,0.08 0.6,0.23 0.16,0.15 0.24,0.34 0.24,0.57 0,0.24 -0.08,0.46 -0.24,0.64 l -1.42,1.42 q -0.615,0.48 -1.23,0 a 0.8,0.8 0 0 1 -0.24,-0.59 m 0,-13.84 c 0,-0.23 0.08,-0.43 0.23,-0.61 0.2,-0.17 0.41,-0.25 0.64,-0.25 0.22,0 0.42,0.08 0.59,0.24 l 1.43,1.47 c 0.16,0.15 0.24,0.35 0.24,0.59 q 0,0.36 -0.24,0.6 c -0.24,0.24 -0.36,0.24 -0.6,0.24 -0.24,0 -0.44,-0.08 -0.59,-0.24 l -1.46,-1.43 a 0.84,0.84 0 0 1 -0.24,-0.61 m 2.55,6.91 c 0,-0.93 0.23,-1.8 0.7,-2.6 0.47,-0.8 1.1,-1.44 1.91,-1.91 0.81,-0.47 1.67,-0.7 2.6000004,-0.7 0.7,0 1.37,0.14 2.02,0.42 0.64,0.28 1.2,0.65 1.66,1.12 0.47,0.47 0.84,1.02 1.11,1.66 0.27,0.64 0.41,1.32 0.41,2.02 0,0.94 -0.23,1.81 -0.7,2.61 -0.47,0.8 -1.1,1.43 -1.9,1.9 -0.8,0.47 -1.67,0.7 -2.61,0.7 -0.9400004,0 -1.8100004,-0.23 -2.6100004,-0.7 -0.8,-0.47 -1.43,-1.1 -1.9,-1.9 -0.45,-0.81 -0.69,-1.68 -0.69,-2.62 m 1.7,0 c 0,0.98 0.34,1.81 1.03,2.5 0.68,0.69 1.51,1.04 2.4900004,1.04 0.98,0 1.81,-0.35 2.5,-1.04 0.69,-0.69 1.04,-1.52 1.04,-2.5 0,-0.96 -0.35,-1.78 -1.04,-2.47 -0.69,-0.68 -1.52,-1.02 -2.5,-1.02 -0.9700004,0 -1.8000004,0.34 -2.4800004,1.02 -0.7,0.69 -1.04,1.51 -1.04,2.47 m 2.66,7.78 c 0,-0.24 0.08,-0.44 0.2500004,-0.6 0.17,-0.16 0.37,-0.24 0.6,-0.24 0.24,0 0.45,0.08 0.61,0.24 0.16,0.16 0.24,0.36 0.24,0.6 v 1.99 c 0,0.24 -0.08,0.45 -0.25,0.62 -0.17,0.17 -0.37,0.25 -0.6,0.25 -0.23,0 -0.44,-0.08 -0.6,-0.25 A 0.85,0.85 0 0 1 9.7700266,20.39 Z m 0,-15.5 V 0.86 c 0,-0.23 0.08,-0.43 0.2500004,-0.6 0.17,-0.17 0.37,-0.26 0.61,-0.26 0.24,0 0.43,0.08 0.6,0.25 0.17,0.17 0.25,0.37 0.25,0.6 V 2.9 c 0,0.23 -0.08,0.42 -0.25,0.58 -0.17,0.16 -0.37,0.23 -0.6,0.23 -0.23,0 -0.44,-0.08 -0.6,-0.23 C 9.8700266,3.33 9.7700266,3.13 9.7700266,2.9 m 5.5200004,13.18 c 0,-0.23 0.08,-0.42 0.23,-0.56 0.15,-0.16 0.34,-0.23 0.56,-0.23 0.24,0 0.44,0.08 0.6,0.23 l 1.46,1.43 c 0.16,0.17 0.24,0.38 0.24,0.61 0,0.23 -0.08,0.43 -0.24,0.59 q -0.6,0.465 -1.2,0 l -1.42,-1.42 a 0.97,0.97 0 0 1 -0.23,-0.65 m 0,-10.92 c 0,-0.25 0.08,-0.45 0.23,-0.59 l 1.42,-1.47 a 0.84,0.84 0 0 1 0.59,-0.24 c 0.24,0 0.44,0.08 0.6,0.25 0.17,0.17 0.25,0.37 0.25,0.6 0,0.25 -0.08,0.46 -0.24,0.62 l -1.46,1.43 q -0.27,0.24 -0.6,0.24 c -0.23,0 -0.41,-0.08 -0.56,-0.24 -0.15,-0.16 -0.23,-0.36 -0.23,-0.6 m 2.26,5.46 c 0,-0.24 0.08,-0.44 0.24,-0.62 q 0.24,-0.24 0.57,-0.24 h 2.02 c 0.23,0 0.43,0.09 0.6,0.26 0.17,0.17 0.26,0.37 0.26,0.6 0,0.23 -0.09,0.43 -0.26,0.6 -0.17,0.17 -0.37,0.25 -0.6,0.25 h -2.02 c -0.23,0 -0.43,-0.08 -0.58,-0.25 -0.15,-0.17 -0.23,-0.36 -0.23,-0.6" id="path1" fill="currentColor"/>
</svg>
