<?xml version="1.0" encoding="UTF-8" standalone="no"?>
<svg xmlns="http://www.w3.org/2000/svg" xmlns:svg="http://www.w3.org/2000/svg" xml:space="preserve" viewBox="0 0 27.02 26.95006" version="1.1" id="svg1" width="27.02" height="26.95006" fill="currentColor">
  <defs id="defs1" fill="currentColor"/>
  <path d="m 0,16.060059 c 0,1.12 0.33,2.12 1,3 0.67,0.88 1.53,1.47 2.58,1.76 l -0.66,1.7 c -0.05,0.14 0,0.22 0.14,0.22 h 2.13 l -1.43,4.21 h 0.29 l 4.36,-5.66 c 0.04,-0.04 0.04,-0.09 0.02,-0.14 -0.02,-0.05 -0.07,-0.07 -0.14,-0.07 H 6.1 l 2.49,-4.65 c 0.07,-0.14 0.03,-0.22 -0.14,-0.22 H 5.49 c -0.09,0 -0.17,0.05 -0.23,0.15 l -1.07,2.88 a 3.14,3.14 0 0 1 -1.78,-1.16 c -0.47,-0.59 -0.7,-1.26 -0.7,-2.02 0,-0.84 0.28,-1.57 0.84,-2.18 0.56,-0.61 1.27,-0.97 2.11,-1.07 l 0.51,-0.03 c 0.12,0 0.19,-0.05 0.22,-0.14 l 0.07,-0.59 c 0.11,-1.08 0.56,-1.99 1.37,-2.7200003 0.81,-0.73 1.76,-1.1 2.86,-1.1 1.09,0 2.04,0.37 2.86,1.1 0.82,0.7300003 1.29,1.6400003 1.4,2.7200003 l 0.08,0.59 c 0,0.11 0.06,0.17 0.18,0.17 h 1.61 q 1.335,0 2.31,0.96 c 0.975,0.96 0.97,1.4 0.97,2.29 0,0.87 -0.3,1.62 -0.9,2.26 -0.6,0.64 -1.32,0.98 -2.18,1.03 -0.13,0 -0.2,0.06 -0.2,0.18 v 1.34 c 0,0.11 0.07,0.17 0.2,0.17 0.88,-0.02 1.69,-0.26 2.42,-0.72 0.73,-0.45 1.31,-1.06 1.74,-1.81 0.43,-0.75 0.64,-1.57 0.64,-2.45 0,-0.73 -0.14,-1.4 -0.43,-2.02 0.76,-0.96 1.14,-2.06 1.14,-3.29 0,-0.9500003 -0.24,-1.8300003 -0.71,-2.6400003 a 5.2,5.2 0 0 0 -1.92,-1.92 c -0.81,-0.47 -1.69,-0.71 -2.64,-0.71 q -1.08,0 -2.1,0.45 c -0.68,0.3 -1.26,0.72 -1.76,1.25 -0.81,-0.43 -1.71,-0.65 -2.72,-0.65 -1.42,0 -2.68,0.44 -3.77,1.32 -1.09,0.88 -1.8,2 -2.1,3.3700003 -1.11,0.26 -2.02,0.84 -2.74,1.74 -0.71,0.92 -1.07,1.95 -1.07,3.1 M 8.41,3.7700587 c 0,0.23 0.08,0.43 0.25,0.6 l 0.65,0.66 c 0.16,0.16 0.34,0.24 0.55,0.26 0.21,0.03 0.41,-0.04 0.61,-0.23 0.2,-0.18 0.3,-0.39 0.3,-0.64 0,-0.23 -0.08,-0.43 -0.25,-0.6 l -0.63,-0.66 a 0.81,0.81 0 0 0 -0.6,-0.24 q -0.375,0 -0.63,0.24 c -0.16,0.18 -0.25,0.38 -0.25,0.61 M 9.59,22.140059 c 0,0.24 0.08,0.44 0.24,0.59 0.16,0.16 0.36,0.24 0.58,0.24 0.24,0 0.44,-0.08 0.61,-0.24 0.17,-0.16 0.25,-0.36 0.25,-0.59 0,-0.24 -0.08,-0.44 -0.25,-0.61 -0.17,-0.17 -0.37,-0.26 -0.61,-0.26 -0.22,0 -0.41,0.09 -0.58,0.26 -0.17,0.17 -0.24,0.37 -0.24,0.61 m 0,-3.64 c 0,0.24 0.08,0.43 0.24,0.58 0.16,0.16 0.36,0.24 0.58,0.24 0.24,0 0.45,-0.08 0.61,-0.23 0.16,-0.15 0.25,-0.35 0.25,-0.59 0,-0.23 -0.08,-0.43 -0.25,-0.6 -0.17,-0.17 -0.37,-0.25 -0.61,-0.25 -0.23,0 -0.42,0.08 -0.58,0.25 -0.16,0.17 -0.24,0.37 -0.24,0.6 m 0,7.31 q 0,0.33 0.24,0.57 c 0.17,0.17 0.36,0.25 0.58,0.25 0.24,0 0.44,-0.08 0.61,-0.24 0.17,-0.16 0.25,-0.35 0.25,-0.59 0,-0.24 -0.08,-0.44 -0.25,-0.61 a 0.83,0.83 0 0 0 -0.61,-0.26 c -0.22,0 -0.41,0.09 -0.58,0.26 -0.16,0.18 -0.24,0.39 -0.24,0.62 m 3.23,-5.61 c 0,0.24 0.08,0.44 0.25,0.6 0.17,0.16 0.36,0.25 0.6,0.25 0.23,0 0.43,-0.08 0.59,-0.25 q 0.24,-0.255 0.24,-0.6 c 0,-0.22 -0.08,-0.42 -0.24,-0.58 a 0.8,0.8 0 0 0 -0.59,-0.24 q -0.345,0 -0.6,0.24 c -0.255,0.24 -0.25,0.35 -0.25,0.58 m 0,3.64 c 0,0.23 0.08,0.42 0.24,0.58 q 0.24,0.24 0.6,0.24 c 0.24,0 0.43,-0.08 0.59,-0.24 0.16,-0.16 0.23,-0.35 0.23,-0.59 0,-0.24 -0.08,-0.43 -0.23,-0.59 a 0.78,0.78 0 0 0 -0.59,-0.23 c -0.24,0 -0.44,0.08 -0.6,0.23 q -0.24,0.24 -0.24,0.6 m 1,-15.6400003 c 0.67,-0.64 1.48,-0.97 2.45,-0.97 0.98,0 1.82,0.34 2.51,1.03 0.69,0.68 1.04,1.52 1.04,2.5000003 0,0.66 -0.16,1.26 -0.47,1.81 -0.96,-0.96 -2.13,-1.44 -3.52,-1.44 H 15.52 C 15.23,9.9400587 14.66,8.9600587 13.82,8.2000587 m 1.6,-5.27 c 0,0.24 0.08,0.44 0.25,0.61 0.17,0.17 0.37,0.25 0.6,0.25 0.24,0 0.44,-0.08 0.6,-0.25 0.16,-0.17 0.24,-0.37 0.24,-0.61 V 0.87005871 c 0,-0.24 -0.08,-0.45 -0.24,-0.61 A 0.8,0.8 0 0 0 16.27,5.8712794e-5 c -0.24,0 -0.44,0.07999999721 -0.6,0.249999997206 -0.16,0.17 -0.25,0.37 -0.25,0.61 z m 5.58,2.29 c 0,0.24 0.08,0.44 0.23,0.6 0.14,0.16 0.32,0.24 0.55,0.26 0.23,0.02 0.44,-0.07 0.63,-0.26 l 1.44,-1.44 c 0.18,-0.16 0.26,-0.36 0.26,-0.6 0,-0.24 -0.09,-0.44 -0.26,-0.6 a 0.76,0.76 0 0 0 -0.6,-0.26 c -0.23,0 -0.42,0.09 -0.58,0.26 l -1.44,1.44 c -0.16,0.15 -0.23,0.35 -0.23,0.6 m 0.77,11.9100003 c 0,0.23 0.08,0.43 0.25,0.6 l 0.65,0.63 c 0.18,0.17 0.39,0.25 0.62,0.25 l 0.02,0.02 q 0.33,0 0.54,-0.27 a 0.76,0.76 0 0 0 0.26,-0.6 c 0,-0.23 -0.09,-0.43 -0.26,-0.61 l -0.62,-0.62 a 0.84,0.84 0 0 0 -0.61,-0.27 c -0.24,0 -0.44,0.09 -0.6,0.26 a 0.88,0.88 0 0 0 -0.25,0.61 m 1.47,-6.37 c 0,0.24 0.09,0.44 0.26,0.59 0.16,0.18 0.36,0.26 0.6,0.26 h 2.06 c 0.24,0 0.44,-0.08 0.61,-0.25 0.17,-0.17 0.25,-0.37 0.25,-0.6 0,-0.23 -0.08,-0.44 -0.25,-0.6 A 0.85,0.85 0 0 0 26.16,9.9200587 H 24.1 c -0.24,0 -0.45,0.08 -0.61,0.2400003 -0.17,0.16 -0.25,0.36 -0.25,0.6" id="path1" fill="currentColor"/>
</svg>
