<?xml version="1.0" encoding="UTF-8" standalone="no"?>
<svg xmlns="http://www.w3.org/2000/svg" xmlns:svg="http://www.w3.org/2000/svg" xml:space="preserve" viewBox="0 0 27.040001 27.250086" version="1.1" id="svg1" width="27.040001" height="27.250086" fill="currentColor">
  <defs id="defs1" fill="currentColor"/>
  <path d="m 0,16.060086 c 0,1.12 0.33,2.13 1,3.01 q 1.005,1.32 2.58,1.77 c 0.09,0.01 0.17,-0.01 0.24,-0.08 l 1.17,-1.41 c -0.89,0 -1.66,-0.32 -2.3,-0.97 -0.64,-0.65 -0.96,-1.42 -0.96,-2.33 0,-0.83 0.28,-1.55 0.85,-2.17 0.57,-0.61 1.27,-0.97 2.11,-1.07 l 0.49,-0.03 c 0.13,0 0.2,-0.06 0.2,-0.19 l 0.07,-0.54 c 0.11,-1.08 0.57,-1.99 1.38,-2.7200002 0.81,-0.73 1.77,-1.1 2.86,-1.1 1.1,0 2.06,0.37 2.88,1.1 0.82,0.7300002 1.28,1.6400002 1.39,2.7200002 l 0.07,0.59 c 0.04,0.11 0.12,0.17 0.22,0.17 h 1.64 c 0.88,0 1.64,0.32 2.28,0.95 0.64,0.63 0.96,1.4 0.96,2.28 0,0.84 -0.28,1.58 -0.85,2.21 -0.57,0.63 -1.25,0.98 -2.07,1.05 -0.49,0.06 -0.79,0.15 -0.9,0.28 l -2.19,2.82 a 0.84,0.84 0 0 0 -0.16,0.63 c 0.03,0.23 0.13,0.42 0.31,0.56 q 0.225,0.255 0.6,0.21 0.375,-0.045 0.6,-0.36 l 1.92,-2.46 c 0.82,-0.08 1.57,-0.35 2.25,-0.82 0.68,-0.46 1.21,-1.06 1.61,-1.79 0.39,-0.73 0.59,-1.51 0.59,-2.34 q 0,-1.08 -0.42,-2.01 c 0.79,-0.96 1.18,-2.07 1.18,-3.33 0,-0.7100002 -0.14,-1.3800002 -0.42,-2.0300002 a 5.3,5.3 0 0 0 -1.13,-1.68 c -0.47,-0.47 -1.03,-0.84 -1.68,-1.12 q -0.975,-0.42 -2.04,-0.42 c -1.5,0 -2.79,0.58 -3.88,1.74 -0.79,-0.44 -1.7,-0.66 -2.72,-0.66 q -2.115,0 -3.75,1.32 c -1.635,1.32 -1.78,2 -2.07,3.3700002 -1.13,0.26 -2.06,0.83 -2.79,1.73 -0.73,0.9 -1.12,1.97 -1.12,3.12 m 3.9,8.24 c 0.07,0.22 0.23,0.38 0.46,0.48 0.22,0.1 0.44,0.1 0.67,0.01 0.23,-0.09 0.38,-0.25 0.46,-0.47 a 0.71,0.71 0 0 0 0,-0.62 0.88,0.88 0 0 0 -0.45,-0.46 0.8,0.8 0 0 0 -0.66,-0.02 c -0.22,0.09 -0.37,0.24 -0.45,0.46 -0.09,0.25 -0.1,0.46 -0.03,0.62 m 1.81,-2.74 v 0.11 c 0.02,0.22 0.12,0.4 0.3,0.55 0.18,0.15 0.38,0.22 0.63,0.2 0.24,-0.02 0.43,-0.12 0.57,-0.29 l 2.18,-2.82 c 0.14,-0.18 0.21,-0.39 0.19,-0.63 -0.02,-0.24 -0.12,-0.43 -0.29,-0.57 a 0.84,0.84 0 0 0 -0.63,-0.19 c -0.24,0.02 -0.44,0.13 -0.6,0.31 l -2.15,2.8 c -0.14,0.16 -0.2,0.34 -0.2,0.53 m 0.51,4.86 q 0,0.09 0.06,0.3 c 0.09,0.22 0.24,0.37 0.46,0.46 0.11,0.04 0.23,0.07 0.36,0.07 0.09,0 0.2,-0.02 0.31,-0.05 0.21,-0.08 0.36,-0.23 0.44,-0.44 0.1,-0.22 0.11,-0.44 0.02,-0.67 a 0.71,0.71 0 0 0 -0.45,-0.46 c -0.22,-0.1 -0.44,-0.1 -0.67,-0.01 -0.23,0.09 -0.38,0.24 -0.45,0.45 -0.05,0.11 -0.08,0.23 -0.08,0.35 m 1.67,-2.37 v 0.1 c 0.02,0.23 0.13,0.42 0.33,0.58 0.15,0.16 0.35,0.23 0.6,0.2 a 0.84,0.84 0 0 0 0.6,-0.34 l 4.14,-5.23 c 0.14,-0.2 0.19,-0.41 0.17,-0.64 -0.02,-0.23 -0.13,-0.42 -0.31,-0.59 a 0.8,0.8 0 0 0 -0.62,-0.17 c -0.23,0.03 -0.42,0.13 -0.56,0.31 l -4.16,5.26 c -0.13,0.15 -0.19,0.33 -0.19,0.52 M 8.47,3.7600858 c 0,0.24 0.09,0.44 0.27,0.59 l 0.61,0.66 c 0.16,0.16 0.34,0.24 0.54,0.26 0.21,0.03 0.41,-0.04 0.61,-0.22 0.2,-0.18 0.3,-0.39 0.3,-0.64 0,-0.22 -0.08,-0.43 -0.24,-0.6 l -0.64,-0.65 a 0.75,0.75 0 0 0 -0.58,-0.24 c -0.24,0 -0.45,0.08 -0.62,0.24 -0.16,0.17 -0.25,0.37 -0.25,0.6 m 2.95,21.4300002 c 0,0.12 0.02,0.22 0.07,0.31 0.09,0.22 0.24,0.37 0.45,0.46 0.11,0.05 0.22,0.08 0.35,0.08 q 0.09,0 0.3,-0.06 c 0.22,-0.09 0.38,-0.24 0.46,-0.46 a 0.8,0.8 0 0 0 0.02,-0.66 0.72,0.72 0 0 0 -0.45,-0.45 0.82,0.82 0 0 0 -0.67,-0.02 0.76,0.76 0 0 0 -0.46,0.45 c -0.05,0.11 -0.07,0.23 -0.07,0.35 m 2.4,-17.0100002 c 0.71,-0.64 1.53,-0.97 2.48,-0.97 0.99,0 1.83,0.34 2.53,1.03 0.7,0.69 1.05,1.51 1.05,2.4900002 0,0.66 -0.17,1.28 -0.52,1.86 -0.97,-0.97 -2.13,-1.45 -3.48,-1.45 H 15.54 A 5.73,5.73 0 0 0 13.82,8.1800858 m 1.63,-5.26 c 0,0.23 0.08,0.43 0.25,0.59 q 0.255,0.24 0.6,0.24 c 0.24,0 0.45,-0.08 0.62,-0.24 0.17,-0.16 0.25,-0.36 0.25,-0.59 V 0.85008575 c 0,-0.23 -0.09,-0.43 -0.26,-0.6 A 0.84,0.84 0 0 0 16.3,8.5752378e-5 c -0.23,0 -0.43,0.07999999762 -0.6,0.249999997622 -0.17,0.17 -0.25,0.37 -0.25,0.6 z m 5.57,2.28 c 0,0.24 0.07,0.44 0.22,0.6 0.18,0.17 0.38,0.25 0.61,0.26 0.23,0 0.42,-0.08 0.57,-0.26 l 1.5,-1.45 c 0.16,-0.16 0.24,-0.37 0.24,-0.61 0,-0.24 -0.09,-0.44 -0.26,-0.61 a 0.83,0.83 0 0 0 -0.6,-0.26 c -0.22,0 -0.42,0.08 -0.6,0.25 l -1.45,1.47 a 0.9,0.9 0 0 0 -0.23,0.61 M 21.8,17.100086 q 0,0.36 0.24,0.6 l 0.66,0.63 q 0.24,0.24 0.54,0.27 h 0.06 c 0.18,0 0.38,-0.09 0.62,-0.27 0.16,-0.16 0.24,-0.36 0.24,-0.58 q 0,-0.36 -0.24,-0.63 l -0.66,-0.62 a 0.78,0.78 0 0 0 -0.59,-0.25 c -0.24,0 -0.45,0.08 -0.62,0.25 a 0.84,0.84 0 0 0 -0.25,0.6 m 1.5,-6.37 q 0,0.36 0.24,0.6 0.24,0.27 0.6,0.27 h 2.04 c 0.24,0 0.44,-0.09 0.61,-0.26 0.17,-0.17 0.25,-0.38 0.25,-0.61 0,-0.23 -0.08,-0.43 -0.25,-0.59 A 0.85,0.85 0 0 0 26.18,9.9000858 h -2.04 q -0.36,0 -0.6,0.2400002 c -0.16,0.16 -0.24,0.36 -0.24,0.59" id="path1" fill="currentColor"/>
</svg>
