<?xml version="1.0" encoding="UTF-8" standalone="no"?>
<svg xmlns="http://www.w3.org/2000/svg" xmlns:svg="http://www.w3.org/2000/svg" xml:space="preserve" viewBox="0 0 29.370001 24.080135" version="1.1" id="svg1" width="29.370001" height="24.080135" fill="currentColor">
  <defs id="defs1" fill="currentColor"/>
  <path d="m 0,20.150136 c 0,0.23 0.08,0.43 0.25,0.59 q 0.255,0.24 0.63,0.24 h 18.71 c 0.24,0 0.44,-0.08 0.61,-0.24 0.17,-0.16 0.25,-0.35 0.25,-0.59 0,-0.24 -0.08,-0.44 -0.25,-0.6 a 0.82,0.82 0 0 0 -0.61,-0.25 H 0.88 c -0.25,0 -0.46,0.08 -0.63,0.25 -0.17,0.17 -0.25,0.36 -0.25,0.6 m 2.62,-3.14 c 0,0.23 0.08,0.43 0.25,0.58 a 0.8,0.8 0 0 0 0.6,0.27 h 18.72 c 0.23,0 0.43,-0.08 0.59,-0.25 q 0.24,-0.255 0.24,-0.6 a 0.84,0.84 0 0 0 -0.23,-0.59 0.8,0.8 0 0 0 -0.59,-0.24 H 3.48 q -0.36,0 -0.6,0.24 c -0.17,0.17 -0.26,0.36 -0.26,0.59 m 0.13,-2.4 c 0,0.09 0.05,0.13 0.16,0.13 h 1.43 c 0.07,0 0.14,-0.05 0.21,-0.16 0.24,-0.52 0.59,-0.94 1.06,-1.27 0.47,-0.33 0.99,-0.52 1.56,-0.56 l 0.54,-0.07 c 0.11,0 0.17,-0.06 0.17,-0.18 l 0.07,-0.51 c 0.11,-1.08 0.56,-1.98 1.37,-2.7100004 0.81,-0.72 1.76,-1.09 2.86,-1.09 1.08,0 2.03,0.36 2.84,1.08 0.81,0.72 1.27,1.6100004 1.38,2.6800004 l 0.07,0.58 c 0,0.11 0.06,0.17 0.19,0.17 h 1.61 c 0.64,0 1.23,0.17 1.76,0.52 0.53,0.34 0.92,0.8 1.18,1.37 0.07,0.11 0.13,0.16 0.2,0.16 h 1.44 c 0.13,0 0.18,-0.07 0.13,-0.23 l -0.2,-0.55 c 0.76,-0.94 1.13,-2.04 1.13,-3.31 0,-0.7100004 -0.14,-1.3800004 -0.41,-2.0300004 -0.27,-0.65 -0.64,-1.2 -1.11,-1.67 -0.46,-0.47 -1.02,-0.84 -1.67,-1.12 -0.65,-0.28 -1.32,-0.4 -2.04,-0.4 -1.54,0 -2.82,0.56 -3.82,1.68 -0.85,-0.42 -1.74,-0.63 -2.68,-0.63 -1.4,0 -2.65,0.44 -3.74,1.32 -1.09,0.88 -1.79,2 -2.1,3.3700004 -1.78,0.47 -2.98,1.58 -3.58,3.35 -0.01,0.01 -0.01,0.04 -0.01,0.08 m 1.62,8.61 q 0,0.36 0.27,0.6 c 0.16,0.17 0.35,0.26 0.59,0.26 h 18.74 c 0.23,0 0.43,-0.08 0.6,-0.25 0.17,-0.17 0.25,-0.37 0.25,-0.61 0,-0.23 -0.08,-0.42 -0.25,-0.58 a 0.88,0.88 0 0 0 -0.6,-0.23 H 5.23 a 0.9,0.9 0 0 0 -0.61,0.23 c -0.17,0.16 -0.25,0.35 -0.25,0.58 M 10.94,3.7501356 c 0,0.24 0.08,0.43 0.23,0.59 l 0.65,0.64 c 0.17,0.18 0.36,0.27 0.58,0.27 0.22,0 0.42,-0.08 0.6,-0.25 0.17,-0.17 0.26,-0.37 0.26,-0.61 0,-0.24 -0.08,-0.45 -0.25,-0.63 l -0.64,-0.61 a 0.8,0.8 0 0 0 -0.6,-0.26 c -0.24,0 -0.44,0.08 -0.6,0.25 -0.15,0.16 -0.23,0.37 -0.23,0.61 m 5.32,4.38 c 0.67,-0.68 1.48,-1.01 2.43,-1.01 0.98,0 1.82,0.35 2.51,1.04 0.69,0.69 1.04,1.53 1.04,2.5000004 0,0.65 -0.16,1.25 -0.49,1.8 -0.95,-0.95 -2.11,-1.42 -3.47,-1.42 H 17.94 Q 17.505,9.2701356 16.26,8.1301356 m 1.6,-5.23 c 0,0.23 0.08,0.43 0.24,0.59 0.16,0.16 0.35,0.24 0.59,0.24 q 0.375,0 0.63,-0.24 c 0.17,-0.16 0.25,-0.35 0.25,-0.59 V 0.85013565 c 0,-0.23 -0.09,-0.43 -0.26,-0.6 A 0.88,0.88 0 0 0 18.68,1.3564833e-4 c -0.23,0 -0.43,0.0800000017 -0.59,0.25000000167 q -0.24,0.255 -0.24,0.6 V 2.9001356 Z m 5.49,2.27 c 0,0.22 0.08,0.43 0.24,0.6 q 0.555,0.54 1.23,0 l 1.43,-1.43 c 0.16,-0.18 0.24,-0.39 0.24,-0.64 0,-0.23 -0.08,-0.43 -0.24,-0.59 a 0.8,0.8 0 0 0 -0.59,-0.24 q -0.36,0 -0.6,0.24 l -1.46,1.47 c -0.17,0.18 -0.25,0.38 -0.25,0.59 m 0.81,11.8000004 c 0,0.24 0.09,0.44 0.26,0.6 l 0.64,0.65 c 0.16,0.16 0.36,0.24 0.58,0.24 0.21,0 0.41,-0.08 0.61,-0.24 0.16,-0.17 0.24,-0.39 0.24,-0.64 0,-0.22 -0.08,-0.41 -0.24,-0.56 l -0.65,-0.66 a 0.88,0.88 0 0 0 -0.6,-0.24 c -0.24,0 -0.44,0.08 -0.6,0.25 q -0.24,0.24 -0.24,0.6 m 1.48,-6.31 c 0,0.24 0.09,0.44 0.26,0.6 0.15,0.17 0.35,0.25 0.59,0.25 h 2.05 c 0.23,0 0.43,-0.08 0.59,-0.25 q 0.24,-0.255 0.24,-0.6 0,-0.36 -0.24,-0.6 A 0.8,0.8 0 0 0 28.54,9.8201356 h -2.05 c -0.24,0 -0.44,0.08 -0.6,0.2500004 -0.17,0.16 -0.25,0.36 -0.25,0.59" id="path1" fill="currentColor"/>
</svg>
