<?xml version="1.0" encoding="UTF-8" standalone="no"?>
<svg xmlns="http://www.w3.org/2000/svg" xmlns:svg="http://www.w3.org/2000/svg" xml:space="preserve" viewBox="0 0 10.13 6.4608622" version="1.1" id="svg1" width="10.13" height="6.4608622" fill="currentColor">
  <defs id="defs1" fill="currentColor"/>
  <path d="m 0,3.2608621 c 0,0.22 0.08,0.42 0.23,0.57 0.15,0.15 0.34,0.22 0.56,0.2 h 6.58 l -1.03,1.08 c -0.16,0.16 -0.24,0.35 -0.24,0.55 0,0.22 0.08,0.42 0.24,0.57 0.16,0.16 0.35,0.23 0.58,0.23 0.21,-0.01 0.39,-0.1 0.53,-0.27 l 2.45,-2.41 c 0.16,-0.16 0.23,-0.35 0.23,-0.58 a 0.83,0.83 0 0 0 -0.24,-0.58 L 7.42,0.23086214 A 0.67,0.67 0 0 0 6.88,8.6214147e-4 c -0.23,0 -0.42,0.0699999985 -0.57,0.21999999853 -0.16,0.15 -0.23,0.34 -0.23,0.56 0,0.22999996 0.08,0.41999996 0.23,0.56999996 l 1.06,1.08 H 0.78 a 0.77,0.77 0 0 0 -0.56,0.25 c -0.15,0.17 -0.22,0.36 -0.22,0.58" id="path1" fill="currentColor"/>
</svg>
