<?xml version="1.0" encoding="UTF-8" standalone="no"?>
<svg xmlns="http://www.w3.org/2000/svg" xmlns:svg="http://www.w3.org/2000/svg" xml:space="preserve" viewBox="0 0 27.040001 26.720449" version="1.1" id="svg1" width="27.040001" height="26.720449" fill="currentColor">
  <defs id="defs1" fill="currentColor"/>
  <path d="m 0,16.070449 c 0,1.34 0.47,2.49 1.4,3.45 0.93,0.96 2.07,1.47 3.4,1.53 0.12,0 0.18,-0.06 0.18,-0.17 v -1.34 q 0,-0.18 -0.18,-0.18 c -0.86,-0.04 -1.59,-0.39 -2.19,-1.03 -0.6,-0.64 -0.9,-1.4 -0.9,-2.26 0,-0.83 0.28,-1.55 0.85,-2.17 0.57,-0.62 1.27,-0.97 2.1,-1.07 l 0.53,-0.04 c 0.13,0 0.2,-0.06 0.2,-0.18 l 0.07,-0.55 c 0.11,-1.08 0.56,-1.99 1.37,-2.7099999 0.81,-0.73 1.76,-1.09 2.86,-1.09 1.09,0 2.04,0.36 2.86,1.09 0.82,0.7299999 1.29,1.6299999 1.4,2.7099999 l 0.07,0.58 c 0,0.12 0.06,0.19 0.17,0.19 h 1.62 c 0.89,0 1.67,0.32 2.32,0.96 0.65,0.64 0.98,1.4 0.98,2.27 0,0.87 -0.3,1.62 -0.91,2.26 -0.61,0.64 -1.34,0.98 -2.19,1.03 -0.13,0 -0.2,0.06 -0.2,0.18 v 1.34 c 0,0.11 0.07,0.17 0.2,0.17 1.34,-0.04 2.47,-0.55 3.39,-1.51 0.93,-0.97 1.39,-2.12 1.39,-3.46 0,-0.74 -0.14,-1.41 -0.41,-2.01 0.79,-0.96 1.18,-2.07 1.18,-3.33 0,-0.9399999 -0.24,-1.8199999 -0.71,-2.6299999 a 5.4,5.4 0 0 0 -1.93,-1.93 c -0.81,-0.47 -1.69,-0.71 -2.63,-0.71 -1.56,0 -2.86,0.58 -3.9,1.75 -0.8,-0.44 -1.7,-0.66 -2.71,-0.66 -1.41,0 -2.67,0.44 -3.76,1.31 -1.09,0.87 -1.8,2 -2.11,3.3699999 -1.11,0.26 -2.02,0.84 -2.74,1.74 -0.71,0.92 -1.07,1.95 -1.07,3.1 m 5.34,7.06 c 0.1,0.22 0.25,0.37 0.46,0.45 0.2,0.1 0.41,0.11 0.63,0.02 q 0.33,-0.12 0.45,-0.45 c 0.1,-0.22 0.11,-0.43 0.02,-0.65 a 0.73,0.73 0 0 0 -0.45,-0.44 0.68,0.68 0 0 0 -0.62,-0.03 c -0.22,0.09 -0.37,0.24 -0.47,0.47 -0.1,0.18 -0.11,0.39 -0.02,0.63 m 0.64,-2.84 c 0,0.14 0.03,0.27 0.09,0.38 0.19,0.31 0.49,0.46 0.89,0.46 0.32,0 0.55,-0.22 0.69,-0.65 l 1.04,-3.22 c 0.08,-0.24 0.06,-0.47 -0.07,-0.67 -0.13,-0.2 -0.31,-0.33 -0.55,-0.37 a 0.9,0.9 0 0 0 -0.62,0.07 0.85,0.85 0 0 0 -0.41,0.5 l -1.03,3.22 c -0.02,0.1 -0.03,0.2 -0.03,0.28 m 1.87,5.62 c 0,0.13 0.02,0.23 0.05,0.29 q 0.135,0.33 0.45,0.45 c 0.09,0.05 0.21,0.07 0.35,0.07 q 0.09,0 0.3,-0.06 c 0.22,-0.08 0.38,-0.23 0.47,-0.45 0.09,-0.22 0.1,-0.44 0,-0.66 q -0.15,-0.33 -0.45,-0.45 c -0.3,-0.12 -0.41,-0.08 -0.62,0 -0.19,0.07 -0.33,0.19 -0.42,0.35 a 0.95,0.95 0 0 0 -0.13,0.46 M 8.46,3.7604491 q 0,0.375 0.24,0.6 l 0.65,0.65 q 0.24,0.24 0.54,0.27 c 0.21,0.03 0.41,-0.05 0.61,-0.23 0.2,-0.18 0.3,-0.4 0.3,-0.64 q 0,-0.36 -0.24,-0.6 l -0.64,-0.64 a 0.9,0.9 0 0 0 -0.62,-0.25 c -0.24,0 -0.45,0.08 -0.61,0.24 -0.15,0.17 -0.23,0.37 -0.23,0.6 M 8.58,23.220449 c 0,0.16 0.05,0.32 0.16,0.48 0.11,0.16 0.27,0.27 0.48,0.33 0.11,0.02 0.19,0.04 0.24,0.04 0.15,0 0.28,-0.03 0.38,-0.08 0.2,-0.08 0.34,-0.27 0.43,-0.57 l 1.8,-6.14 a 0.8,0.8 0 0 0 -0.06,-0.65 0.76,0.76 0 0 0 -0.5,-0.39 0.83,0.83 0 0 0 -0.66,0.06 c -0.2,0.11 -0.34,0.27 -0.41,0.51 l -1.84,6.19 c -0.01,0.11 -0.02,0.19 -0.02,0.22 m 3.45,-0.39 c 0,0.13 0.02,0.23 0.07,0.31 0.09,0.21 0.24,0.35 0.45,0.44 0.11,0.05 0.22,0.08 0.35,0.08 q 0.09,0 0.3,-0.06 c 0.23,-0.09 0.38,-0.23 0.46,-0.44 q 0.12,-0.33 0,-0.63 a 0.84,0.84 0 0 0 -0.42,-0.45 0.77,0.77 0 0 0 -0.66,-0.03 c -0.21,0.09 -0.37,0.24 -0.48,0.47 a 0.57,0.57 0 0 0 -0.07,0.31 m 0.72,-2.56 q 0,0.24 0.15,0.45 c 0.1,0.15 0.26,0.25 0.46,0.31 0.09,0.02 0.17,0.03 0.25,0.03 0.39,0 0.65,-0.2 0.79,-0.61 l 1.03,-3.18 c 0.08,-0.23 0.05,-0.45 -0.07,-0.65 -0.12,-0.2 -0.29,-0.33 -0.52,-0.39 -0.24,-0.07 -0.45,-0.05 -0.64,0.06 -0.19,0.11 -0.32,0.27 -0.4,0.51 l -1.02,3.2 c -0.01,0.13 -0.03,0.22 -0.03,0.27 M 13.82,8.1904491 c 0.67,-0.64 1.5,-0.97 2.48,-0.97 0.98,0 1.81,0.34 2.5,1.03 0.69,0.68 1.04,1.51 1.04,2.4899999 0,0.62 -0.17,1.24 -0.52,1.85 -0.96,-0.96 -2.12,-1.44 -3.51,-1.44 H 15.52 C 15.22,9.9904491 14.66,9.0004491 13.82,8.1904491 m 1.62,-5.27 c 0,0.24 0.08,0.44 0.25,0.61 0.17,0.17 0.37,0.25 0.61,0.25 0.23,0 0.43,-0.08 0.59,-0.25 0.16,-0.17 0.24,-0.37 0.24,-0.61 V 0.86044907 c 0,-0.24 -0.08,-0.44 -0.24,-0.61 A 0.76,0.76 0 0 0 16.3,4.4906973e-4 c -0.24,0 -0.44,0.0800000003 -0.61,0.25000000027 -0.17,0.17 -0.25,0.37 -0.25,0.61 z m 5.55,2.29 c 0,0.24 0.08,0.44 0.25,0.6 0.15,0.17 0.34,0.26 0.58,0.26 0.23,0 0.44,-0.09 0.6,-0.26 l 1.44,-1.44 q 0.27,-0.225 0.27,-0.6 c 0,-0.24 -0.09,-0.44 -0.26,-0.61 a 0.84,0.84 0 0 0 -0.61,-0.25 q -0.33,0 -0.57,0.27 l -1.45,1.43 c -0.16,0.15 -0.25,0.36 -0.25,0.6 M 21.8,17.110449 q 0,0.345 0.24,0.6 l 0.66,0.63 q 0.21,0.27 0.6,0.27 0.36,0 0.57,-0.27 a 0.77,0.77 0 0 0 0.27,-0.6 c 0,-0.24 -0.09,-0.44 -0.27,-0.61 l -0.65,-0.62 c -0.16,-0.18 -0.35,-0.26 -0.58,-0.26 -0.23,0 -0.43,0.08 -0.6,0.25 a 0.87,0.87 0 0 0 -0.24,0.61 m 1.46,-6.37 c 0,0.24 0.09,0.44 0.26,0.6 0.18,0.18 0.38,0.26 0.62,0.26 h 2.03 c 0.24,0 0.44,-0.08 0.61,-0.25 0.17,-0.17 0.26,-0.37 0.26,-0.61 0,-0.23 -0.08,-0.43 -0.25,-0.59 A 0.88,0.88 0 0 0 26.17,9.9104491 h -2.03 q -0.375,0 -0.63,0.2399999 c -0.16,0.16 -0.25,0.36 -0.25,0.59" id="path1" fill="currentColor"/>
</svg>
