<?xml version="1.0" encoding="UTF-8" standalone="no"?>
<svg xmlns="http://www.w3.org/2000/svg" xmlns:svg="http://www.w3.org/2000/svg" xml:space="preserve" viewBox="0 0 25.389999 21.25" version="1.1" id="svg1" width="25.389999" height="21.25" fill="currentColor">
  <defs id="defs1" fill="currentColor"/>
  <path d="m 0,13.92 c 0,0.24 0.09,0.44 0.26,0.6 0.16,0.17 0.36,0.25 0.6,0.25 h 9.42 c 0.23,0 0.43,-0.08 0.59,-0.25 q 0.24,-0.255 0.24,-0.6 A 0.84,0.84 0 0 0 10.88,13.33 0.8,0.8 0 0 0 10.29,13.09 H 0.86 c -0.24,0 -0.44,0.08 -0.61,0.24 C 0.08,13.49 0,13.69 0,13.92 m 0.33,6.15 c 0,0.24 0.08,0.44 0.25,0.6 0.16,0.17 0.36,0.25 0.6,0.25 h 9.43 c 0.24,0 0.44,-0.08 0.61,-0.25 0.17,-0.17 0.25,-0.37 0.25,-0.6 0,-0.23 -0.08,-0.43 -0.25,-0.59 -0.17,-0.16 -0.37,-0.24 -0.61,-0.24 H 1.19 q -0.36,0 -0.6,0.24 c -0.17,0.16 -0.26,0.36 -0.26,0.59 m 1.37,-3.1 c 0,0.24 0.08,0.43 0.25,0.59 0.17,0.16 0.38,0.23 0.63,0.23 h 9.4 c 0.24,0 0.43,-0.08 0.59,-0.23 0.16,-0.16 0.23,-0.35 0.23,-0.59 0,-0.25 -0.08,-0.45 -0.23,-0.61 a 0.8,0.8 0 0 0 -0.59,-0.24 h -9.4 q -0.375,0 -0.63,0.24 C 1.79,16.52 1.7,16.72 1.7,16.97 M 4.13,10.62 C 4.13,10.38 4.22,10.18 4.39,10 4.56,9.84 4.77,9.76 4.99,9.76 h 2.03 c 0.23,0 0.42,0.08 0.58,0.25 0.16,0.17 0.23,0.37 0.23,0.61 0,0.24 -0.08,0.44 -0.23,0.6 -0.16,0.17 -0.35,0.25 -0.58,0.25 H 4.99 c -0.24,0 -0.44,-0.08 -0.61,-0.25 A 0.82,0.82 0 0 1 4.13,10.62 M 6.99,3.7 C 6.99,3.48 7.07,3.27 7.23,3.09 Q 7.515,2.85 7.86,2.85 c 0.22,0 0.42,0.08 0.59,0.24 l 1.42,1.47 c 0.16,0.15 0.24,0.35 0.24,0.59 q 0,0.36 -0.24,0.6 -0.24,0.24 -0.6,0.24 C 9.03,5.99 8.83,5.91 8.68,5.75 L 7.23,4.32 A 0.9,0.9 0 0 1 6.99,3.7 m 2.55,6.8 V 10.43 C 9.56,9.52 9.81,8.68 10.28,7.9 10.75,7.13 11.39,6.52 12.18,6.07 12.97,5.62 13.83,5.4 14.75,5.4 c 0.7,0 1.37,0.14 2.02,0.42 0.64,0.28 1.2,0.65 1.66,1.12 0.47,0.47 0.84,1.02 1.11,1.66 0.27,0.64 0.41,1.32 0.41,2.02 0,0.94 -0.23,1.8 -0.69,2.6 -0.46,0.8 -1.09,1.43 -1.88,1.89 a 5.1,5.1 0 0 1 -2.6,0.71 h -0.2 c -0.07,0 -0.13,-0.02 -0.18,-0.07 a 0.25,0.25 0 0 1 -0.08,-0.18 v -1.22 c 0,-0.13 0.07,-0.2 0.22,-0.2 h 0.24 c 0.96,-0.01 1.79,-0.35 2.47,-1.05 0.68,-0.69 1.03,-1.52 1.03,-2.49 0,-0.96 -0.35,-1.78 -1.04,-2.47 -0.69,-0.68 -1.52,-1.02 -2.5,-1.02 -0.94,0 -1.76,0.32 -2.44,0.98 q -1.02,0.975 -1.08,2.37 c 0,0.06 -0.02,0.11 -0.07,0.17 -0.05,0.06 -0.13,0.09 -0.25,0.09 H 9.76 C 9.61,10.74 9.54,10.66 9.54,10.5 m 4.37,9.88 v -1.99 q 0,-0.36 0.24,-0.6 c 0.24,-0.24 0.36,-0.24 0.6,-0.24 0.24,0 0.45,0.08 0.61,0.24 0.16,0.16 0.24,0.36 0.24,0.6 v 1.99 c 0,0.24 -0.08,0.45 -0.25,0.62 -0.17,0.17 -0.37,0.25 -0.6,0.25 -0.24,0 -0.44,-0.08 -0.6,-0.25 -0.16,-0.17 -0.24,-0.37 -0.24,-0.62 m 0,-17.48 V 0.85 c 0,-0.24 0.08,-0.44 0.25,-0.6 C 14.33,0.09 14.52,0 14.76,0 c 0.23,0 0.43,0.08 0.6,0.25 0.17,0.17 0.25,0.37 0.25,0.6 v 2.04 c 0,0.23 -0.08,0.42 -0.25,0.58 -0.17,0.15 -0.37,0.23 -0.6,0.23 -0.24,0 -0.44,-0.08 -0.6,-0.23 A 0.72,0.72 0 0 1 13.91,2.9 m 5.51,13.18 c 0,-0.23 0.07,-0.42 0.23,-0.56 a 0.74,0.74 0 0 1 0.57,-0.23 c 0.24,0 0.44,0.08 0.6,0.23 l 1.45,1.42 c 0.16,0.17 0.24,0.38 0.24,0.61 0,0.23 -0.08,0.43 -0.24,0.59 q -0.6,0.465 -1.2,0 l -1.42,-1.43 a 0.9,0.9 0 0 1 -0.23,-0.63 m 0,-10.93 c 0,-0.25 0.07,-0.45 0.23,-0.59 l 1.42,-1.47 c 0.18,-0.16 0.37,-0.24 0.59,-0.24 0.24,0 0.44,0.08 0.6,0.25 0.17,0.17 0.25,0.37 0.25,0.6 0,0.25 -0.08,0.46 -0.24,0.62 l -1.45,1.43 q -0.27,0.24 -0.6,0.24 C 19.99,5.99 19.81,5.91 19.65,5.75 19.49,5.59 19.42,5.39 19.42,5.15 m 2.26,5.47 c 0,-0.23 0.08,-0.44 0.25,-0.62 0.16,-0.16 0.35,-0.24 0.56,-0.24 h 2.03 c 0.23,0 0.43,0.09 0.61,0.26 0.17,0.17 0.26,0.37 0.26,0.6 0,0.23 -0.09,0.43 -0.26,0.6 -0.18,0.17 -0.38,0.25 -0.61,0.25 h -2.03 c -0.23,0 -0.42,-0.08 -0.58,-0.25 a 0.85,0.85 0 0 1 -0.23,-0.6" id="path1" fill="currentColor"/>
</svg>
