<?xml version="1.0" encoding="UTF-8" standalone="no"?>
<svg xmlns="http://www.w3.org/2000/svg" xmlns:svg="http://www.w3.org/2000/svg" xml:space="preserve" viewBox="0 0 9.8900003 9.9099998" version="1.1" id="svg1" width="9.8900003" height="9.9099998" fill="currentColor">
  <defs id="defs1" fill="currentColor"/>
  <path d="M 0,5.52 V 1.05 Q 0,0.6 0.3,0.3 C 0.6,0 0.75,0 1.04,0 h 4.48 c 0.29,0 0.54,0.1 0.74,0.3 0.2,0.2 0.3,0.45 0.3,0.75 0,0.29 -0.1,0.53 -0.3,0.73 -0.2,0.2 -0.45,0.29 -0.74,0.29 H 3.57 L 9.63,8.13 C 9.81,8.34 9.89,8.59 9.89,8.91 9.89,9.2 9.8,9.44 9.63,9.63 9.43,9.82 9.17,9.91 8.84,9.91 8.54,9.91 8.29,9.82 8.11,9.63 L 2.09,3.58 v 1.95 q 0,0.45 -0.3,0.75 -0.3,0.3 -0.75,0.3 C 0.75,6.58 0.5,6.48 0.3,6.27 0.1,6.06 0,5.81 0,5.52" id="path1" fill="currentColor"/>
</svg>
