<?xml version="1.0" encoding="UTF-8" standalone="no"?>
<svg xmlns="http://www.w3.org/2000/svg" xmlns:svg="http://www.w3.org/2000/svg" xml:space="preserve" viewBox="0 0 9.9200182 9.9200001" version="1.1" id="svg1" width="9.9200182" height="9.9200001" fill="currentColor">
  <defs id="defs1" fill="currentColor"/>
  <path d="m 1.8524283e-5,1.01 c 0,-0.3 0.08999999572,-0.55 0.259999995717,-0.73 0.2,-0.19 0.46,-0.28 0.78999998,-0.28 0.3,0 0.55,0.09 0.73,0.28 l 6.05,6.05 V 4.38 q 0,-0.45 0.3,-0.75 c 0.3,-0.3 0.45,-0.3 0.75,-0.3 0.29,0 0.54,0.1 0.74,0.31 0.2,0.21 0.3,0.45 0.3,0.75 v 4.48 q 0,0.45 -0.3,0.75 c -0.3,0.3 -0.45,0.3 -0.74,0.3 h -4.48 c -0.29,0 -0.54,-0.1 -0.74,-0.3 -0.2,-0.2 -0.3,-0.45 -0.3,-0.75 0,-0.29 0.1,-0.54 0.3,-0.73 0.2,-0.19 0.45,-0.29 0.74,-0.29 h 1.93 L 0.25001852,1.79 A 1.32,1.32 0 0 1 1.8524283e-5,1.01" id="path1" fill="currentColor"/>
</svg>
