<?xml version="1.0" encoding="UTF-8" standalone="no"?>
<svg xmlns="http://www.w3.org/2000/svg" xmlns:svg="http://www.w3.org/2000/svg" xml:space="preserve" viewBox="0 0 27.020006 27.129999" version="1.1" id="svg1" width="27.020006" height="27.129999" fill="currentColor">
  <defs id="defs1" fill="currentColor"/>
  <path d="M 0,16.06 C 0,14.89 0.36,13.87 1.08,12.97 1.8,12.07 2.72,11.49 3.82,11.23 4.13,9.86 4.83,8.74 5.92,7.85 7.02,6.97 8.27,6.53 9.69,6.53 c 0.99,0 1.9,0.22 2.72,0.66 0.5,-0.53 1.09,-0.95 1.76,-1.25 0.67,-0.3 1.37,-0.45 2.09,-0.45 0.95,0 1.83,0.24 2.64,0.71 q 1.215,0.705 1.92,1.92 c 0.47,0.81 0.71,1.69 0.71,2.64 0,1.23 -0.38,2.33 -1.14,3.29 0.29,0.61 0.43,1.28 0.43,2.02 0,0.88 -0.21,1.7 -0.64,2.45 -0.42,0.75 -1,1.36 -1.74,1.81 -0.73,0.46 -1.54,0.7 -2.42,0.72 -0.13,0 -0.2,-0.06 -0.2,-0.18 v -1.34 c 0,-0.12 0.07,-0.18 0.2,-0.18 0.86,-0.04 1.58,-0.39 2.18,-1.03 0.6,-0.64 0.9,-1.4 0.9,-2.26 0,-0.89 -0.32,-1.65 -0.97,-2.29 -0.65,-0.64 -1.41,-0.96 -2.31,-0.96 h -1.61 c -0.12,0 -0.18,-0.06 -0.18,-0.17 L 13.95,12.05 C 13.84,10.97 13.37,10.06 12.55,9.33 11.73,8.6 10.77,8.23 9.69,8.23 8.59,8.23 7.64,8.6 6.83,9.33 6.02,10.06 5.56,10.97 5.46,12.05 l -0.07,0.59 c -0.03,0.09 -0.11,0.13 -0.22,0.13 l -0.51,0.04 c -0.84,0.1 -1.55,0.45 -2.11,1.06 -0.56,0.61 -0.84,1.34 -0.84,2.18 v 0.05 h 0.03 c 0.01,0.98 0.38,1.78 1.11,2.43 0.22,0.19 0.47,0.36 0.74,0.49 v 0.02 c 0.41,0.19 0.82,0.29 1.21,0.31 0.11,0 0.17,0.06 0.17,0.17 v 1.34 c 0,0.11 -0.06,0.17 -0.17,0.17 C 4.28,21 3.79,20.9 3.32,20.73 v 0.02 C 2.49,20.46 1.78,19.98 1.21,19.32 0.64,18.66 0.26,17.88 0.1,17.01 V 16.97 C 0.09,16.96 0.09,16.95 0.09,16.94 0.02,16.68 0,16.39 0,16.06 m 5.5,7.17 c 0,-0.03 0.01,-0.07 0.02,-0.13 0.01,-0.05 0.02,-0.09 0.02,-0.12 l 0.09,-0.59 c 0.07,-0.24 0.2,-0.41 0.41,-0.53 0.2,-0.12 0.43,-0.14 0.68,-0.08 0.23,0.07 0.39,0.2 0.51,0.41 0.11,0.2 0.13,0.41 0.07,0.62 l -0.14,0.6 c -0.1,0.44 -0.35,0.66 -0.76,0.66 -0.03,0 -0.08,0 -0.15,-0.01 C 6.18,24.05 6.14,24.05 6.12,24.05 A 0.76,0.76 0 0 1 5.66,23.72 0.82,0.82 0 0 1 5.5,23.23 m 0.74,-2.94 c 0,-0.24 0.08,-0.43 0.23,-0.59 0.16,-0.16 0.35,-0.23 0.59,-0.23 0.24,0 0.43,0.08 0.59,0.23 0.16,0.16 0.23,0.35 0.23,0.59 0,0.23 -0.08,0.42 -0.23,0.58 C 7.5,21.03 7.3,21.1 7.06,21.1 q -0.345,0 -0.57,-0.24 A 0.75,0.75 0 0 1 6.24,20.29 m 1.64,5.98 c 0,-0.04 0.01,-0.11 0.04,-0.23 l 0.13,-0.58 c 0.07,-0.23 0.21,-0.4 0.41,-0.51 0.21,-0.12 0.42,-0.14 0.63,-0.07 0.23,0.04 0.41,0.17 0.53,0.37 0.12,0.2 0.15,0.43 0.08,0.68 l -0.13,0.59 c -0.1,0.41 -0.37,0.61 -0.8,0.61 -0.05,0 -0.13,-0.01 -0.24,-0.04 A 0.83,0.83 0 0 1 8.04,26.76 0.84,0.84 0 0 1 7.88,26.27 M 8.41,3.76 c 0,-0.24 0.08,-0.44 0.25,-0.6 q 0.255,-0.24 0.63,-0.24 0.36,0 0.6,0.24 l 0.63,0.66 c 0.17,0.17 0.25,0.37 0.25,0.6 0,0.24 -0.1,0.46 -0.3,0.64 -0.2,0.18 -0.4,0.26 -0.61,0.23 A 0.88,0.88 0 0 1 9.31,5.02 L 8.66,4.36 A 0.86,0.86 0 0 1 8.41,3.76 m 0.26,19.61 a 0.784,0.784 0 0 1 0.82,-0.81 c 0.24,0 0.43,0.08 0.59,0.23 0.16,0.16 0.23,0.35 0.23,0.58 0,0.24 -0.08,0.43 -0.23,0.59 -0.16,0.16 -0.35,0.23 -0.59,0.23 -0.22,0 -0.41,-0.08 -0.58,-0.25 A 0.78,0.78 0 0 1 8.67,23.37 M 9.29,21.1 c 0,-0.09 0.01,-0.18 0.03,-0.26 l 0.23,-0.9 c 0.07,-0.23 0.21,-0.41 0.41,-0.53 0.21,-0.12 0.42,-0.15 0.64,-0.08 0.24,0.07 0.41,0.2 0.53,0.4 0.12,0.2 0.14,0.4 0.07,0.62 l -0.26,0.9 c -0.08,0.27 -0.22,0.46 -0.41,0.57 -0.19,0.11 -0.41,0.12 -0.64,0.06 A 0.66,0.66 0 0 1 9.44,21.58 C 9.32,21.4 9.27,21.25 9.29,21.1 m 2.76,2.14 c 0,-0.03 0,-0.07 0.01,-0.13 0.01,-0.06 0.01,-0.09 0.01,-0.11 l 0.09,-0.59 c 0.07,-0.24 0.2,-0.41 0.41,-0.53 0.2,-0.12 0.43,-0.14 0.68,-0.08 0.23,0.07 0.4,0.21 0.51,0.41 0.12,0.21 0.14,0.42 0.07,0.63 l -0.14,0.6 c -0.1,0.43 -0.35,0.65 -0.76,0.65 -0.03,0 -0.08,0 -0.15,-0.01 -0.07,-0.01 -0.11,-0.01 -0.13,-0.01 a 0.77,0.77 0 0 1 -0.45,-0.33 0.97,0.97 0 0 1 -0.15,-0.5 m 0.74,-2.94 c 0,-0.24 0.08,-0.43 0.23,-0.59 0.16,-0.16 0.35,-0.23 0.59,-0.23 0.24,0 0.43,0.08 0.59,0.23 0.16,0.16 0.23,0.35 0.23,0.59 a 0.784,0.784 0 0 1 -0.82,0.81 c -0.23,0 -0.43,-0.08 -0.58,-0.25 A 0.74,0.74 0 0 1 12.79,20.3 M 13.82,8.19 c 0.84,0.76 1.4,1.74 1.7,2.93 h 0.31 c 1.38,0 2.55,0.48 3.52,1.45 0.31,-0.55 0.47,-1.16 0.47,-1.82 0,-0.98 -0.35,-1.81 -1.04,-2.5 A 3.46,3.46 0 0 0 16.27,7.22 c -0.96,0 -1.78,0.32 -2.45,0.97 m 1.6,-5.27 V 0.87 C 15.42,0.63 15.5,0.43 15.67,0.26 15.84,0.09 16.04,0 16.27,0 c 0.24,0 0.44,0.08 0.6,0.25 0.16,0.17 0.24,0.38 0.24,0.62 v 2.05 c 0,0.24 -0.08,0.45 -0.24,0.62 -0.16,0.17 -0.36,0.25 -0.6,0.25 -0.23,0 -0.43,-0.09 -0.6,-0.26 A 0.82,0.82 0 0 1 15.42,2.92 M 21,5.21 c 0,-0.24 0.08,-0.44 0.23,-0.6 l 1.44,-1.45 a 0.73,0.73 0 0 1 0.58,-0.25 c 0.24,0 0.44,0.08 0.6,0.25 0.18,0.16 0.26,0.36 0.26,0.6 0,0.24 -0.09,0.44 -0.26,0.6 L 22.41,5.82 A 0.81,0.81 0 0 1 21.78,6.08 0.78,0.78 0 0 1 21.23,5.82 C 21.07,5.66 21,5.46 21,5.21 m 0.77,11.91 c 0,-0.24 0.08,-0.44 0.25,-0.61 0.17,-0.17 0.37,-0.25 0.6,-0.25 0.23,0 0.43,0.09 0.61,0.26 l 0.62,0.63 c 0.18,0.17 0.26,0.38 0.26,0.61 0,0.24 -0.09,0.44 -0.26,0.6 -0.14,0.17 -0.32,0.26 -0.54,0.26 L 23.29,18.6 c -0.24,0 -0.44,-0.08 -0.62,-0.24 l -0.65,-0.64 a 0.86,0.86 0 0 1 -0.25,-0.6 m 1.47,-6.37 c 0,-0.24 0.08,-0.44 0.25,-0.6 0.17,-0.16 0.37,-0.24 0.61,-0.24 h 2.06 a 0.837,0.837 0 0 1 0.86,0.84 c 0,0.24 -0.08,0.44 -0.25,0.61 -0.17,0.17 -0.37,0.25 -0.61,0.25 H 24.1 a 0.77,0.77 0 0 1 -0.6,-0.27 0.73,0.73 0 0 1 -0.26,-0.59" id="path1" fill="currentColor"/>
</svg>
