<?xml version="1.0" encoding="UTF-8" standalone="no"?>
<svg xmlns="http://www.w3.org/2000/svg" xmlns:svg="http://www.w3.org/2000/svg" xml:space="preserve" viewBox="0 0 29.1 24.100336" version="1.1" id="svg1" width="29.1" height="24.100336" fill="currentColor">
  <defs id="defs1" fill="currentColor"/>
  <path d="m 0,20.070337 c 0,0.24 0.08,0.45 0.24,0.61 0.44,0.18 0.73,0.27 0.88,0.27 H 9 c 0.24,0 0.44,-0.09 0.6,-0.26 0.17,-0.17 0.25,-0.38 0.25,-0.61 0,-0.23 -0.08,-0.43 -0.25,-0.59 a 0.85,0.85 0 0 0 -0.6,-0.24 H 1.12 c -0.26,0 -0.52,0.08 -0.76,0.24 -0.24,0.16 -0.36,0.36 -0.36,0.58 m 1.39,-3 c 0,0.24 0.08,0.43 0.25,0.59 0.15,0.17 0.34,0.26 0.58,0.26 h 9.4 c 0.24,0 0.44,-0.08 0.61,-0.25 0.17,-0.17 0.25,-0.37 0.25,-0.6 0,-0.24 -0.08,-0.44 -0.25,-0.61 a 0.82,0.82 0 0 0 -0.61,-0.25 h -9.4 c -0.23,0 -0.43,0.08 -0.59,0.25 -0.16,0.17 -0.24,0.37 -0.24,0.61 m 1.05,-2.37 c 0,0.09 0.06,0.13 0.17,0.13 H 4 c 0.12,0 0.19,-0.04 0.22,-0.13 0.26,-0.53 0.62,-0.97 1.09,-1.32 0.47,-0.35 1,-0.55 1.58,-0.62 h 0.54 c 0.11,0 0.16,-0.06 0.16,-0.19 l 0.07,-0.56 q 0.105,-1.065 0.69,-1.95 c 0.39,-0.5800005 0.9,-1.0400005 1.53,-1.3700005 0.63,-0.33 1.3,-0.5 2.02,-0.5 1.09,0 2.04,0.37 2.85,1.1 0.81,0.7300005 1.27,1.6400005 1.39,2.7200005 l 0.07,0.56 c 0,0.12 0.06,0.19 0.18,0.19 h 1.6 c 0.89,0 1.65,0.32 2.3,0.96 0.65,0.64 0.97,1.39 0.97,2.27 0,0.9 -0.32,1.67 -0.97,2.31 q -0.96,0.96 -2.31,0.96 h -6.89 c -0.11,0 -0.17,0.06 -0.17,0.19 v 1.33 c 0,0.12 0.06,0.18 0.17,0.18 h 6.89 c 0.9,0 1.73,-0.22 2.49,-0.67 0.76,-0.44 1.37,-1.05 1.81,-1.81 0.44,-0.76 0.67,-1.59 0.67,-2.49 0,-0.73 -0.14,-1.39 -0.43,-2.01 0.78,-0.96 1.16,-2.06 1.16,-3.28 0,-0.9400005 -0.24,-1.8100005 -0.71,-2.6200005 a 5.2,5.2 0 0 0 -1.92,-1.92 c -0.81,-0.47 -1.69,-0.71 -2.63,-0.71 q -1.095,0 -2.1,0.45 c -0.67,0.3 -1.25,0.71 -1.74,1.25 -0.83,-0.43 -1.73,-0.65 -2.7,-0.65 -1.41,0 -2.67,0.44 -3.76,1.31 -1.09,0.87 -1.79,1.99 -2.09,3.3600005 -0.85,0.21 -1.6,0.63 -2.25,1.25 -0.65,0.62 -1.1,1.36 -1.35,2.21 0.02,0.02 0.01,0.04 0.01,0.07 m 0.71,8.56 c 0,0.24 0.09,0.43 0.26,0.59 0.16,0.17 0.36,0.25 0.59,0.25 h 9.42 c 0.23,0 0.43,-0.08 0.59,-0.25 0.16,-0.17 0.24,-0.36 0.24,-0.6 0,-0.25 -0.08,-0.46 -0.24,-0.62 -0.16,-0.16 -0.36,-0.25 -0.6,-0.25 H 4 c -0.24,0 -0.44,0.08 -0.6,0.25 -0.16,0.17 -0.25,0.38 -0.25,0.63 M 10.64,3.7503365 q 0,0.375 0.24,0.6 l 0.64,0.66 q 0.24,0.24 0.6,0.24 c 0.26,0 0.46,-0.08 0.62,-0.24 0.16,-0.16 0.24,-0.36 0.24,-0.61 0,-0.23 -0.08,-0.43 -0.24,-0.59 l -0.65,-0.65 a 0.78,0.78 0 0 0 -0.57,-0.25 c -0.25,0 -0.46,0.08 -0.63,0.25 -0.17,0.17 -0.25,0.36 -0.25,0.59 m 5.36,4.38 c 0.66,-0.63 1.48,-0.95 2.45,-0.95 0.97,0 1.8,0.34 2.49,1.03 0.68,0.68 1.03,1.51 1.03,2.4900005 0,0.67 -0.15,1.27 -0.46,1.81 -0.94,-0.95 -2.11,-1.43 -3.5,-1.43 h -0.3 A 6.1,6.1 0 0 0 16,8.1303365 m 1.6,-5.22 c 0,0.24 0.08,0.43 0.25,0.59 0.17,0.16 0.36,0.23 0.6,0.23 0.25,0 0.45,-0.08 0.6,-0.23 0.15,-0.15 0.23,-0.35 0.23,-0.6 V 0.86033654 c 0,-0.24 -0.08,-0.45 -0.23,-0.61 A 0.79,0.79 0 0 0 18.45,3.3654021e-4 c -0.23,0 -0.43,0.0799999998 -0.6,0.24999999979 -0.17,0.17 -0.25,0.37 -0.25,0.61 z m 5.52,2.28 c 0,0.24 0.08,0.44 0.25,0.6 0.12,0.16 0.33,0.24 0.6,0.24 0.27,0 0.47,-0.08 0.59,-0.24 l 1.46,-1.44 c 0.16,-0.15 0.24,-0.36 0.24,-0.62 0,-0.23 -0.08,-0.43 -0.25,-0.6 -0.17,-0.17 -0.37,-0.25 -0.6,-0.25 -0.23,0 -0.44,0.08 -0.61,0.23 l -1.42,1.49 c -0.17,0.17 -0.26,0.36 -0.26,0.59 m 0.8,11.8600005 c 0,0.24 0.08,0.44 0.23,0.6 l 0.66,0.63 c 0.24,0.18 0.45,0.27 0.61,0.27 0.16,0 0.37,-0.09 0.61,-0.27 q 0.24,-0.24 0.24,-0.6 c 0,-0.23 -0.08,-0.43 -0.24,-0.61 l -0.64,-0.61 a 0.94,0.94 0 0 0 -0.65,-0.26 c -0.24,0 -0.43,0.08 -0.59,0.24 a 0.9,0.9 0 0 0 -0.23,0.61 m 1.44,-6.32 c 0,0.24 0.09,0.45 0.27,0.61 0.18,0.17 0.38,0.25 0.6,0.25 h 2.03 c 0.23,0 0.42,-0.08 0.59,-0.25 0.17,-0.17 0.25,-0.37 0.25,-0.61 q 0,-0.33 -0.24,-0.57 A 0.84,0.84 0 0 0 28.27,9.9303365 h -2.03 c -0.24,0 -0.45,0.080003 -0.62,0.2300005 -0.17,0.16 -0.26,0.35 -0.26,0.57" id="path1" fill="currentColor"/>
</svg>
