<?xml version="1.0" encoding="UTF-8" standalone="no"?>
<svg xmlns="http://www.w3.org/2000/svg" xmlns:svg="http://www.w3.org/2000/svg" xml:space="preserve" viewBox="0 0 6.3504019 6.3400817" version="1.1" id="svg1" width="6.3504019" height="6.3400817" fill="currentColor">
  <defs id="defs1" fill="currentColor"/>
  <path d="M 3.102877e-4,5.67 A 0.65,0.65 0 0 0 0.66031029,6.34 H 3.5303103 c 0.19,0 0.35,-0.06 0.47,-0.19 0.13,-0.13 0.19,-0.29 0.19,-0.48 a 0.59,0.59 0 0 0 -0.19,-0.46 0.67,0.67 0 0 0 -0.47,-0.18 h -1.24 l 3.88,-3.89 c 0.12,-0.14 0.18,-0.3 0.18,-0.5 a 0.65,0.65 0 0 0 -0.18,-0.46 c -0.12,-0.12 -0.29,-0.18 -0.5,-0.18 q -0.3,0 -0.48,0.18 l -3.86,3.87 V 2.8 A 0.65,0.65 0 0 0 0.66031029,2.13 c -0.19,0 -0.35,0.07 -0.47,0.2 -0.13,0.13 -0.1900000023,0.29 -0.1900000023,0.48 z" id="path1" fill="currentColor"/>
</svg>
