<?xml version="1.0" encoding="UTF-8" standalone="no"?>
<svg xmlns="http://www.w3.org/2000/svg" xmlns:svg="http://www.w3.org/2000/svg" xml:space="preserve" viewBox="0 0 19.49 19.001839" version="1.1" id="svg1" width="19.49" height="19.001839" fill="currentColor">
  <defs id="defs1" fill="currentColor"/>
  <path d="m 0,10.501838 c 0,0.16 0.06,0.29 0.17,0.4 0.11,0.11 0.25,0.16 0.4,0.16 h 2.98 c 0.14,0 0.27,-0.04 0.38,-0.13 0.11,-0.09 0.17,-0.2 0.2,-0.34 L 5.03,5.3218377 6.65,18.501838 c 0.02,0.14 0.09,0.26 0.19,0.36 0.1,0.09 0.22,0.14 0.36,0.14 0.15,0 0.28,-0.05 0.38,-0.14 0.1,-0.09 0.17,-0.21 0.2,-0.36 l 1.25,-9.6700003 1.04,2.8000003 c 0.04,0.11 0.1,0.2 0.2,0.27 0.1,0.07 0.2,0.1 0.32,0.1 h 0.05 c 0.12,-0.01 0.23,-0.05 0.32,-0.13 0.1,-0.08 0.16,-0.18 0.19,-0.31 l 1.53,-6.8600003 0.71,13.1800003 c 0.01,0.14 0.06,0.27 0.15,0.37 0.09,0.1 0.21,0.16 0.36,0.17 0.14,0.01 0.27,-0.02 0.38,-0.1 a 0.6,0.6 0 0 0 0.22,-0.33 l 1.65,-6.94 h 2.77 c 0.16,0 0.29,-0.05 0.4,-0.16 0.11,-0.11 0.17,-0.24 0.17,-0.4 0,-0.16 -0.06,-0.29 -0.17,-0.4 a 0.56,0.56 0 0 0 -0.4,-0.1700003 h -3.23 c -0.13,0 -0.25,0.04 -0.35,0.1200003 -0.1,0.08 -0.17,0.18 -0.2,0.31 l -0.83,3.54 -0.72,-13.36000034 a 0.57,0.57 0 0 0 -0.16,-0.37 0.5,0.5 0 0 0 -0.36,-0.16 c -0.14,-0.01 -0.27,0.02 -0.39,0.11 -0.12,0.09 -0.19,0.2 -0.22,0.34 l -2,8.97000004 -1.16,-3.16 c -0.04,-0.12 -0.12,-0.21 -0.24,-0.28 -0.12,-0.07 -0.24,-0.1 -0.36,-0.08 -0.13,0.01 -0.24,0.07 -0.33,0.16 -0.09,0.09 -0.15,0.21 -0.17,0.34 L 7.22,13.911838 5.69,1.3518377 a 0.64,0.64 0 0 0 -0.19,-0.35 0.6,0.6 0 0 0 -0.36,-0.15000004 0.53,0.53 0 0 0 -0.38,0.12 c -0.11,0.09 -0.18,0.20000004 -0.2,0.35000004 l -1.48,8.61 H 0.57 c -0.16,0 -0.29,0.06 -0.4,0.1700003 -0.11,0.11 -0.17,0.24 -0.17,0.4" id="path1" fill="currentColor"/>
</svg>
