<?xml version="1.0" encoding="UTF-8" standalone="no"?>
<svg xmlns="http://www.w3.org/2000/svg" xmlns:svg="http://www.w3.org/2000/svg" xml:space="preserve" viewBox="0 0 24.750175 17.540001" version="1.1" id="svg1" width="24.750175" height="17.540001" fill="currentColor">
  <defs id="defs1" fill="currentColor"/>
  <path d="m 1.7630159e-4,13.63 c 0,-0.24 0.0799999984,-0.45 0.24999999841,-0.61 q 0.255,-0.24 0.63,-0.24 H 19.550176 a 0.82,0.82 0 0 1 0.85,0.85 c 0,0.23 -0.08,0.43 -0.25,0.58 -0.17,0.16 -0.37,0.23 -0.6,0.23 H 0.8801763 c -0.25,0 -0.46,-0.08 -0.63,-0.23 A 0.76,0.76 0 0 1 1.7630159e-4,13.63 M 2.6201763,10.49 c 0,-0.24 0.09,-0.44 0.26,-0.5999997 0.15,-0.15 0.35,-0.23 0.59,-0.23 H 22.140176 c 0.23,0 0.42,0.08 0.58,0.24 0.16,0.1599997 0.23,0.3499997 0.23,0.5899997 0,0.24 -0.08,0.44 -0.23,0.6 -0.16,0.17 -0.35,0.25 -0.58,0.25 H 3.4701763 c -0.24,0 -0.44,-0.08 -0.6,-0.25 a 0.82,0.82 0 0 1 -0.25,-0.6 m 0.13,-2.3899997 c 0,0.09 0.05,0.13 0.15,0.13 h 1.43 c 0.06,0 0.13,-0.05 0.2,-0.16 0.24,-0.52 0.59,-0.94 1.06,-1.27 0.47,-0.33 0.99,-0.52 1.55,-0.56 l 0.55,-0.07 c 0.11,0 0.17,-0.06 0.17,-0.18 l 0.07,-0.5 c 0.11,-1.08 0.56,-1.98 1.37,-2.7 q 1.2149997,-1.08 2.8499997,-1.08 c 1.08,0 2.02,0.36 2.83,1.07 0.8,0.71 1.26,1.61 1.37,2.68 l 0.08,0.57 c 0,0.11 0.07,0.17 0.2,0.17 h 1.59 c 0.64,0 1.23,0.17 1.76,0.52 0.53,0.35 0.92,0.8 1.18,1.37 0.07,0.11 0.14,0.16 0.21,0.16 h 1.43 c 0.12,0 0.17,-0.07 0.14,-0.23 -0.29,-1.02 -0.88,-1.86 -1.74,-2.51 -0.87,-0.65 -1.86,-0.97 -2.97,-0.97 h -0.32 q -0.495,-1.995 -2.1,-3.27 c -1.605,-1.275 -2.28,-1.269999997194 -3.65,-1.269999997194 -1.4,0 -2.6399997,0.439999997194 -3.7299997,1.319999997194 -1.09,0.88 -1.78,2 -2.09,3.36 -0.85,0.2 -1.6,0.6 -2.24,1.21 -0.64,0.61 -1.09,1.33 -1.34,2.18 v -0.04 c -0.01,0 -0.01,0.03 -0.01,0.07 m 1.61,8.5899997 c 0,-0.24 0.09,-0.43 0.26,-0.59 0.15,-0.15 0.35,-0.23 0.6,-0.23 H 23.900176 c 0.24,0 0.44,0.08 0.6,0.23 0.17,0.16 0.25,0.35 0.25,0.58 0,0.24 -0.08,0.44 -0.25,0.61 -0.17,0.17 -0.37,0.25 -0.6,0.25 H 5.2201763 c -0.23,0 -0.43,-0.09 -0.6,-0.26 a 0.77,0.77 0 0 1 -0.26,-0.59" id="path1" fill="currentColor"/>
</svg>
