<?xml version="1.0" encoding="UTF-8" standalone="no"?>
<svg xmlns="http://www.w3.org/2000/svg" xmlns:svg="http://www.w3.org/2000/svg" xml:space="preserve" viewBox="0 0 10.640196 9.2200356" version="1.1" id="svg1" width="10.640196" height="9.2200356" fill="currentColor">
  <defs id="defs1" fill="currentColor"/>
  <path d="M 5.7318324e-5,1.81 C 5.7318324e-5,1.31 0.18005732,0.88 0.53005732,0.53 0.88005732,0.18 1.3100573,0 1.8100573,0 c 0.49,0 0.92,0.18 1.27,0.53 0.35,0.36 0.53,0.78 0.53,1.28 0,0.5 -0.18,0.93 -0.53,1.29 -0.35,0.36 -0.78,0.54 -1.27,0.54 -0.49,0 -0.91999998,-0.18 -1.27999998,-0.54 A 1.8,1.8 0 0 1 5.7318324e-5,1.81 M 0.88005732,1.81 c 0,0.26 0.09,0.48 0.26999998,0.67 0.19,0.19 0.41,0.28 0.67,0.28 0.26,0 0.48,-0.09 0.67,-0.28 0.19,-0.19 0.28,-0.41 0.28,-0.67 a 0.87,0.87 0 0 0 -0.28,-0.66 0.95,0.95 0 0 0 -0.67,-0.28 c -0.26,0 -0.48,0.09 -0.67,0.27 C 0.97005732,1.32 0.88005732,1.54 0.88005732,1.81 M 5.2900573,8.7 a 0.514,0.514 0 0 0 0.52,0.52 0.514,0.514 0 0 0 0.52,-0.52 V 4.91 h 2.86 c 0.14,0 0.27,-0.05 0.37,-0.16 0.1,-0.11 0.15,-0.23 0.15,-0.38 0,-0.15 -0.05,-0.27 -0.15,-0.38 a 0.52,0.52 0 0 0 -0.38,-0.15 h -2.86 V 1.11 h 3.8199997 q 0.21,0 0.36,-0.15 c 0.15,-0.15 0.14,-0.23 0.14,-0.38 0,-0.15 -0.05,-0.27 -0.14,-0.38 -0.09,-0.11 -0.21,-0.15 -0.36,-0.15 H 5.3700573 c -0.07,0 -0.1,0.04 -0.1,0.11 V 8.7 Z" id="path1" fill="currentColor"/>
</svg>
