<?xml version="1.0" encoding="UTF-8" standalone="no"?>
<svg xmlns="http://www.w3.org/2000/svg" xmlns:svg="http://www.w3.org/2000/svg" xml:space="preserve" viewBox="0 0 20.150034 13.08008" version="1.1" id="svg1" width="20.150034" height="13.08008" fill="currentColor">
  <defs id="defs1" fill="currentColor"/>
  <path d="m 3.256994e-5,12.190023 c 0,-0.26 0.09000000006,-0.47 0.28000000006,-0.62 0.14,-0.16 0.35,-0.23 0.63,-0.23 H 19.250033 c 0.25,0 0.46,0.08 0.64,0.24 0.18,0.16 0.26,0.37 0.26,0.61 0,0.24 -0.09,0.45 -0.27,0.62 -0.18,0.17 -0.39,0.27 -0.63,0.27 H 0.91003257 a 0.87,0.87 0 0 1 -0.64,-0.27 0.83,0.83 0 0 1 -0.27000000006,-0.62 M 1.9700326,3.9000233 c 0,-0.26 0.08,-0.47 0.23,-0.63 0.17,-0.18 0.38,-0.26 0.65,-0.26 0.23,0 0.43,0.09 0.6,0.26 l 1.5,1.5 q 0.27,0.27 0.27,0.63 c 0,0.23 -0.09,0.44 -0.27,0.62 q -0.225,0.27 -0.6,0.27 c -0.375,0 -0.47,-0.09 -0.64,-0.27 l -1.5,-1.5 c -0.16,-0.15 -0.24,-0.35 -0.24,-0.62 m 2.93,5.59 c -0.04,0.16 0.01,0.23 0.15,0.23 h 1.49 c 0.07,0 0.14,-0.06 0.22,-0.17 0.3,-0.64 0.74,-1.14 1.33,-1.52 0.59,-0.38 1.24,-0.56 1.9600004,-0.56 0.73,0 1.39,0.19 1.99,0.56 0.6,0.37 1.05,0.88 1.35,1.52 0.08,0.11 0.16,0.17 0.23,0.17 h 1.48 c 0.13,0 0.18,-0.08 0.15,-0.23 a 5.23,5.23 0 0 0 -1.95,-2.76 c -0.96,-0.71 -2.04,-1.06 -3.25,-1.06 -1.2000004,0 -2.2800004,0.35 -3.2300004,1.06 -0.93,0.71 -1.58,1.63 -1.92,2.76 m 4.31,-6.46 V 0.90002334 c 0,-0.25 0.08,-0.46 0.24,-0.64 0.16,-0.18 0.37,-0.259999998578 0.6100004,-0.259999998578 a 0.874,0.874 0 0 1 0.88,0.899999998578 V 3.0400233 a 0.852,0.852 0 0 1 -0.88,0.89 c -0.2400004,0 -0.4500004,-0.09 -0.6100004,-0.26 -0.16,-0.17 -0.24,-0.39 -0.24,-0.64 m 5.7200004,2.37 c 0,-0.24 0.08,-0.45 0.25,-0.63 l 1.54,-1.5 c 0.16,-0.18 0.36,-0.26 0.62,-0.26 0.24,0 0.44,0.08 0.6,0.25 0.16,0.17 0.23,0.38 0.23,0.64 0,0.26 -0.08,0.47 -0.23,0.62 l -1.48,1.5 c -0.17,0.17 -0.36,0.26 -0.56,0.28 -0.23,0.02 -0.44,-0.06 -0.65,-0.24 -0.21,-0.18 -0.32,-0.41 -0.32,-0.66" id="path1" fill="currentColor"/>
</svg>
