<?xml version="1.0" encoding="UTF-8" standalone="no"?>
<svg xmlns="http://www.w3.org/2000/svg" xmlns:svg="http://www.w3.org/2000/svg" xml:space="preserve" viewBox="0 0 20.73 20.25" version="1.1" id="svg1" width="20.73" height="20.25" fill="currentColor">
  <defs id="defs1" fill="currentColor"/>
  <path d="m 0,9.46 c 0,1.33 0.46,2.47 1.39,3.43 0.93,0.96 2.06,1.47 3.4,1.53 0.11,0 0.17,-0.06 0.17,-0.17 V 12.91 C 4.96,12.8 4.9,12.74 4.79,12.74 3.93,12.7 3.21,12.36 2.61,11.72 2.01,11.08 1.71,10.33 1.71,9.46 1.71,8.63 1.99,7.92 2.55,7.3 3.11,6.69 3.81,6.33 4.64,6.23 L 5.17,6.2 c 0.13,0 0.2,-0.06 0.2,-0.19 L 5.43,5.48 C 5.54,4.4 5.99,3.49 6.8,2.77 7.61,2.04 8.56,1.68 9.65,1.68 c 1.09,0 2.04,0.36 2.85,1.09 0.81,0.73 1.27,1.63 1.39,2.71 l 0.08,0.58 c 0,0.11 0.06,0.17 0.18,0.17 h 1.61 q 1.335,0 2.31,0.96 c 0.65,0.64 0.98,1.39 0.98,2.27 0,0.87 -0.3,1.62 -0.9,2.26 -0.6,0.64 -1.33,0.98 -2.18,1.02 -0.13,0 -0.2,0.06 -0.2,0.17 v 1.34 c 0,0.11 0.07,0.17 0.2,0.17 0.87,-0.02 1.67,-0.26 2.4,-0.71 0.73,-0.45 1.31,-1.05 1.73,-1.8 0.42,-0.75 0.63,-1.57 0.63,-2.44 C 20.73,8.58 20.51,7.75 20.06,7 19.62,6.25 19.01,5.65 18.25,5.22 17.49,4.79 16.65,4.56 15.76,4.56 H 15.44 C 15.12,3.22 14.41,2.13 13.34,1.28 12.27,0.43 11.04,0 9.66,0 8.25,0 7,0.44 5.91,1.31 A 5.83,5.83 0 0 0 3.81,4.66 C 2.7,4.92 1.79,5.49 1.08,6.39 0.37,7.29 0,8.31 0,9.46 m 5.45,7.2 c 0.09,0.21 0.25,0.37 0.46,0.46 0.2,0.1 0.41,0.11 0.62,0.02 C 6.75,17.05 6.89,16.9 6.98,16.69 7.08,16.47 7.09,16.26 7,16.05 6.92,15.84 6.76,15.7 6.55,15.61 6.35,15.5 6.15,15.49 5.94,15.58 a 0.85,0.85 0 0 0 -0.46,0.47 c -0.11,0.17 -0.11,0.37 -0.03,0.61 m 0.63,-2.82 q 0,0.24 0.15,0.45 c 0.1,0.15 0.26,0.25 0.46,0.32 0.19,0.11 0.4,0.12 0.62,0.01 0.22,-0.1 0.37,-0.3 0.44,-0.6 l 0.9,-3.38 C 8.71,10.39 8.69,10.17 8.57,9.97 A 0.72,0.72 0 0 0 8.04,9.61 0.843,0.843 0 0 0 7.33,9.73 C 7.18,9.83 7.07,9.98 7.01,10.17 l -0.88,3.39 c -0.04,0.16 -0.05,0.25 -0.05,0.28 m 1.86,5.59 c 0,0.12 0.02,0.22 0.06,0.29 q 0.135,0.33 0.45,0.45 c 0.09,0.05 0.2,0.08 0.33,0.08 q 0.09,0 0.3,-0.06 C 9.3,20.11 9.46,19.96 9.55,19.74 q 0.15,-0.33 0,-0.66 A 0.88,0.88 0 0 0 9.1,18.62 c -0.2,-0.09 -0.4,-0.09 -0.62,0 a 0.8,0.8 0 0 0 -0.41,0.36 c -0.09,0.16 -0.13,0.31 -0.13,0.45 m 0.73,-2.61 c 0,0.37 0.21,0.61 0.63,0.73 a 0.855,0.855 0 0 0 0.62,-0.04 q 0.315,-0.12 0.42,-0.57 l 1.67,-6.29 C 12.07,10.41 12.05,10.2 11.95,10 A 0.76,0.76 0 0 0 11.46,9.62 Q 11.34,9.59 11.19,9.59 a 0.9,0.9 0 0 0 -0.48,0.15 c -0.16,0.1 -0.26,0.25 -0.3,0.44 L 8.7,16.52 q -0.03,0.21 -0.03,0.3 m 3.43,-0.46 c 0,0.12 0.02,0.23 0.08,0.32 0.08,0.19 0.23,0.34 0.44,0.44 0.11,0.04 0.23,0.07 0.35,0.07 q 0.09,0 0.3,-0.06 c 0.21,-0.08 0.37,-0.23 0.46,-0.44 0.07,-0.22 0.07,-0.43 -0.01,-0.63 A 0.84,0.84 0 0 0 13.3,15.61 C 13.07,15.5 12.86,15.49 12.65,15.58 a 0.85,0.85 0 0 0 -0.46,0.47 c -0.06,0.1 -0.09,0.2 -0.09,0.31 m 0.73,-2.57 c 0,0.14 0.05,0.29 0.16,0.45 q 0.165,0.24 0.45,0.33 c 0.16,0.03 0.25,0.05 0.27,0.05 0.09,0 0.22,-0.03 0.37,-0.1 0.2,-0.09 0.33,-0.27 0.4,-0.52 l 0.9,-3.34 0.03,-0.26 c 0,-0.16 -0.05,-0.31 -0.15,-0.46 A 0.78,0.78 0 0 0 14.81,9.63 C 14.72,9.61 14.63,9.6 14.55,9.6 14.39,9.6 14.23,9.65 14.08,9.75 13.93,9.85 13.83,10 13.77,10.2 l -0.9,3.36 z" id="path1" fill="currentColor"/>
</svg>
