<?xml version="1.0" encoding="UTF-8" standalone="no"?>
<svg xmlns="http://www.w3.org/2000/svg" xmlns:svg="http://www.w3.org/2000/svg" xml:space="preserve" viewBox="0 0 21.720566 20.25" version="1.1" id="svg1" width="21.720566" height="20.25" fill="currentColor">
  <defs id="defs1" fill="currentColor"/>
  <path d="m 5.6637431e-4,10.78 c 0,-0.24 0.0899999957,-0.44 0.26999999569,-0.61 0.17,-0.17 0.38,-0.25 0.62,-0.25 H 2.9505664 c 0.24,0 0.44,0.08 0.6,0.25 0.17,0.17 0.25,0.37 0.25,0.61 0,0.25 -0.08,0.46 -0.25,0.63 -0.17,0.17 -0.37,0.25 -0.6,0.25 H 0.89056637 c -0.25,0 -0.46,-0.08 -0.63,-0.25 A 0.82,0.82 0 0 1 5.6637431e-4,10.78 M 2.9205664,3.76 c 0,-0.23 0.08,-0.44 0.24,-0.62 0.2,-0.16 0.41,-0.25 0.66,-0.25 0.21,0 0.41,0.08 0.59,0.25 l 1.45,1.48 c 0.17,0.16 0.25,0.36 0.25,0.6 0,0.24 -0.08,0.44 -0.25,0.6 a 0.8,0.8 0 0 1 -0.6,0.25 c -0.26,0 -0.46,-0.08 -0.61,-0.25 l -1.5,-1.44 a 0.97,0.97 0 0 1 -0.23,-0.62 m 2.61,7.02 c 0,-0.71 0.14,-1.39 0.43,-2.04 0.28,-0.65 0.67,-1.22 1.14,-1.69 0.48,-0.47 1.05,-0.85 1.7,-1.13 0.65,-0.28 1.3399996,-0.43 2.0599996,-0.43 0.96,0 1.84,0.24 2.66,0.72 0.82,0.48 1.47,1.12 1.94,1.94 0.47,0.81 0.71,1.69 0.71,2.63 q 0,0.225 -0.03,0.42 c -0.28,-0.17 -0.6,-0.25 -0.97,-0.25 q -0.36,0 -0.72,0.15 c 0.01,-0.07 0.01,-0.18 0.01,-0.32 0,-0.98 -0.35,-1.81 -1.06,-2.5 -0.71,-0.69 -1.56,-1.04 -2.55,-1.04 -0.9899996,0 -1.8299996,0.35 -2.5399996,1.04 -0.71,0.69 -1.05,1.52 -1.05,2.5 v 0.18 c -0.29,0.02 -0.57,0.1 -0.84,0.25 -0.01,0.01 -0.04,0.03 -0.1,0.07 -0.06,0.04 -0.12,0.09 -0.19,0.14 -0.07,0.05 -0.14,0.11 -0.23,0.19 -0.09,0.08 -0.18,0.16 -0.26,0.24 -0.08,-0.32 -0.11,-0.68 -0.11,-1.07 m 0.03,3.65 v -0.15 c -0.01,-0.09 0,-0.2 0.02,-0.33 q 0.075,-0.54 0.42,-1.02 c 0.13,-0.16 0.22,-0.27 0.27,-0.31 a 0.2,0.2 0 0 1 0.04,-0.06 l 0.04,-0.04 a 0.4,0.4 0 0 0 0.12,-0.1 l 0.08,-0.08 c 0.03,-0.03 0.06,-0.04 0.07,-0.06 0.05,-0.05 0.1,-0.08 0.14,-0.1 l 0.17,-0.11 c 0.14,-0.09 0.31,-0.14 0.5,-0.14 h 0.03 c 0.1,0 0.19,0.01 0.26,0.03 0.03,0.01 0.07,0.03 0.13,0.07 v 0.01 a 0.798,0.798 0 0 1 0.47,0.71 c 0,0.17 -0.05,0.31 -0.14,0.42 -0.06,0.09 -0.14,0.17 -0.22,0.23 l -0.06,0.03 -0.04,0.02 -0.06,0.04 c -0.04,0.03 -0.07,0.06 -0.1,0.08 -0.03,0.02 -0.06,0.06 -0.11,0.11 -0.04,0.05 -0.08,0.09 -0.11,0.14 -0.03,0.04 -0.06,0.1 -0.09,0.15 -0.03,0.06 -0.05,0.12 -0.05,0.17 v 0.15 c 0.04,0.15 0.08,0.27 0.11,0.36 0.07,0.14 0.18,0.28 0.34,0.44 0.01,0.02 0.09,0.1 0.24,0.25 0.86,0.78 1.27,1.62 1.21,2.5 q -0.03,0.45 -0.21,0.87 c -0.12,0.28 -0.26,0.51 -0.43,0.7 -0.16,0.19 -0.29,0.33 -0.39,0.43 -0.1,0.09 -0.18,0.16 -0.25,0.21 -0.01,0.01 -0.03,0.02 -0.06,0.04 -0.03,0.02 -0.06,0.04 -0.07,0.04 -0.08,0.04 -0.15,0.06 -0.22,0.07 -0.09,0.01 -0.15,0.02 -0.2,0.02 -0.3,0 -0.54,-0.1 -0.71,-0.3 a 0.79,0.79 0 0 1 -0.18,-0.59 c 0.02,-0.22 0.13,-0.4 0.33,-0.53 l 0.01,-0.03 c 0.01,-0.01 0.03,-0.03 0.05,-0.04 0.02,-0.02 0.04,-0.04 0.07,-0.06 0.03,-0.02 0.06,-0.05 0.08,-0.08 a 1,1 0 0 0 0.08,-0.1 c 0.03,-0.04 0.06,-0.08 0.08,-0.12 0.03,-0.04 0.06,-0.09 0.08,-0.14 0.03,-0.05 0.05,-0.1 0.07,-0.15 0.02,-0.05 0.03,-0.1 0.05,-0.16 0.01,-0.06 0.02,-0.12 0.02,-0.17 q 0.03,-0.3 -0.15,-0.6 c -0.05,-0.11 -0.12,-0.22 -0.22,-0.33 -0.07,-0.08 -0.12,-0.13 -0.15,-0.16 q -0.135,-0.165 -0.15,-0.18 c -0.02,-0.01 -0.04,-0.03 -0.07,-0.06 -0.03,-0.03 -0.05,-0.04 -0.06,-0.05 -0.15,-0.14 -0.26,-0.26 -0.34,-0.36 -0.12,-0.16 -0.21,-0.26 -0.24,-0.32 q -0.285,-0.39 -0.39,-0.78 c -0.04,-0.14 -0.07,-0.25 -0.08,-0.32 0,-0.02 -0.01,-0.05 -0.02,-0.08 -0.01,-0.03 -0.01,-0.05 -0.01,-0.08 m 3.88,-0.33 c 0,-0.06 0,-0.1 0.01,-0.14 0.02,-0.22 0.09,-0.43 0.2,-0.64 0.11,-0.21 0.22,-0.39 0.3499996,-0.53 0.13,-0.14 0.25,-0.27 0.38,-0.38 0.13,-0.11 0.23,-0.19 0.31,-0.25 l 0.12,-0.07 c 0.15,-0.09 0.32,-0.14 0.5,-0.14 q 0.165,0 0.3,0.03 c 0.01,0 0.02,0.01 0.05,0.02 0.03,0.02 0.05,0.03 0.06,0.04 0.01,0 0.02,0 0.03,0.01 0.01,0 0.03,0.02 0.07,0.05 0.2,0.12 0.32,0.3 0.38,0.54 v 0.12 c 0,0.03 -0.01,0.07 -0.02,0.12 -0.01,0.05 -0.02,0.08 -0.02,0.09 -0.07,0.23 -0.21,0.39 -0.42,0.5 -0.33,0.22 -0.51,0.45 -0.53,0.69 a 0.8,0.8 0 0 0 0,0.22 c 0.02,0.12 0.08,0.25 0.17,0.39 0.11,0.16 0.19,0.27 0.24,0.32 0.16,0.16 0.25,0.25 0.28,0.27 0.12,0.11 0.28,0.28 0.47,0.51 0.54,0.65 0.79,1.32 0.74,2 q -0.03,0.45 -0.21,0.87 c -0.12,0.28 -0.26,0.51 -0.43,0.7 -0.16,0.18 -0.3,0.33 -0.4,0.43 -0.11,0.1 -0.19,0.17 -0.25,0.21 l -0.12,0.08 c -0.11,0.04 -0.17,0.06 -0.21,0.07 -0.11,0.01 -0.18,0.02 -0.2,0.02 h -0.03 a 1,1 0 0 1 -0.19,-0.02 c -0.02,0 -0.05,0 -0.08,-0.01 -0.03,-0.01 -0.06,-0.01 -0.07,-0.01 -0.01,0 -0.02,0 -0.03,-0.01 -0.01,-0.01 -0.02,-0.01 -0.04,-0.02 -0.01,-0.01 -0.02,-0.01 -0.03,-0.01 -0.15,-0.11 -0.24,-0.17 -0.26,-0.21 a 0.744,0.744 0 0 1 0.15,-1.13 l 0.03,-0.04 c 0.02,-0.02 0.05,-0.05 0.09,-0.08 l 0.12,-0.12 0.13,-0.16 0.12,-0.19 0.09,-0.22 0.04,-0.24 c 0.01,-0.4 -0.22,-0.82 -0.69,-1.27 -0.19,-0.17 -0.33,-0.31 -0.44,-0.43 C 9.6505664,15.39 9.4005664,14.74 9.4405664,14.1 m 0.54,-11.16 V 0.87 c 0,-0.24 0.09,-0.45 0.2599996,-0.62 0.17,-0.17 0.38,-0.25 0.61,-0.25 0.24,0 0.45,0.08 0.62,0.25 0.17,0.17 0.25,0.38 0.25,0.62 v 2.07 c 0,0.24 -0.08,0.43 -0.25,0.59 -0.17,0.16 -0.37,0.23 -0.61,0.23 a 0.9,0.9 0 0 1 -0.61,-0.23 0.75,0.75 0 0 1 -0.2699996,-0.59 m 3.3599996,11.01 c 0.02,-0.22 0.09,-0.43 0.2,-0.64 0.11,-0.21 0.22,-0.39 0.35,-0.53 0.13,-0.14 0.25,-0.27 0.38,-0.38 0.12,-0.11 0.22,-0.19 0.3,-0.25 l 0.13,-0.07 c 0.02,-0.02 0.06,-0.04 0.1,-0.08 0.11,-0.04 0.24,-0.07 0.38,-0.07 0.34,0 0.59,0.13 0.77,0.38 0.05,0.07 0.08,0.14 0.1,0.23 0.01,0.02 0.02,0.05 0.02,0.08 v 0.11 c 0,0.31 -0.15,0.55 -0.45,0.7 -0.32,0.21 -0.49,0.44 -0.52,0.69 -0.04,0.34 0.19,0.74 0.68,1.2 0.88,0.77 1.28,1.61 1.23,2.5 q -0.03,0.45 -0.21,0.87 c -0.12,0.28 -0.27,0.51 -0.43,0.7 -0.17,0.19 -0.3,0.33 -0.39,0.43 -0.09,0.1 -0.18,0.16 -0.25,0.21 -0.16,0.1 -0.3,0.15 -0.41,0.16 -0.03,0.01 -0.08,0.01 -0.15,0.01 q -0.45,0 -0.69,-0.3 c -0.15,-0.17 -0.21,-0.37 -0.19,-0.59 0.02,-0.22 0.13,-0.4 0.32,-0.53 0.03,-0.01 0.09,-0.06 0.18,-0.14 0.09,-0.08 0.18,-0.21 0.29,-0.38 0.1,-0.18 0.16,-0.35 0.17,-0.53 0.02,-0.4 -0.22,-0.82 -0.7,-1.27 -0.41,-0.36 -0.73,-0.75 -0.94,-1.16 -0.24,-0.42 -0.33,-0.88 -0.27,-1.35 m 2.29,-8.72 c 0,-0.25 0.08,-0.45 0.23,-0.6 l 1.46,-1.48 c 0.18,-0.17 0.38,-0.25 0.61,-0.25 0.24,0 0.44,0.09 0.61,0.26 0.17,0.17 0.26,0.38 0.26,0.61 0,0.25 -0.09,0.46 -0.26,0.62 l -1.48,1.44 c -0.18,0.17 -0.38,0.25 -0.61,0.25 -0.23,0 -0.43,-0.08 -0.58,-0.25 a 0.83,0.83 0 0 1 -0.24,-0.6 m 2.3,5.55 c 0,-0.22 0.09,-0.42 0.26,-0.61 0.16,-0.17 0.35,-0.25 0.58,-0.25 h 2.06 c 0.24,0 0.45,0.09 0.62,0.26 0.17,0.17 0.27,0.37 0.27,0.6 0,0.24 -0.09,0.45 -0.26,0.62 -0.18,0.17 -0.38,0.26 -0.63,0.26 h -2.06 a 0.77,0.77 0 0 1 -0.6,-0.25 0.88,0.88 0 0 1 -0.24,-0.63" id="path1" fill="currentColor"/>
</svg>
