<?xml version="1.0" encoding="UTF-8" standalone="no"?>
<svg xmlns="http://www.w3.org/2000/svg" xmlns:svg="http://www.w3.org/2000/svg" xml:space="preserve" viewBox="0 0 21.790487 16.85" version="1.1" id="svg1" width="21.790487" height="16.85" fill="currentColor">
  <defs id="defs1" fill="currentColor"/>
  <path d="m 4.8729264e-4,10.9 c 0,-0.26 0.0899999974,-0.47 0.26999999736,-0.62 0.14,-0.15 0.35,-0.23 0.62,-0.23 H 2.9704873 c 0.24,0 0.45,0.08 0.6,0.24 q 0.24,0.24 0.24,0.6 c 0,0.24 -0.08,0.44 -0.24,0.61 -0.16,0.17 -0.36,0.25 -0.6,0.25 H 0.89048729 c -0.24,0 -0.45,-0.08 -0.63,-0.25 A 0.76,0.76 0 0 1 4.8729264e-4,10.9 M 0.92048729,15.98 c 0,-0.23 0.09,-0.43 0.26000001,-0.61 0.16,-0.16 0.37,-0.23 0.61,-0.23 H 20.000487 c 0.24,0 0.45,0.08 0.62,0.24 0.17,0.16 0.25,0.36 0.25,0.6 0,0.24 -0.09,0.44 -0.26,0.61 -0.17,0.17 -0.38,0.26 -0.61,0.26 H 1.8004873 c -0.24,0 -0.44,-0.09 -0.61,-0.26 -0.17,-0.17 -0.27000001,-0.37 -0.27000001,-0.61 M 2.9704873,3.81 c 0,-0.26 0.08,-0.45 0.23,-0.59 0.17,-0.18 0.38,-0.27 0.62,-0.27 0.24,0 0.44,0.09 0.61,0.27 l 1.44,1.46 c 0.18,0.16 0.26,0.36 0.26,0.6 a 0.82,0.82 0 0 1 -0.84,0.85 q -0.33,0 -0.6,-0.24 l -1.49,-1.47 c -0.15,-0.14 -0.23,-0.34 -0.23,-0.61 m 2.6,7.09 c 0,0.87 0.18,1.65 0.53,2.33 0.03,0.09 0.11,0.14 0.24,0.14 h 1.67 c 0.07,0 0.12,-0.02 0.14,-0.06 0.02,-0.04 -0.01,-0.1 -0.07,-0.16 -0.53,-0.65 -0.8,-1.4 -0.8,-2.25 0,-0.99 0.36,-1.84 1.07,-2.54 q 1.065,-1.05 2.5499997,-1.05 1.485,0 2.55,1.05 c 1.065,1.05 1.05,1.55 1.05,2.54 0,0.86 -0.27,1.61 -0.8,2.25 q -0.06,0.09 -0.06,0.12 c -0.01,0.03 0,0.06 0.03,0.07 0.02,0.02 0.06,0.03 0.1,0.03 h 1.7 c 0.09,0 0.16,-0.05 0.21,-0.14 0.38,-0.71 0.56,-1.48 0.56,-2.33 q 0,-1.44 -0.72,-2.67 -0.72,-1.23 -1.95,-1.95 c -1.23,-0.72 -1.71,-0.72 -2.67,-0.72 -0.9599997,0 -1.8499997,0.24 -2.6699997,0.72 q -1.23,0.72 -1.95,1.95 c -0.48,0.82 -0.71,1.71 -0.71,2.67 M 10.040487,2.97 V 0.88 c 0,-0.24 0.08,-0.44 0.25,-0.62 0.17,-0.18 0.37,-0.26 0.61,-0.26 0.24,0 0.44,0.09 0.62,0.26 0.17,0.17 0.26,0.38 0.26,0.62 v 2.09 c 0,0.24 -0.09,0.44 -0.26,0.62 -0.18,0.18 -0.38,0.26 -0.62,0.26 -0.24,0 -0.44,-0.09 -0.61,-0.26 a 0.86,0.86 0 0 1 -0.25,-0.62 m 5.62,2.31 q 0,-0.36 0.24,-0.6 l 1.44,-1.46 c 0.17,-0.18 0.38,-0.27 0.62,-0.27 0.25,0 0.46,0.08 0.62,0.25 0.17,0.17 0.25,0.37 0.25,0.61 0,0.26 -0.08,0.46 -0.23,0.61 l -1.51,1.47 c -0.16,0.15 -0.36,0.22 -0.59,0.22 a 0.8,0.8 0 0 1 -0.61,-0.22 0.84,0.84 0 0 1 -0.23,-0.61 m 2.33,5.62 c 0,-0.27 0.08,-0.47 0.24,-0.62 0.14,-0.15 0.34,-0.23 0.59,-0.23 h 2.09 c 0.24,0 0.45,0.08 0.62,0.24 0.17,0.16 0.26,0.36 0.26,0.6 0,0.24 -0.09,0.44 -0.26,0.61 a 0.86,0.86 0 0 1 -0.62,0.25 h -2.09 c -0.23,0 -0.43,-0.08 -0.59,-0.25 a 0.81,0.81 0 0 1 -0.24,-0.6" id="path1" fill="currentColor"/>
</svg>
