<?xml version="1.0" encoding="UTF-8" standalone="no"?>
<svg xmlns="http://www.w3.org/2000/svg" xmlns:svg="http://www.w3.org/2000/svg" xml:space="preserve" viewBox="0 0 10.41 10.42" version="1.1" id="svg1" width="10.41" height="10.42" fill="currentColor">
  <defs id="defs1" fill="currentColor"/>
  <path d="M 0,5.21 C 0,4.28 0.23,3.41 0.7,2.61 1.17,1.81 1.8,1.17 2.6,0.7 3.4,0.23 4.27,0 5.2,0 c 0.94,0 1.81,0.23 2.61,0.7 0.8,0.47 1.43,1.1 1.9,1.9 0.47,0.8 0.7,1.67 0.7,2.61 0,0.94 -0.23,1.81 -0.7,2.61 -0.47,0.8 -1.1,1.43 -1.9,1.9 -0.8,0.47 -1.67,0.7 -2.61,0.7 -0.94,0 -1.8,-0.23 -2.6,-0.7 C 1.8,9.25 1.17,8.62 0.7,7.82 0.23,7.02 0,6.15 0,5.21 M 4.45,1.81 C 5.32,1.92 6.05,2.3 6.64,2.96 7.23,3.62 7.53,4.4 7.53,5.29 7.53,6.12 7.27,6.85 6.75,7.49 6.23,8.13 5.57,8.53 4.77,8.7 4.97,8.72 5.11,8.74 5.2,8.74 6.18,8.74 7.01,8.39 7.7,7.7 8.39,7.01 8.74,6.18 8.74,5.2 8.74,4.24 8.39,3.42 7.7,2.73 A 3.44,3.44 0 0 0 5.2,1.71 C 4.94,1.73 4.69,1.76 4.45,1.81" id="path1" fill="currentColor"/>
</svg>
