<?xml version="1.0" encoding="UTF-8" standalone="no"?>
<svg xmlns="http://www.w3.org/2000/svg" xmlns:svg="http://www.w3.org/2000/svg" xml:space="preserve" viewBox="0 0 11.26 22.51" version="1.1" id="svg1" width="11.26" height="22.51" fill="currentColor">
  <defs id="defs1" fill="currentColor"/>
  <path d="m 0,11.25 c 0,2.04 0.5,3.93 1.51,5.65 1.01,1.72 2.37,3.1 4.1,4.1 1.73,1 3.61,1.51 5.65,1.51 C 9.19,21.5 7.67,20.06 6.7,18.18 5.73,16.3 5.26,14 5.26,11.25 5.26,8.72 5.82,6.47 6.95,4.5 8.08,2.53 9.52,1.03 11.26,0 9.22,0 7.33,0.5 5.61,1.51 3.89,2.52 2.51,3.88 1.51,5.6 0.51,7.32 0,9.21 0,11.25" id="path1" fill="currentColor"/>
</svg>
