<?xml version="1.0" encoding="UTF-8" standalone="no"?>
<svg xmlns="http://www.w3.org/2000/svg" xmlns:svg="http://www.w3.org/2000/svg" xml:space="preserve" viewBox="0 0 17.700001 22.43" version="1.1" id="svg1" width="17.700001" height="22.43" fill="currentColor">
  <defs id="defs1" fill="currentColor"/>
  <path d="m 0,11.22 c 0,1.22 0.19,2.4 0.56,3.54 0.37,1.14 0.91,2.17 1.6,3.09 0.69,0.92 1.5,1.72 2.42,2.42 0.92,0.7 1.95,1.23 3.09,1.6 1.14,0.37 2.32,0.56 3.54,0.56 4.33,-1.73 6.49,-5.47 6.49,-11.22 q 0,-2.085 -0.54,-3.93 C 16.62,5.435 16.31,4.97 15.69,4.05 15.07,3.13 14.38,2.34 13.63,1.66 12.88,0.98 12.07,0.43 11.21,0 9.18,0 7.3,0.5 5.58,1.5 3.86,2.5 2.51,3.87 1.5,5.59 0.49,7.31 0,9.19 0,11.22" id="path1" fill="currentColor"/>
</svg>
