<?xml version="1.0" encoding="UTF-8" standalone="no"?>
<svg xmlns="http://www.w3.org/2000/svg" xmlns:svg="http://www.w3.org/2000/svg" xml:space="preserve" viewBox="0 0 22.51 22.51" version="1.1" id="svg1" width="22.51" height="22.51" fill="currentColor">
  <defs id="defs1" fill="currentColor"/>
  <path d="m 0,11.25 c 0,2.04 0.5,3.93 1.51,5.65 1.01,1.72 2.37,3.1 4.1,4.1 1.73,1 3.61,1.51 5.65,1.51 2.04,0 3.92,-0.5 5.65,-1.51 C 18.64,19.99 20,18.63 21,16.9 22,15.17 22.51,13.29 22.51,11.25 22.51,9.21 22.01,7.33 21,5.6 19.99,3.87 18.63,2.51 16.91,1.51 15.19,0.51 13.3,0 11.26,0 9.22,0 7.34,0.51 5.61,1.51 3.88,2.51 2.51,3.88 1.51,5.6 0.51,7.32 0,9.21 0,11.25" id="path1" fill="currentColor"/>
</svg>
