<?xml version="1.0" encoding="UTF-8" standalone="no"?>
<svg xmlns="http://www.w3.org/2000/svg" xmlns:svg="http://www.w3.org/2000/svg" xml:space="preserve" viewBox="0 0 22.51 22.51" version="1.1" id="svg1" width="22.51" height="22.51" fill="currentColor">
  <defs id="defs1" fill="currentColor"/>
  <path d="M 0,11.25 C 0,9.73 0.3,8.27 0.89,6.88 1.48,5.49 2.29,4.3 3.29,3.29 4.29,2.28 5.49,1.48 6.88,0.89 8.27,0.3 9.72,0 11.25,0 c 1.53,0 2.98,0.3 4.37,0.89 1.39,0.59 2.59,1.4 3.6,2.4 1.01,1 1.81,2.2 2.4,3.59 0.59,1.39 0.89,2.84 0.89,4.37 0,1.53 -0.3,2.98 -0.89,4.37 -0.59,1.39 -1.4,2.59 -2.4,3.6 -1,1.01 -2.2,1.81 -3.6,2.4 -1.4,0.59 -2.85,0.89 -4.37,0.89 -1.52,0 -2.98,-0.3 -4.37,-0.89 -1.39,-0.59 -2.58,-1.4 -3.59,-2.4 -1.01,-1 -1.81,-2.2 -2.4,-3.6 C 0.3,14.22 0,12.78 0,11.25 M 11.84,1.22 c 1.28,1.1 2.32,2.51 3.13,4.22 0.81,1.71 1.22,3.65 1.22,5.82 0,4.64 -1.39,7.99 -4.16,10.05 1.28,-0.1 2.49,-0.43 3.63,-1 1.14,-0.57 2.13,-1.29 2.96,-2.18 0.83,-0.89 1.49,-1.93 1.97,-3.13 0.48,-1.2 0.73,-2.44 0.73,-3.74 q 0,-2.625 -1.26,-4.89 C 18.8,4.105 18.07,3.65 16.62,2.73 15.17,1.81 13.57,1.31 11.84,1.22" id="path1" fill="currentColor"/>
</svg>
