<?xml version="1.0" encoding="UTF-8" standalone="no"?>
<svg xmlns="http://www.w3.org/2000/svg" xmlns:svg="http://www.w3.org/2000/svg" xml:space="preserve" viewBox="0 0 22.540001 22.540001" version="1.1" id="svg1" width="22.540001" height="22.540001" fill="currentColor">
  <defs id="defs1" fill="currentColor"/>
  <path d="M 0,11.28 C 0,9.75 0.3,8.28 0.89,6.89 1.48,5.5 2.29,4.3 3.29,3.29 4.29,2.28 5.49,1.48 6.89,0.89 8.29,0.3 9.74,0 11.26,0 c 1.53,0 3,0.3 4.39,0.89 1.39,0.59 2.59,1.4 3.6,2.4 1.01,1 1.81,2.2 2.4,3.6 0.59,1.4 0.89,2.85 0.89,4.39 0,1.52 -0.3,2.98 -0.89,4.37 -0.59,1.39 -1.4,2.59 -2.4,3.6 -1,1.01 -2.2,1.81 -3.6,2.4 -1.4,0.59 -2.85,0.89 -4.39,0.89 -1.52,0 -2.98,-0.3 -4.37,-0.89 -1.39,-0.59 -2.59,-1.4 -3.6,-2.4 -1.01,-1 -1.81,-2.2 -2.4,-3.6 C 0.3,14.25 0,12.81 0,11.28 m 5.39,-0.01 c 0,4.68 1.48,8 4.45,9.98 0.44,0.07 0.91,0.1 1.42,0.1 1.37,0 2.67,-0.27 3.91,-0.8 1.24,-0.53 2.31,-1.25 3.22,-2.15 0.91,-0.9 1.62,-1.97 2.15,-3.22 0.53,-1.25 0.8,-2.55 0.8,-3.9 0,-1.82 -0.45,-3.5 -1.35,-5.05 C 19.09,4.68 17.86,3.46 16.31,2.55 14.76,1.64 13.08,1.2 11.26,1.2 10.81,1.2 10.42,1.22 10.07,1.26 Q 7.97,2.85 6.68,5.46 C 5.39,8.07 5.39,9.13 5.39,11.27" id="path1" fill="currentColor"/>
</svg>
