<?xml version="1.0" encoding="UTF-8" standalone="no"?>
<svg xmlns="http://www.w3.org/2000/svg" xmlns:svg="http://www.w3.org/2000/svg" xml:space="preserve" viewBox="0 0 15.52 22.1" version="1.1" id="svg1" width="15.52" height="22.1" fill="currentColor">
  <defs id="defs1" fill="currentColor"/>
  <path d="m 0,17.04 c 0,-0.13 0,-0.23 0.01,-0.29 v -0.3 c 0,-0.03 0.01,-0.07 0.02,-0.12 0.01,-0.05 0.02,-0.08 0.02,-0.09 v -0.12 l 0.08,-0.37 c 0,-0.01 0,-0.01 0.01,-0.02 V 15.71 L 0.18,15.57 C 0.19,15.56 0.19,15.56 0.19,15.55 0.2,15.54 0.2,15.53 0.2,15.52 v -0.03 c 0.04,-0.12 0.07,-0.22 0.1,-0.28 0,-0.01 0.01,-0.02 0.02,-0.03 0.01,-0.01 0.02,-0.06 0.05,-0.15 Q 0.625,14.46 1,13.95 L 1.06,13.88 C 1.07,13.87 1.08,13.86 1.09,13.84 1.1,13.82 1.11,13.81 1.12,13.8 1.13,13.79 1.15,13.77 1.19,13.74 A 0.2,0.2 0 0 1 1.23,13.68 C 1.25,13.66 1.26,13.64 1.27,13.62 1.31,13.6 1.33,13.57 1.34,13.55 1.35,13.54 1.37,13.53 1.41,13.49 L 1.48,13.42 9.08,5.09 8.7,7.29 15.52,0 l -4.18,8.14 4.18,-3.16 -3.79,7.6 2.71,-1.87 -4.68,8.33 c 0,0.01 -0.01,0.02 -0.02,0.04 C 9.73,19.1 9.72,19.12 9.71,19.13 9.7,19.14 9.7,19.15 9.69,19.17 9.68,19.19 9.68,19.2 9.67,19.22 9.66,19.23 9.66,19.24 9.65,19.27 9.64,19.29 9.63,19.31 9.63,19.32 A 5.1,5.1 0 0 1 7.77,21.34 C 6.96,21.85 6.07,22.1 5.1,22.1 4.18,22.1 3.33,21.87 2.55,21.42 1.77,20.96 1.15,20.35 0.69,19.56 0.23,18.77 0,17.96 0,17.04 m 1.2,0 c 0,1.08 0.38,1.99 1.14,2.75 0.76,0.76 1.68,1.14 2.75,1.14 0.82,0 1.56,-0.24 2.22,-0.71 0.66,-0.47 1.13,-1.09 1.41,-1.84 0.17,-0.43 0.25,-0.87 0.25,-1.34 0,-1.07 -0.38,-1.99 -1.13,-2.75 -0.76,-0.76 -1.67,-1.13 -2.75,-1.13 -1,0 -1.87,0.33 -2.6,1 -0.41,0.36 -0.72,0.78 -0.95,1.28 -0.23,0.51 -0.34,1.04 -0.34,1.6" id="path1" fill="currentColor"/>
</svg>
