<?xml version="1.0" encoding="UTF-8" standalone="no"?>
<svg xmlns="http://www.w3.org/2000/svg" xmlns:svg="http://www.w3.org/2000/svg" xml:space="preserve" viewBox="0 0 21.530001 21.629999" version="1.1" id="svg1" width="21.530001" height="21.629999" fill="currentColor">
  <defs id="defs1" fill="currentColor"/>
  <path d="M 0,10.58 V 10.56 Q 0,8.82 1.08,7.47 C 2.16,6.12 2.72,5.98 3.82,5.73 4.13,4.36 4.83,3.24 5.92,2.36 7.01,1.48 8.27,1.04 9.69,1.04 c 0.99,0 1.9,0.22 2.72,0.66 C 12.91,1.17 13.5,0.75 14.17,0.45 14.84,0.15 15.54,0 16.26,0 c 0.95,0 1.83,0.24 2.64,0.71 q 1.215,0.705 1.92,1.92 c 0.705,1.215 0.71,1.69 0.71,2.64 0,1.23 -0.38,2.33 -1.14,3.29 0.29,0.61 0.43,1.28 0.43,2.02 0,0.88 -0.21,1.7 -0.64,2.45 -0.42,0.75 -1,1.36 -1.74,1.81 -0.73,0.45 -1.54,0.69 -2.42,0.72 -0.13,0 -0.2,-0.06 -0.2,-0.17 v -1.34 c 0,-0.12 0.07,-0.18 0.2,-0.18 0.86,-0.04 1.58,-0.39 2.18,-1.03 0.6,-0.64 0.9,-1.4 0.9,-2.26 0,-0.89 -0.32,-1.65 -0.97,-2.29 A 3.15,3.15 0 0 0 15.82,7.33 h -1.61 q -0.18,0 -0.18,-0.18 L 13.95,6.56 C 13.84,5.48 13.37,4.57 12.55,3.84 11.73,3.11 10.77,2.74 9.69,2.74 8.59,2.74 7.64,3.11 6.83,3.84 6.02,4.57 5.56,5.48 5.46,6.56 L 5.38,7.15 C 5.35,7.24 5.27,7.29 5.16,7.29 L 4.65,7.33 C 3.81,7.43 3.1,7.78 2.54,8.39 1.98,9 1.7,9.73 1.7,10.57 v 0.04 c 0.01,0.01 0.02,0.02 0.03,0.02 q 0.015,1.275 0.9,2.22 c 0.28,0.29 0.59,0.52 0.92,0.67 v 0.02 c 0.38,0.19 0.79,0.31 1.24,0.34 0.11,0 0.17,0.06 0.17,0.17 v 1.34 C 4.96,15.5 4.9,15.56 4.79,15.56 4.3,15.54 3.82,15.44 3.36,15.27 2.6,15 1.94,14.59 1.39,14.01 0.84,13.43 0.44,12.77 0.21,12.01 A 5,5 0 0 1 0,10.58 m 5.5,7.17 c 0,-0.03 0.01,-0.07 0.02,-0.13 0.01,-0.06 0.02,-0.1 0.02,-0.12 l 0.09,-0.58 c 0.07,-0.24 0.21,-0.42 0.41,-0.53 0.21,-0.12 0.43,-0.15 0.68,-0.08 0.23,0.07 0.39,0.21 0.51,0.41 0.11,0.21 0.13,0.42 0.07,0.63 l -0.14,0.6 c -0.1,0.44 -0.35,0.66 -0.76,0.66 -0.03,0 -0.08,0 -0.15,-0.01 C 6.18,18.59 6.14,18.59 6.12,18.59 A 0.76,0.76 0 0 1 5.66,18.26 0.95,0.95 0 0 1 5.5,17.75 M 6.24,14.8 c 0,-0.24 0.08,-0.43 0.23,-0.59 0.15,-0.16 0.35,-0.23 0.59,-0.23 0.24,0 0.43,0.08 0.59,0.23 0.16,0.15 0.23,0.35 0.23,0.59 0,0.23 -0.08,0.43 -0.23,0.58 -0.15,0.15 -0.35,0.23 -0.59,0.23 q -0.345,0 -0.57,-0.24 A 0.8,0.8 0 0 1 6.24,14.8 m 1.64,5.98 c 0,-0.04 0.01,-0.11 0.04,-0.23 l 0.13,-0.59 a 0.87,0.87 0 0 1 0.41,-0.51 c 0.21,-0.11 0.42,-0.13 0.63,-0.07 0.23,0.04 0.41,0.17 0.53,0.37 0.12,0.2 0.15,0.43 0.08,0.68 L 9.57,21.01 C 9.46,21.42 9.2,21.63 8.77,21.63 8.72,21.63 8.64,21.62 8.53,21.59 8.31,21.53 8.15,21.42 8.04,21.26 7.93,21.1 7.88,20.95 7.88,20.78 m 0.79,-2.91 c 0,-0.23 0.08,-0.42 0.23,-0.58 0.16,-0.15 0.35,-0.23 0.59,-0.23 0.24,0 0.43,0.08 0.59,0.23 0.16,0.15 0.23,0.35 0.23,0.58 0,0.24 -0.08,0.43 -0.23,0.59 -0.16,0.16 -0.35,0.23 -0.59,0.23 -0.23,0 -0.42,-0.08 -0.58,-0.24 A 0.79,0.79 0 0 1 8.67,17.87 M 9.29,15.6 c 0,-0.09 0.01,-0.18 0.03,-0.26 l 0.23,-0.9 c 0.07,-0.24 0.21,-0.42 0.41,-0.53 0.2,-0.11 0.42,-0.15 0.64,-0.08 0.24,0.07 0.41,0.2 0.53,0.4 0.12,0.2 0.14,0.41 0.07,0.63 l -0.26,0.9 c -0.08,0.27 -0.22,0.46 -0.41,0.56 -0.19,0.1 -0.41,0.12 -0.64,0.06 A 0.66,0.66 0 0 1 9.44,16.08 0.73,0.73 0 0 1 9.29,15.6 m 2.76,2.15 c 0,-0.03 0,-0.08 0.01,-0.14 0.01,-0.06 0.01,-0.1 0.01,-0.11 l 0.09,-0.58 c 0.07,-0.24 0.21,-0.42 0.41,-0.53 0.21,-0.12 0.43,-0.15 0.67,-0.08 0.23,0.07 0.4,0.21 0.51,0.41 0.12,0.21 0.14,0.42 0.07,0.63 l -0.14,0.6 c -0.1,0.44 -0.35,0.66 -0.76,0.66 -0.03,0 -0.08,0 -0.15,-0.01 -0.07,-0.01 -0.11,-0.01 -0.13,-0.01 q -0.3,-0.09 -0.45,-0.33 c -0.15,-0.24 -0.14,-0.34 -0.14,-0.51 m 0.74,-2.95 c 0,-0.24 0.08,-0.43 0.23,-0.59 0.15,-0.16 0.35,-0.23 0.59,-0.23 0.24,0 0.43,0.08 0.59,0.23 0.16,0.16 0.23,0.35 0.23,0.59 a 0.784,0.784 0 0 1 -0.82,0.81 c -0.24,0 -0.43,-0.08 -0.58,-0.24 A 0.79,0.79 0 0 1 12.79,14.8 M 13.83,2.69 c 0.84,0.76 1.4,1.74 1.7,2.93 h 0.31 c 1.38,0 2.55,0.48 3.52,1.44 0.31,-0.55 0.47,-1.15 0.47,-1.81 0,-0.98 -0.35,-1.81 -1.04,-2.5 A 3.46,3.46 0 0 0 16.28,1.72 C 15.31,1.73 14.5,2.05 13.83,2.69" id="path1" fill="currentColor"/>
</svg>
