<?xml version="1.0" encoding="UTF-8" standalone="no"?>
<svg xmlns="http://www.w3.org/2000/svg" xmlns:svg="http://www.w3.org/2000/svg" xml:space="preserve" viewBox="0 0 25.139999 18.559999" version="1.1" id="svg1" width="25.139999" height="18.559999" fill="currentColor">
  <defs id="defs1" fill="currentColor"/>
  <path d="m 0,14.65 q 0,0.375 0.27,0.6 c 0.17,0.17 0.37,0.26 0.61,0.26 h 9.54 c 0.23,0 0.43,-0.08 0.59,-0.25 0.16,-0.17 0.24,-0.37 0.24,-0.61 0,-0.24 -0.08,-0.44 -0.24,-0.61 A 0.76,0.76 0 0 0 10.42,13.79 H 0.88 A 0.87,0.87 0 0 0 0.26,14.05 C 0.09,14.22 0,14.42 0,14.65 m 2.64,-3.03 c 0,0.23 0.09,0.42 0.27,0.58 q 0.24,0.24 0.6,0.24 h 9.55 c 0.24,0 0.43,-0.08 0.59,-0.23 0.16,-0.16 0.23,-0.35 0.23,-0.59 q 0,-0.36 -0.24,-0.6 A 0.76,0.76 0 0 0 13.05,10.77 H 3.51 c -0.24,0 -0.44,0.08 -0.61,0.25 a 0.8,0.8 0 0 0 -0.26,0.6 M 3.78,9.29 c 0,0.07 0.07,0.11 0.2,0.11 H 5.4 C 5.49,9.4 5.56,9.35 5.63,9.26 Q 5.96,8.45 6.68,7.91 c 0.47,-0.36 1,-0.56 1.58,-0.6 L 8.8,7.24 q 0.18,0 0.18,-0.18 L 9.05,6.55 C 9.16,5.47 9.62,4.56 10.43,3.83 11.24,3.1 12.2,2.73 13.3,2.73 c 1.1,0 2.06,0.36 2.87,1.09 0.81,0.72 1.28,1.63 1.39,2.73 l 0.08,0.57 c 0,0.12 0.06,0.19 0.17,0.19 h 1.62 c 0.91,0 1.69,0.32 2.33,0.95 0.64,0.63 0.96,1.39 0.96,2.29 0,0.89 -0.32,1.65 -0.96,2.29 -0.64,0.64 -1.42,0.96 -2.33,0.96 h -6.91 c -0.11,0 -0.17,0.06 -0.17,0.17 v 1.38 c 0,0.12 0.06,0.18 0.17,0.18 h 6.91 c 0.91,0 1.74,-0.22 2.51,-0.67 0.77,-0.44 1.37,-1.05 1.82,-1.81 0.45,-0.76 0.67,-1.59 0.67,-2.49 0,-0.71 -0.15,-1.37 -0.44,-2.01 0.77,-1.01 1.15,-2.1 1.15,-3.29 C 25.14,4.31 24.9,3.43 24.43,2.62 23.96,1.81 23.32,1.17 22.51,0.7 21.7,0.23 20.82,0 19.87,0 18.35,0 17.06,0.56 16.03,1.67 A 6.1,6.1 0 0 0 13.31,1.05 c -0.93,0 -1.81,0.2 -2.63,0.59 C 9.86,2.03 9.17,2.59 8.61,3.3 A 5.8,5.8 0 0 0 7.48,5.73 C 6.6,5.93 5.84,6.33 5.19,6.93 4.54,7.53 4.08,8.26 3.83,9.1 Z m 0.62,8.45 c 0,0.23 0.09,0.43 0.26,0.58 q 0.24,0.24 0.6,0.24 h 9.56 c 0.24,0 0.44,-0.08 0.6,-0.23 0.16,-0.15 0.25,-0.35 0.25,-0.59 0,-0.24 -0.08,-0.44 -0.25,-0.61 a 0.82,0.82 0 0 0 -0.6,-0.25 H 5.26 c -0.23,0 -0.43,0.09 -0.6,0.26 -0.17,0.17 -0.26,0.37 -0.26,0.6 m 13,-15.07 c 0.67,-0.65 1.5,-0.98 2.47,-0.98 0.99,0 1.83,0.35 2.52,1.04 0.69,0.69 1.04,1.53 1.04,2.52 0,0.63 -0.16,1.22 -0.49,1.77 C 21.96,6.06 20.79,5.59 19.42,5.59 H 19.1 C 18.87,4.49 18.3,3.52 17.4,2.67" id="path1" fill="currentColor"/>
</svg>
