<?xml version="1.0" encoding="UTF-8" standalone="no"?>
<svg xmlns="http://www.w3.org/2000/svg" xmlns:svg="http://www.w3.org/2000/svg" xml:space="preserve" viewBox="0 0 21.820269 22.200001" version="1.1" id="svg1" width="21.820269" height="22.200001" fill="currentColor">
  <defs id="defs1" fill="currentColor"/>
  <path d="m 2.6867793e-4,11.59 c 0,1.11 0.33000000207,2.1 0.99000000207,2.98 0.66000002,0.88 1.52000002,1.47 2.58000002,1.79 l -0.66,1.69 q -0.045,0.21 0.15,0.21 h 2.12 l -0.97,3.51 h 0.29 l 3.91,-4.94 c 0.04,-0.05 0.04,-0.1 0.01,-0.15 -0.03,-0.05 -0.08,-0.07 -0.15,-0.07 h -2.18 l 2.48,-4.63 c 0.07,-0.14 0.03,-0.22 -0.13,-0.22 h -2.96 c -0.09,0 -0.16,0.05 -0.23,0.14 l -1.07,2.88 c -0.72,-0.18 -1.31,-0.57 -1.78,-1.17 -0.47,-0.6 -0.7,-1.27 -0.7,-2.01 0,-0.83 0.28,-1.55 0.85,-2.17 0.57,-0.62 1.27,-0.97 2.1,-1.07 l 0.52,-0.08 c 0.13,0 0.2,-0.06 0.2,-0.17 l 0.07,-0.52 c 0.11,-1.08 0.56,-1.99 1.37,-2.72 0.81,-0.73 1.76,-1.1 2.85,-1.1 1.0800003,0 2.0300003,0.37 2.8500003,1.1 0.82,0.73 1.29,1.64 1.41,2.71 l 0.07,0.59 c 0,0.11 0.06,0.17 0.18,0.17 h 1.62 c 0.91,0 1.68,0.32 2.33,0.95 0.65,0.63 0.97,1.4 0.97,2.29 0,0.85 -0.3,1.59 -0.9,2.21 -0.6,0.62 -1.33,0.97 -2.2,1.04 -0.12,0 -0.19,0.06 -0.19,0.17 v 1.38 c 0,0.12 0.06,0.18 0.19,0.18 0.88,-0.03 1.68,-0.27 2.41,-0.72 0.73,-0.45 1.31,-1.05 1.73,-1.8 0.42,-0.75 0.63,-1.57 0.63,-2.45 0,-0.87 -0.22,-1.68 -0.66,-2.45 0.79,-0.76 1.31,-1.63 1.56,-2.62 l 0.14,-0.72 c 0.01,-0.01 0.02,-0.04 0.02,-0.07 0,-0.07 -0.05,-0.12 -0.16,-0.15 l -0.56,-0.18 c -0.57,-0.16 -1.06,-0.44 -1.46,-0.82 a 3.4,3.4 0 0 1 -0.87,-1.23 c -0.17,-0.44 -0.26,-0.88 -0.26,-1.32 0,-0.26 0.03,-0.53 0.08,-0.8 l 0.14,-0.61 c 0.04,-0.1 0,-0.18 -0.14,-0.23 -0.21,-0.09 -0.51,-0.17 -0.9,-0.26 -0.39,-0.09 -0.77,-0.13 -1.15,-0.13 -0.36,0 -0.73,0.04 -1.12,0.13 -0.38,0.09 -0.78,0.22 -1.19,0.41 -0.41,0.18 -0.81,0.45 -1.2,0.8 -0.39,0.35 -0.72,0.75 -1,1.22 -0.82,-0.3 -1.62,-0.45 -2.3800003,-0.45 -1.41,0 -2.67,0.44 -3.76,1.31 -1.09,0.87 -1.8,1.99 -2.11,3.36 -1.11,0.26 -2.02,0.84 -2.74,1.74 A 4.9,4.9 0 0 0 2.6867793e-4,11.59 M 8.1002687,21.41 c 0,0.16 0.05,0.32 0.15,0.46 q 0.15,0.225 0.45,0.3 0.165,0.03 0.3,0.03 c 0.41,0 0.66,-0.21 0.76,-0.63 l 2.3200003,-8.79 c 0.06,-0.24 0.04,-0.45 -0.07,-0.65 a 0.79,0.79 0 0 0 -0.5,-0.39 0.81,0.81 0 0 0 -0.65,0.06 c -0.2,0.11 -0.34,0.27 -0.4,0.49 l -2.3200003,8.84 c -0.03,0.1 -0.04,0.19 -0.04,0.28 m 4.1700003,-3.02 c 0,0.16 0.05,0.32 0.15,0.46 0.1,0.14 0.25,0.25 0.46,0.31 0.03,0 0.08,0 0.15,0.01 0.07,0.01 0.13,0.01 0.16,0.01 q 0.57,0 0.72,-0.63 l 1.5,-5.77 c 0.06,-0.24 0.04,-0.46 -0.08,-0.66 a 0.8,0.8 0 0 0 -0.51,-0.38 0.81,0.81 0 0 0 -0.65,0.06 c -0.2,0.11 -0.33,0.27 -0.39,0.5 l -1.5,5.82 c 0,0.1 -0.01,0.19 -0.01,0.27 m 1.24,-14.93 c 0.33,-0.57 0.77,-1 1.33,-1.3 0.55,-0.3 1.14,-0.45 1.76,-0.45 0.12,0 0.22,0 0.27,0.01 v 0.32 q 0,1.44 0.78,2.73 c 0.78,1.29 1.25,1.51 2.17,1.97 -0.18,0.42 -0.44,0.77 -0.79,1.07 -0.92,-0.79 -1.99,-1.18 -3.22,-1.18 h -0.32 c -0.28,-1.26 -0.94,-2.31 -1.98,-3.17" id="path1" fill="currentColor"/>
</svg>
