<?xml version="1.0" encoding="UTF-8" standalone="no"?>
<svg xmlns="http://www.w3.org/2000/svg" xmlns:svg="http://www.w3.org/2000/svg" xml:space="preserve" viewBox="0 0 21.870001 22.32" version="1.1" id="svg1" width="21.870001" height="22.32" fill="currentColor">
  <defs id="defs1" fill="currentColor"/>
  <path d="m 0,11.56 c 0,1.33 0.46,2.48 1.39,3.43 0.93,0.95 2.06,1.47 3.4,1.53 0.11,0 0.17,-0.06 0.17,-0.17 V 14.98 C 4.96,14.86 4.9,14.8 4.79,14.8 3.92,14.73 3.19,14.39 2.6,13.76 2.01,13.14 1.71,12.4 1.71,11.55 1.71,10.72 1.99,10.01 2.55,9.39 3.11,8.77 3.81,8.42 4.65,8.32 L 5.18,8.25 c 0.13,0 0.2,-0.06 0.2,-0.17 L 5.45,7.56 C 5.56,6.48 6.01,5.57 6.82,4.85 7.63,4.12 8.58,3.76 9.67,3.76 c 1.09,0 2.04,0.36 2.85,1.09 0.81,0.72 1.28,1.63 1.39,2.72 l 0.08,0.58 q 0,0.18 0.18,0.18 h 1.61 c 0.9,0 1.67,0.32 2.32,0.95 0.64,0.63 0.97,1.39 0.97,2.28 0,0.85 -0.3,1.59 -0.89,2.21 -0.59,0.62 -1.33,0.97 -2.19,1.04 -0.13,0 -0.2,0.06 -0.2,0.18 v 1.37 c 0,0.11 0.07,0.17 0.2,0.17 1.33,-0.04 2.46,-0.55 3.38,-1.51 q 1.38,-1.44 1.38,-3.45 c 0,-0.87 -0.22,-1.68 -0.65,-2.43 0.81,-0.73 1.34,-1.6 1.58,-2.62 V 6.39 L 21.87,5.6 21.11,5.39 C 20.3,5.15 19.67,4.69 19.22,4.04 18.77,3.38 18.55,2.7 18.55,2.01 c 0,-0.26 0.03,-0.52 0.08,-0.78 L 18.83,0.43 17.98,0.18 17.83,0.14 A 6.7,6.7 0 0 0 16.58,0 c -0.38,0 -0.76,0.04 -1.14,0.13 -0.39,0.09 -0.79,0.22 -1.2,0.41 -0.42,0.19 -0.82,0.45 -1.2,0.8 -0.38,0.35 -0.72,0.76 -1,1.23 C 11.3,2.24 10.51,2.08 9.68,2.08 8.27,2.08 7.02,2.52 5.93,3.39 4.84,4.26 4.16,5.38 3.86,6.75 2.74,7.01 1.81,7.58 1.09,8.47 0.36,9.38 0,10.41 0,11.56 m 5.4,6.77 q 0,0.225 0.15,0.45 0.15,0.225 0.45,0.33 c 0.22,0.07 0.43,0.06 0.64,-0.05 0.21,-0.11 0.34,-0.28 0.41,-0.51 L 7.33,17.49 C 7.4,17.28 7.38,17.08 7.26,16.87 A 0.86,0.86 0 0 0 6.75,16.46 C 6.52,16.4 6.3,16.43 6.1,16.54 5.9,16.65 5.76,16.84 5.68,17.07 L 5.45,18.06 C 5.42,18.22 5.4,18.31 5.4,18.33 M 6.7,13.6 c 0,0.11 0.03,0.23 0.1,0.36 0.07,0.17 0.25,0.3 0.53,0.38 q 0.36,0.09 0.66,-0.06 C 8.18,14.18 8.32,14 8.39,13.76 L 8.67,12.73 C 8.74,12.5 8.72,12.28 8.6,12.09 A 0.83,0.83 0 0 0 8.09,11.7 0.9,0.9 0 0 0 7.42,11.77 0.82,0.82 0 0 0 7.02,12.29 L 6.75,13.3 C 6.72,13.43 6.7,13.53 6.7,13.6 m 1.25,7.85 c 0,0.17 0.05,0.33 0.15,0.49 q 0.15,0.24 0.45,0.33 c 0.11,0.03 0.18,0.05 0.23,0.05 0.09,0 0.21,-0.03 0.38,-0.1 0.2,-0.08 0.34,-0.27 0.43,-0.55 l 0.3,-1.05 C 9.96,20.41 9.94,20.2 9.82,19.99 A 0.861,0.861 0 0 0 8.64,19.66 C 8.44,19.78 8.3,19.95 8.23,20.19 L 7.98,21.2 c -0.02,0.08 -0.03,0.17 -0.03,0.25 m 1.33,-4.77 q 0,0.225 0.15,0.45 c 0.15,0.225 0.25,0.26 0.46,0.33 0.22,0.07 0.44,0.05 0.64,-0.06 0.2,-0.11 0.33,-0.28 0.4,-0.52 l 0.27,-1.04 c 0.07,-0.21 0.05,-0.42 -0.06,-0.62 A 0.83,0.83 0 0 0 10.65,14.81 C 10.41,14.75 10.18,14.78 9.97,14.89 9.76,15 9.62,15.19 9.55,15.42 l -0.24,1 z m 2.81,1.76 c 0,0.38 0.21,0.62 0.64,0.75 q 0.135,0.03 0.24,0.03 c 0.15,0 0.27,-0.02 0.37,-0.07 0.21,-0.08 0.36,-0.27 0.44,-0.57 l 0.27,-1.02 c 0.06,-0.25 0.04,-0.47 -0.08,-0.67 -0.12,-0.2 -0.29,-0.32 -0.53,-0.37 -0.23,-0.07 -0.45,-0.05 -0.64,0.07 -0.19,0.12 -0.33,0.29 -0.4,0.51 l -0.27,1.04 c 0,0.02 -0.01,0.07 -0.02,0.15 -0.02,0.07 -0.02,0.12 -0.02,0.15 m 1.39,-4.81 a 0.822,0.822 0 0 0 0.61,0.78 c 0.14,0.03 0.22,0.05 0.23,0.05 0.09,0 0.21,-0.03 0.38,-0.1 0.21,-0.08 0.35,-0.27 0.44,-0.55 l 0.28,-1.04 c 0.06,-0.22 0.03,-0.43 -0.08,-0.63 -0.11,-0.2 -0.3,-0.33 -0.53,-0.4 -0.22,-0.07 -0.43,-0.05 -0.63,0.07 -0.2,0.12 -0.33,0.29 -0.4,0.52 l -0.26,1.06 c -0.03,0.09 -0.04,0.18 -0.04,0.24 M 13.51,3.46 c 0.32,-0.56 0.76,-1 1.33,-1.31 a 3.7,3.7 0 0 1 1.81,-0.47 h 0.21 c -0.01,0.09 -0.01,0.21 -0.01,0.38 0,0.95 0.26,1.85 0.78,2.71 0.52,0.86 1.25,1.51 2.17,1.96 -0.22,0.43 -0.48,0.8 -0.78,1.1 C 18.09,7.02 17,6.62 15.77,6.62 H 15.45 C 15.2,5.43 14.56,4.38 13.51,3.46" id="path1" fill="currentColor"/>
</svg>
