<?xml version="1.0" encoding="UTF-8" standalone="no"?>
<svg xmlns="http://www.w3.org/2000/svg" xmlns:svg="http://www.w3.org/2000/svg" xml:space="preserve" viewBox="0 0 21.77 20.579521" version="1.1" id="svg1" width="21.77" height="20.579521" fill="currentColor">
  <defs id="defs1" fill="currentColor"/>
  <path d="m 0,11.569521 c 0,1.33 0.46,2.48 1.39,3.43 0.93,0.95 2.06,1.47 3.4,1.53 0.11,0 0.17,-0.06 0.17,-0.17 v -1.37 c 0,-0.12 -0.06,-0.18 -0.17,-0.18 -0.87,-0.07 -1.6,-0.41 -2.19,-1.04 -0.59,-0.62 -0.89,-1.36 -0.89,-2.21 0,-0.84 0.28,-1.5699996 0.85,-2.1899996 0.57,-0.62 1.26,-0.97 2.1,-1.04 l 0.53,-0.07 c 0.13,0 0.2,-0.06 0.2,-0.17 l 0.07,-0.52 c 0.11,-1.08 0.56,-1.99 1.37,-2.71 0.81,-0.73 1.76,-1.09 2.85,-1.09 1.09,0 2.04,0.36 2.85,1.09 0.81,0.72 1.27,1.63 1.39,2.72 l 0.07,0.58 q 0,0.18 0.18,0.18 h 1.61 c 0.91,0 1.68,0.32 2.32,0.95 q 0.96,0.9449996 0.96,2.2799996 c 0,0.85 -0.3,1.59 -0.89,2.21 -0.59,0.62 -1.32,0.97 -2.19,1.04 -0.13,0 -0.2,0.06 -0.2,0.18 v 1.37 c 0,0.11 0.07,0.17 0.2,0.17 1.33,-0.04 2.46,-0.55 3.38,-1.51 0.92,-0.96 1.38,-2.11 1.38,-3.45 0,-0.89 -0.23,-1.7199996 -0.68,-2.4799996 0.8,-0.72 1.32,-1.58 1.55,-2.58 l 0.15,-0.72 c 0.01,-0.01 0.01,-0.03 0.01,-0.07 0,-0.07 -0.05,-0.13 -0.16,-0.16 l -0.58,-0.17 c -0.57,-0.16 -1.05,-0.44 -1.45,-0.82 -0.4,-0.39 -0.68,-0.8 -0.85,-1.23 a 3.56,3.56 0 0 1 -0.16,-2.11 l 0.14,-0.62000003 c 0.03,-0.09 -0.02,-0.17 -0.14,-0.22 l -0.79,-0.24 a 4.944,4.944 0 0 0 -2.37,-0.03 c -0.38,0.09 -0.78,0.22 -1.19,0.41 -0.41,0.18 -0.81,0.45 -1.2,0.80000003 -0.39,0.35 -0.72,0.75 -1,1.22 -0.71,-0.3 -1.48,-0.45 -2.33,-0.45 -1.41,0 -2.66,0.44 -3.75,1.31 a 5.83,5.83 0 0 0 -2.1,3.35 q -1.65,0.39 -2.73,1.74 C 0.36,9.3995214 0,10.419521 0,11.569521 m 7.67,4.65 c -0.05,0.14 0,0.22 0.14,0.22 h 2.16 l -1.31,4.14 h 0.3 l 4.17,-5.59 c 0.04,-0.04 0.05,-0.09 0.03,-0.14 -0.02,-0.05 -0.06,-0.07 -0.13,-0.07 h -2.2 l 2.31,-4.21 c 0.07,-0.14 0.02,-0.22 -0.14,-0.22 h -2.94 c -0.08,0 -0.15,0.05 -0.22,0.14 z M 13.48,3.4695214 c 0.33,-0.57 0.77,-1 1.33,-1.3 0.55,-0.3 1.13,-0.45 1.72,-0.45 0.13,0 0.22,0.01 0.27,0.02 v 0.31 q 0,1.44 0.78,2.73 a 5.03,5.03 0 0 0 2.17,1.96 c -0.16,0.37 -0.41,0.73 -0.75,1.07 -0.92,-0.79 -1.99,-1.18 -3.22,-1.18 h -0.32 c -0.29,-1.26 -0.95,-2.31 -1.98,-3.16" id="path1" fill="currentColor"/>
</svg>
