<?xml version="1.0" encoding="UTF-8" standalone="no"?>
<svg xmlns="http://www.w3.org/2000/svg" xmlns:svg="http://www.w3.org/2000/svg" xml:space="preserve" viewBox="0 0 21.82 22.18" version="1.1" id="svg1" width="21.82" height="22.18" fill="currentColor">
  <defs id="defs1" fill="currentColor"/>
  <path d="m 0,11.57 c 0,1.33 0.46,2.48 1.39,3.43 0.93,0.95 2.06,1.47 3.4,1.53 0.12,0 0.18,-0.06 0.18,-0.17 V 15.02 C 4.97,14.91 4.91,14.85 4.79,14.85 3.93,14.81 3.21,14.47 2.61,13.83 2.01,13.19 1.71,12.44 1.71,11.57 1.71,10.74 1.99,10.02 2.55,9.4 3.11,8.79 3.81,8.43 4.65,8.33 L 5.18,8.3 c 0.13,0 0.2,-0.06 0.2,-0.18 L 5.45,7.58 C 5.56,6.5 6.01,5.59 6.82,4.86 7.63,4.13 8.58,3.76 9.67,3.76 c 1.08,0 2.03,0.37 2.85,1.1 0.82,0.73 1.28,1.64 1.4,2.72 L 14,8.16 c 0,0.11 0.06,0.17 0.17,0.17 h 1.61 q 1.335,0 2.31,0.96 c 0.65,0.64 0.98,1.4 0.98,2.27 0,0.87 -0.3,1.62 -0.9,2.26 -0.6,0.64 -1.33,0.98 -2.18,1.02 -0.13,0 -0.2,0.06 -0.2,0.17 v 1.34 c 0,0.11 0.07,0.17 0.2,0.17 1.33,-0.04 2.46,-0.55 3.38,-1.51 0.93,-0.96 1.39,-2.11 1.39,-3.45 0,-0.86 -0.22,-1.66 -0.65,-2.41 0.79,-0.74 1.3,-1.62 1.55,-2.62 l 0.13,-0.68 c 0.02,-0.01 0.03,-0.03 0.03,-0.07 0,-0.07 -0.05,-0.13 -0.16,-0.16 L 21.1,5.45 C 20.53,5.28 20.05,5 19.64,4.6 19.24,4.2 18.95,3.79 18.78,3.35 18.61,2.92 18.53,2.48 18.53,2.03 18.52,1.79 18.55,1.52 18.61,1.24 L 18.75,0.66 C 18.78,0.57 18.73,0.5 18.61,0.44 L 17.81,0.19 C 17.39,0.07 16.95,0 16.5,0 c -0.35,0 -0.71,0.04 -1.08,0.13 -0.37,0.09 -0.76,0.22 -1.17,0.4 -0.41,0.18 -0.8,0.45 -1.19,0.8 -0.38,0.35 -0.72,0.75 -1,1.22 C 11.31,2.23 10.52,2.06 9.69,2.06 8.28,2.06 7.02,2.5 5.93,3.37 4.84,4.24 4.14,5.36 3.83,6.73 2.72,6.99 1.81,7.56 1.09,8.46 0.37,9.36 0,10.42 0,11.57 m 5.48,7.03 c 0.09,0.21 0.24,0.36 0.46,0.45 0.19,0.1 0.4,0.11 0.62,0.02 Q 6.89,18.95 7.01,18.62 C 7.11,18.4 7.12,18.19 7.03,17.97 A 0.73,0.73 0 0 0 6.58,17.53 0.71,0.71 0 0 0 5.96,17.51 0.88,0.88 0 0 0 5.49,17.97 C 5.4,18.14 5.39,18.35 5.48,18.6 M 6.1,15.77 c 0,0.15 0.05,0.3 0.16,0.45 0.11,0.15 0.26,0.26 0.46,0.32 0.26,0.1 0.48,0.1 0.67,0 0.19,-0.1 0.32,-0.29 0.4,-0.57 L 8.67,12.76 C 8.74,12.51 8.71,12.29 8.59,12.09 8.47,11.89 8.29,11.77 8.05,11.72 a 0.74,0.74 0 0 0 -0.63,0.07 c -0.2,0.11 -0.33,0.28 -0.4,0.51 l -0.88,3.22 c 0,0.02 -0.01,0.06 -0.02,0.12 -0.01,0.05 -0.02,0.1 -0.02,0.13 m 1.87,5.6 c 0,0.12 0.02,0.22 0.06,0.29 q 0.135,0.33 0.45,0.45 c 0.09,0.05 0.2,0.07 0.33,0.07 q 0.09,0 0.3,-0.06 0.345,-0.12 0.48,-0.45 0.15,-0.33 0,-0.66 A 0.88,0.88 0 0 0 9.14,20.55 c -0.2,-0.09 -0.4,-0.09 -0.61,0 q -0.285,0.12 -0.42,0.36 c -0.1,0.17 -0.14,0.32 -0.14,0.46 m 0.74,-2.65 c 0,0.38 0.21,0.64 0.64,0.78 0.09,0.03 0.17,0.05 0.23,0.05 0.11,0 0.23,-0.03 0.35,-0.08 0.23,-0.08 0.39,-0.27 0.47,-0.57 l 1.65,-6.12 c 0.06,-0.24 0.04,-0.45 -0.07,-0.65 a 0.86,0.86 0 0 0 -0.5,-0.39 0.78,0.78 0 0 0 -0.65,0.07 c -0.2,0.11 -0.34,0.28 -0.4,0.51 l -1.68,6.17 a 0.7,0.7 0 0 0 -0.04,0.23 m 3.44,-0.42 c 0,0.13 0.02,0.23 0.07,0.31 0.08,0.2 0.23,0.35 0.44,0.44 0.12,0.05 0.23,0.08 0.35,0.08 q 0.09,0 0.3,-0.06 c 0.22,-0.09 0.37,-0.23 0.45,-0.44 q 0.12,-0.33 0,-0.63 a 0.84,0.84 0 0 0 -0.42,-0.45 0.78,0.78 0 0 0 -0.65,-0.02 c -0.22,0.08 -0.37,0.24 -0.47,0.46 a 0.57,0.57 0 0 0 -0.07,0.31 m 0.72,-2.56 c 0,0.16 0.05,0.32 0.15,0.46 0.1,0.14 0.25,0.25 0.45,0.31 q 0.255,0.03 0.27,0.03 c 0.41,0 0.66,-0.2 0.77,-0.61 l 0.87,-3.17 c 0.06,-0.24 0.04,-0.45 -0.07,-0.65 a 0.86,0.86 0 0 0 -0.5,-0.39 0.75,0.75 0 0 0 -0.64,0.07 c -0.2,0.11 -0.33,0.28 -0.4,0.51 l -0.87,3.17 q -0.03,0.135 -0.03,0.27 M 13.52,3.49 c 0.31,-0.57 0.75,-1.01 1.3,-1.31 0.55,-0.3 1.14,-0.45 1.76,-0.44 0.11,0 0.2,0.01 0.25,0.02 v 0.31 c 0,0.98 0.26,1.89 0.78,2.75 0.52,0.86 1.25,1.51 2.17,1.95 C 19.59,7.21 19.34,7.56 19.03,7.84 18.15,7.05 17.07,6.66 15.78,6.66 H 15.46 C 15.2,5.41 14.56,4.35 13.52,3.49" id="path1" fill="currentColor"/>
</svg>
