<?xml version="1.0" encoding="UTF-8" standalone="no"?>
<svg xmlns="http://www.w3.org/2000/svg" xmlns:svg="http://www.w3.org/2000/svg" xml:space="preserve" viewBox="0 0 21.40037 15.49" version="1.1" id="svg1" width="21.40037" height="15.49" fill="currentColor">
  <defs id="defs1" fill="currentColor"/>
  <path d="m 1.7345422e-4,10.54 c 0,0.89 0.21999999578,1.72 0.65999999578,2.48 0.44000005,0.76 1.03000005,1.36 1.79000005,1.8 0.76,0.44 1.58,0.67 2.48,0.67 H 15.740173 c 0.89,0 1.72,-0.22 2.48,-0.67 0.76,-0.45 1.36,-1.05 1.8,-1.8 0.44,-0.76 0.67,-1.59 0.67,-2.48 0,-0.64 -0.14,-1.3 -0.42,-2 0.76,-0.93 1.13,-2.03 1.13,-3.3 a 5.195,5.195 0 0 0 -2.59,-4.54 c -0.8,-0.47 -1.68,-0.7 -2.63,-0.7 q -2.235,0 -3.87,1.74 c -0.76,-0.43 -1.66,-0.65 -2.6899995,-0.65 -1.41,0 -2.65,0.43 -3.73,1.3 -1.08,0.87 -1.77,1.98 -2.08,3.35 -1.12,0.25 -2.03,0.82 -2.74,1.72 A 4.85,4.85 0 0 0 1.7345422e-4,10.54 m 1.71000004578,0 c 0,-0.83 0.28,-1.55 0.83,-2.16 0.56,-0.61 1.26,-0.96 2.1,-1.06 l 0.68,-0.03 0.07,-0.72 c 0.14,-1.08 0.61,-1.99 1.41,-2.71 0.8,-0.73 1.74,-1.09 2.81,-1.09 1.0899995,0 2.0499995,0.37 2.8599995,1.1 0.81,0.73 1.27,1.63 1.38,2.71 l 0.1,0.75 h 1.78 c 0.88,0 1.64,0.32 2.28,0.95 0.64,0.63 0.96,1.39 0.96,2.26 0,0.9 -0.32,1.67 -0.95,2.32 -0.63,0.65 -1.4,0.97 -2.28,0.97 H 4.9301735 c -0.87,0 -1.62,-0.32 -2.26,-0.97 -0.64,-0.66 -0.96,-1.43 -0.96,-2.32 M 13.740173,2.71 c 0.69,-0.66 1.5,-0.99 2.44,-0.99 0.99,0 1.83,0.34 2.52,1.03 0.69,0.68 1.04,1.52 1.04,2.51 0,0.62 -0.17,1.23 -0.52,1.84 -0.96,-0.97 -2.12,-1.45 -3.49,-1.45 h -0.31 q -0.405,-1.665 -1.68,-2.94" id="path1" fill="currentColor"/>
</svg>
