<?xml version="1.0" encoding="UTF-8" standalone="no"?>
<svg xmlns="http://www.w3.org/2000/svg" xmlns:svg="http://www.w3.org/2000/svg" xml:space="preserve" viewBox="0 0 22.85 20.030552" version="1.1" id="svg1" width="22.85" height="20.030552" fill="currentColor">
  <defs id="defs1" fill="currentColor"/>
  <path d="M 0,9.5 C 0,8.35 0.36,7.32 1.08,6.43 1.8,5.53 2.71,4.95 3.82,4.69 4.13,3.32 4.84,2.2 5.93,1.32 7.02,0.44 8.28,0 9.69,0 c 1.38,0 2.61,0.43 3.69,1.28 1.08,0.85 1.78,1.95 2.1,3.29 h 0.33 c 0.9,0 1.73,0.22 2.49,0.65 0.76,0.43 1.37,1.03 1.81,1.79 0.44,0.76 0.67,1.58 0.67,2.48 0,0.2 -0.01,0.4 -0.03,0.61 0.65,0.51 1.16,1.15 1.54,1.91 0.38,0.76 0.56,1.57 0.56,2.43 q 0,1.155 -0.45,2.19 c -0.3,0.69 -0.7,1.28 -1.2,1.78 -0.5,0.49 -1.1,0.89 -1.79,1.18 a 5.54,5.54 0 0 1 -4.33,0 C 14.39,19.3 13.8,18.9 13.3,18.4 12.8,17.9 12.41,17.31 12.11,16.62 11.81,15.93 11.66,15.21 11.66,14.46 H 4.8 C 3.46,14.4 2.33,13.89 1.4,12.93 0.47,11.99 0,10.84 0,9.5 m 1.71,0 c 0,0.87 0.3,1.62 0.9,2.26 0.6,0.64 1.33,0.98 2.19,1.03 h 11.19 c 0.86,-0.04 1.59,-0.39 2.19,-1.03 0.61,-0.64 0.91,-1.4 0.91,-2.26 0,-0.88 -0.33,-1.63 -0.98,-2.27 C 17.46,6.59 16.69,6.27 15.79,6.27 H 14.17 C 14.06,6.27 14,6.21 14,6.1 L 13.93,5.52 C 13.82,4.44 13.35,3.53 12.53,2.8 11.71,2.07 10.76,1.7 9.67,1.7 8.58,1.7 7.62,2.07 6.82,2.8 6.02,3.53 5.56,4.44 5.46,5.52 L 5.38,6.1 c 0,0.11 -0.07,0.17 -0.2,0.17 H 4.66 C 3.82,6.37 3.12,6.73 2.56,7.34 1.99,7.95 1.71,8.67 1.71,9.5 m 11.26,5.11 c 0.06,1.12 0.52,2.07 1.37,2.83 q 1.275,1.14 2.91,1.14 c 0.6,0 1.17,-0.12 1.7,-0.35 0.53,-0.23 0.98,-0.55 1.34,-0.93 0.36,-0.39 0.65,-0.83 0.85,-1.33 0.21,-0.5 0.31,-1 0.31,-1.52 q 0,-0.735 -0.3,-1.47 c -0.3,-0.735 -0.48,-0.94 -0.85,-1.35 -0.39,0.82 -0.97,1.5 -1.74,2.02 -0.77,0.52 -1.63,0.79 -2.57,0.83 h -3.03 c 0,0.01 0,0.04 0.01,0.13" id="path1" fill="currentColor"/>
</svg>
