<?xml version="1.0" encoding="UTF-8" standalone="no"?>
<svg xmlns="http://www.w3.org/2000/svg" xmlns:svg="http://www.w3.org/2000/svg" xml:space="preserve" viewBox="0 0 23.910059 19.17" version="1.1" id="svg1" width="23.910059" height="19.17" fill="currentColor">
  <defs id="defs1" fill="currentColor"/>
  <path d="m 5.8712794e-5,14.68 q 0,0.36 0.269999997206,0.6 c 0.18,0.18 0.38,0.27 0.61,0.27 H 6.7600587 c 0.26,0 0.49,0.09 0.69,0.28 0.2,0.19 0.3,0.42 0.3,0.68 0,0.26 -0.1,0.48 -0.3,0.68 -0.2,0.2 -0.43,0.3 -0.68,0.3 -0.25,0 -0.48,-0.1 -0.68,-0.3 -0.19,-0.17 -0.39,-0.26 -0.62,-0.26 -0.23,0 -0.43,0.08 -0.59,0.25 -0.16,0.17 -0.24,0.37 -0.24,0.61 0,0.24 0.08,0.44 0.24,0.6 0.52,0.52 1.15,0.78 1.88,0.78 0.74,0 1.38,-0.26 1.89,-0.77 0.52,-0.52 0.78,-1.14 0.78,-1.88 0,-0.74 -0.26,-1.38 -0.78,-1.9 -0.52,-0.52 -1.15,-0.79 -1.89,-0.79 H 0.88005871 a 0.86,0.86 0 0 0 -0.62,0.25 0.8,0.8 0 0 0 -0.259999997206,0.6 m 0,-3.01 c 0,0.23 0.08999999721,0.42 0.269999997206,0.58 0.15,0.16 0.35,0.24 0.61,0.24 H 11.870059 q 1.11,0 1.89,-0.78 c 0.52,-0.52 0.78,-1.15 0.78,-1.88 0,-0.73 -0.26,-1.36 -0.78,-1.88 -0.52,-0.52 -1.15,-0.77 -1.89,-0.77 q -1.14,0 -1.8900003,0.75 c -0.15,0.17 -0.23,0.38 -0.23,0.63 0,0.24 0.08,0.43 0.23,0.59 0.1500003,0.16 0.3500003,0.23 0.6000003,0.23 0.25,0 0.45,-0.07 0.61,-0.23 0.19,-0.19 0.42,-0.28 0.68,-0.28 0.26,0 0.48,0.09 0.68,0.28 0.19,0.19 0.29,0.42 0.29,0.68 0,0.26 -0.1,0.5 -0.29,0.69 -0.19,0.19 -0.42,0.29 -0.68,0.29 H 0.88005871 a 0.86,0.86 0 0 0 -0.62,0.25 c -0.18,0.18 -0.259999997206,0.38 -0.259999997206,0.61 M 2.6500587,9.33 c 0,0.08 0.06,0.12 0.17,0.12 h 1.43 c 0.08,0 0.15,-0.05 0.22,-0.14 0.23,-0.54 0.57,-0.99 1.05,-1.35 q 0.705,-0.54 1.59,-0.6 l 0.52,-0.07 c 0.12,0 0.19,-0.06 0.19,-0.19 l 0.07,-0.5 c 0.11,-1.08 0.57,-1.99 1.38,-2.71 C 10.080059,3.16 11.040059,2.8 12.130059,2.8 c 1.09,0 2.04,0.36 2.85,1.08 0.81,0.72 1.27,1.63 1.39,2.72 l 0.07,0.57 q 0,0.18 0.18,0.18 h 1.63 c 0.9,0 1.67,0.32 2.31,0.95 q 0.96,0.945 0.96,2.28 c 0,0.89 -0.32,1.66 -0.96,2.29 -0.64,0.63 -1.41,0.95 -2.31,0.95 h -6.91 c -0.11,0 -0.17,0.06 -0.17,0.18 v 1.37 c 0,0.12 0.06,0.18 0.17,0.18 h 6.91 c 0.89,0 1.72,-0.22 2.48,-0.67 0.76,-0.44 1.36,-1.05 1.8,-1.81 q 0.66,-1.14 0.66,-2.49 c 0,-0.74 -0.14,-1.42 -0.42,-2.02 q 1.14,-1.5 1.14,-3.33 0,-1.065 -0.42,-2.04 c -0.42,-0.975 -0.65,-1.2 -1.12,-1.67 -0.47,-0.47 -1.03,-0.84 -1.67,-1.11 -0.64,-0.27 -1.34,-0.41 -2.05,-0.41 -1.54,0 -2.84,0.58 -3.88,1.73 -0.78,-0.41 -1.67,-0.61 -2.65,-0.61 -1.41,0 -2.6600003,0.44 -3.7500003,1.31 -1.09,0.87 -1.77,1.99 -2.07,3.35 -0.85,0.2 -1.6,0.61 -2.26,1.23 -0.66,0.62 -1.11,1.35 -1.37,2.18 v 0.04 c -0.01,0.05 -0.02,0.09 -0.02,0.1 M 16.180059,2.7 c 0.72,-0.68 1.54,-1.02 2.48,-1.02 0.98,0 1.81,0.35 2.51,1.05 0.7,0.7 1.05,1.53 1.05,2.5 0,0.61 -0.17,1.22 -0.51,1.85 -0.96,-0.96 -2.11,-1.43 -3.47,-1.43 h -0.33 c -0.24,-1.07 -0.81,-2.06 -1.73,-2.95" id="path1" fill="currentColor"/>
</svg>
