<?xml version="1.0" encoding="UTF-8" standalone="no"?>
<svg xmlns="http://www.w3.org/2000/svg" xmlns:svg="http://www.w3.org/2000/svg" xml:space="preserve" viewBox="0 0 21.530001 21.65" version="1.1" id="svg1" width="21.530001" height="21.65" fill="currentColor">
  <defs id="defs1" fill="currentColor"/>
  <path d="m 0,10.58 c 0,1.12 0.33,2.12 1,3 0.67,0.88 1.53,1.47 2.58,1.76 l -0.66,1.7 c -0.05,0.14 0,0.22 0.14,0.22 H 5.19 L 3.76,21.47 H 4.05 L 8.41,15.81 C 8.45,15.77 8.45,15.72 8.43,15.67 8.41,15.62 8.36,15.6 8.29,15.6 H 6.1 L 8.59,10.95 C 8.66,10.81 8.62,10.73 8.45,10.73 H 5.49 c -0.09,0 -0.17,0.05 -0.23,0.15 L 4.19,13.76 C 3.47,13.58 2.88,13.2 2.41,12.6 1.94,12.01 1.71,11.34 1.71,10.58 1.71,9.74 1.99,9.01 2.55,8.4 3.11,7.79 3.81,7.43 4.66,7.33 L 5.17,7.3 C 5.29,7.3 5.36,7.25 5.39,7.16 L 5.46,6.57 C 5.57,5.49 6.02,4.58 6.83,3.85 7.64,3.12 8.59,2.75 9.69,2.75 c 1.09,0 2.04,0.37 2.86,1.1 0.82,0.73 1.29,1.64 1.4,2.72 l 0.08,0.59 c 0,0.11 0.06,0.17 0.18,0.17 h 1.61 q 1.335,0 2.31,0.96 c 0.975,0.96 0.97,1.4 0.97,2.29 0,0.87 -0.3,1.62 -0.9,2.26 -0.6,0.64 -1.32,0.98 -2.18,1.03 -0.13,0 -0.2,0.06 -0.2,0.18 v 1.34 c 0,0.11 0.07,0.17 0.2,0.17 0.88,-0.02 1.69,-0.26 2.42,-0.72 0.73,-0.45 1.31,-1.06 1.74,-1.81 0.43,-0.75 0.64,-1.57 0.64,-2.45 0,-0.73 -0.14,-1.4 -0.43,-2.02 0.76,-0.96 1.14,-2.06 1.14,-3.29 0,-0.95 -0.24,-1.83 -0.71,-2.64 A 5.2,5.2 0 0 0 18.9,0.71 C 18.09,0.24 17.21,0 16.26,0 q -1.08,0 -2.1,0.45 C 13.48,0.75 12.9,1.17 12.4,1.7 11.59,1.27 10.69,1.05 9.68,1.05 8.26,1.05 7,1.49 5.91,2.37 4.82,3.25 4.11,4.37 3.81,5.74 2.7,6 1.79,6.58 1.07,7.48 0.36,8.4 0,9.43 0,10.58 M 7.88,20.8 c 0,0.17 0.05,0.33 0.16,0.49 0.11,0.16 0.27,0.27 0.49,0.33 q 0.135,0.03 0.24,0.03 c 0.43,0 0.7,-0.2 0.8,-0.61 L 9.7,20.45 A 0.92,0.92 0 0 0 9.62,19.77 0.76,0.76 0 0 0 9.09,19.4 0.74,0.74 0 0 0 8.46,19.47 c -0.21,0.12 -0.34,0.29 -0.41,0.51 l -0.13,0.59 c -0.03,0.12 -0.04,0.2 -0.04,0.23 m 0.79,-2.9 c 0,0.23 0.08,0.42 0.24,0.58 0.16,0.16 0.36,0.24 0.58,0.24 0.24,0 0.43,-0.08 0.59,-0.23 0.16,-0.16 0.23,-0.35 0.23,-0.59 A 0.784,0.784 0 0 0 9.49,17.09 c -0.24,0 -0.43,0.08 -0.59,0.23 -0.16,0.15 -0.23,0.35 -0.23,0.58 m 0.62,-2.27 c -0.01,0.15 0.03,0.31 0.14,0.47 q 0.15,0.24 0.45,0.3 c 0.23,0.06 0.44,0.04 0.64,-0.06 0.2,-0.1 0.33,-0.29 0.41,-0.56 l 0.26,-0.9 c 0.07,-0.22 0.05,-0.43 -0.07,-0.63 a 0.87,0.87 0 0 0 -0.53,-0.4 c -0.22,-0.07 -0.43,-0.04 -0.64,0.08 -0.21,0.12 -0.34,0.3 -0.41,0.53 l -0.22,0.9 q -0.03,0.12 -0.03,0.27 m 2.76,2.15 q 0,0.255 0.15,0.48 c 0.1,0.15 0.25,0.26 0.46,0.32 0.03,0 0.08,0.01 0.14,0.02 0.06,0.01 0.11,0.02 0.14,0.02 0.41,0 0.66,-0.22 0.76,-0.66 l 0.14,-0.6 c 0.07,-0.21 0.05,-0.42 -0.07,-0.63 a 0.86,0.86 0 0 0 -0.51,-0.41 c -0.25,-0.06 -0.48,-0.04 -0.68,0.08 -0.2,0.12 -0.34,0.29 -0.41,0.53 l -0.09,0.59 c 0,0.01 0,0.05 -0.01,0.11 -0.01,0.07 -0.02,0.11 -0.02,0.15 m 0.74,-2.96 q 0,0.345 0.24,0.57 c 0.15,0.16 0.34,0.24 0.58,0.24 0.24,0 0.43,-0.08 0.59,-0.23 0.16,-0.16 0.23,-0.35 0.23,-0.58 0,-0.24 -0.08,-0.43 -0.23,-0.59 A 0.78,0.78 0 0 0 13.61,14 c -0.24,0 -0.43,0.08 -0.59,0.23 -0.16,0.15 -0.23,0.35 -0.23,0.59 m 1.04,-12.1 c 0.67,-0.64 1.48,-0.97 2.45,-0.97 0.98,0 1.82,0.34 2.51,1.03 0.69,0.68 1.04,1.52 1.04,2.5 0,0.66 -0.16,1.26 -0.47,1.81 C 18.4,6.13 17.23,5.65 15.84,5.65 H 15.53 C 15.23,4.46 14.66,3.48 13.83,2.72" id="path1" fill="currentColor"/>
</svg>
