<?xml version="1.0" encoding="UTF-8" standalone="no"?>
<svg xmlns="http://www.w3.org/2000/svg" xmlns:svg="http://www.w3.org/2000/svg" xml:space="preserve" viewBox="0 0 21.780001 21.559999" version="1.1" id="svg1" width="21.780001" height="21.559999" fill="currentColor">
  <defs id="defs1" fill="currentColor"/>
  <path d="m 0,10.72 c 0,1.13 0.33,2.13 1,3.01 0.67,0.88 1.54,1.48 2.62,1.8 0.1,0.01 0.18,-0.01 0.25,-0.08 L 5,13.99 q -1.335,0 -2.31,-0.96 C 1.715,12.07 1.72,11.62 1.72,10.72 1.72,9.86 2.01,9.11 2.58,8.48 3.15,7.85 3.87,7.5 4.72,7.43 L 5.24,7.36 C 5.35,7.36 5.4,7.31 5.4,7.22 L 5.47,6.66 Q 5.65,5.01 6.88,3.9 8.11,2.79 9.76,2.79 c 1.11,0 2.08,0.37 2.91,1.1 0.83,0.73 1.3,1.64 1.4,2.74 l 0.07,0.59 c 0.02,0.11 0.09,0.17 0.21,0.17 h 1.63 c 0.9,0 1.67,0.33 2.32,0.98 0.65,0.66 0.98,1.44 0.98,2.35 0,0.84 -0.28,1.58 -0.85,2.21 -0.57,0.63 -1.27,0.98 -2.1,1.06 -0.48,0 -0.78,0.09 -0.91,0.28 l -2.18,2.4 a 0.75,0.75 0 0 0 -0.19,0.62 c 0.03,0.23 0.13,0.45 0.31,0.63 0.13,0.17 0.33,0.25 0.59,0.23 0.26,-0.02 0.46,-0.15 0.6,-0.38 l 1.98,-2.07 c 0.82,-0.08 1.58,-0.35 2.28,-0.82 q 1.035,-0.705 1.65,-1.8 c 0.615,-1.095 0.6,-1.52 0.6,-2.36 0,-0.63 -0.14,-1.32 -0.43,-2.08 C 21.4,7.66 21.78,6.56 21.78,5.32 21.78,4.34 21.54,3.45 21.07,2.63 20.59,1.81 19.95,1.17 19.13,0.7 18.31,0.23 17.42,0 16.45,0 q -2.355,0 -3.9,1.71 C 11.68,1.28 10.76,1.06 9.78,1.06 8.35,1.06 7.08,1.5 5.99,2.39 4.9,3.28 4.19,4.42 3.88,5.82 2.74,6.08 1.81,6.66 1.09,7.57 0.37,8.48 0,9.53 0,10.72 m 3.8,7.5 c 0,0.14 0.02,0.25 0.05,0.32 0.08,0.21 0.23,0.36 0.44,0.44 0.23,0.1 0.45,0.11 0.68,0.02 0.23,-0.08 0.38,-0.24 0.45,-0.45 0.1,-0.22 0.11,-0.44 0.02,-0.67 a 0.75,0.75 0 0 0 -0.46,-0.46 0.94,0.94 0 0 0 -0.66,0 0.83,0.83 0 0 0 -0.47,0.45 C 3.82,17.95 3.8,18.07 3.8,18.22 m 1.84,-2.44 c 0,0.23 0.11,0.45 0.32,0.67 0.43,0.36 0.84,0.31 1.26,-0.15 L 9.41,13.86 C 9.56,13.69 9.62,13.48 9.59,13.25 A 0.86,0.86 0 0 0 9.28,12.68 0.82,0.82 0 0 0 8.65,12.52 c -0.24,0.03 -0.43,0.13 -0.59,0.29 l -2.2,2.38 C 5.71,15.4 5.64,15.6 5.64,15.78 m 0.64,4.93 c 0,0.12 0.03,0.23 0.08,0.32 0.09,0.23 0.22,0.38 0.41,0.46 0.12,0.05 0.24,0.07 0.37,0.07 0.07,0 0.18,-0.02 0.32,-0.06 A 0.78,0.78 0 0 0 7.9,21.05 C 8,20.85 8.01,20.64 7.92,20.41 A 0.71,0.71 0 0 0 7.47,19.95 0.77,0.77 0 0 0 6.81,19.92 C 6.6,20.01 6.43,20.17 6.32,20.4 6.3,20.5 6.28,20.6 6.28,20.71 m 1.67,-2.39 v 0.13 c 0.02,0.24 0.12,0.44 0.32,0.6 q 0.21,0.27 0.6,0.24 c 0.25,-0.02 0.45,-0.15 0.6,-0.38 L 13.69,14 c 0.16,-0.18 0.22,-0.39 0.2,-0.64 a 0.74,0.74 0 0 0 -0.35,-0.57 0.82,0.82 0 0 0 -0.6,-0.19 c -0.23,0.02 -0.42,0.12 -0.58,0.3 l -4.22,4.92 c -0.13,0.13 -0.19,0.29 -0.19,0.5 m 3.63,0.83 a 0.94,0.94 0 0 0 0,0.62 c 0.09,0.22 0.24,0.38 0.45,0.49 0.11,0.05 0.23,0.07 0.36,0.07 q 0.09,0 0.3,-0.06 a 0.75,0.75 0 0 0 0.46,-0.46 c 0.1,-0.23 0.11,-0.44 0.03,-0.66 a 0.74,0.74 0 0 0 -0.44,-0.44 0.77,0.77 0 0 0 -0.66,-0.03 c -0.22,0.09 -0.39,0.25 -0.5,0.47 m 2.4,-16.42 c 0.68,-0.68 1.51,-1.02 2.48,-1.02 1.01,0 1.86,0.35 2.56,1.05 0.7,0.7 1.05,1.56 1.05,2.56 0,0.62 -0.17,1.23 -0.52,1.82 C 18.58,6.16 17.39,5.68 16,5.68 H 15.69 C 15.44,4.54 14.87,3.56 13.98,2.73" id="path1" fill="currentColor"/>
</svg>
