<?xml version="1.0" encoding="UTF-8" standalone="no"?>
<svg xmlns="http://www.w3.org/2000/svg" xmlns:svg="http://www.w3.org/2000/svg" xml:space="preserve" viewBox="0 0 24.67 19.561852" version="1.1" id="svg1" width="24.67" height="19.561852" fill="currentColor">
  <defs id="defs1" fill="currentColor"/>
  <path d="m 0,15.651852 c 0,0.23 0.08,0.42 0.25,0.57 0.17,0.16 0.38,0.23 0.62,0.23 h 18.61 c 0.24,0 0.44,-0.08 0.6,-0.23 0.17,-0.16 0.25,-0.35 0.25,-0.57 0,-0.24 -0.08,-0.45 -0.24,-0.61 a 0.8,0.8 0 0 0 -0.61,-0.25 H 0.87 c -0.24,0 -0.44,0.08 -0.61,0.25 -0.17,0.17 -0.26,0.38 -0.26,0.61 m 2.61,-3.11 c 0,0.24 0.09,0.43 0.26,0.59 0.14,0.18 0.33,0.27 0.59,0.27 h 18.61 c 0.23,0 0.42,-0.08 0.58,-0.25 0.16,-0.17 0.23,-0.37 0.23,-0.61 a 0.8,0.8 0 0 0 -0.23,-0.58 0.8,0.8 0 0 0 -0.58,-0.23 H 3.46 c -0.24,0 -0.44,0.08 -0.6,0.23 -0.17,0.16 -0.25,0.35 -0.25,0.58 m 0.15,-2.42 v -0.05 c -0.04,0.15 0,0.22 0.12,0.22 h 1.44 c 0.06,0 0.12,-0.05 0.19,-0.15 0.24,-0.5200002 0.59,-0.9400002 1.06,-1.2700002 0.47,-0.33 0.99,-0.52 1.55,-0.56 l 0.53,-0.08 c 0.12,0 0.19,-0.06 0.19,-0.18 l 0.06,-0.5 c 0.11,-1.08 0.56,-1.97 1.36,-2.7 0.8,-0.72 1.75,-1.08 2.84,-1.08 1.07,0 2.02,0.36 2.82,1.07 0.8,0.71 1.27,1.6 1.38,2.67 l 0.07,0.57 q 0,0.18 0.21,0.18 h 1.58 c 0.64,0 1.23,0.17 1.75,0.52 0.52,0.34 0.92,0.8 1.17,1.3600002 0.07,0.1 0.14,0.15 0.22,0.15 h 1.42 c 0.12,0 0.17,-0.07 0.15,-0.22 -0.22,-0.5600002 -0.37,-0.9100002 -0.46,-1.0600002 0.72,-0.65 1.23,-1.51 1.5,-2.57 l 0.17,-0.66 a 0.15,0.15 0 0 0 -0.01,-0.16 c -0.03,-0.04 -0.07,-0.07 -0.12,-0.07 l -0.62,-0.22 c -0.89,-0.26 -1.57,-0.78 -2.04,-1.58 -0.47,-0.8 -0.59,-1.65 -0.37,-2.56 l 0.13,-0.58000001 c 0.05,-0.09 0.01,-0.17 -0.13,-0.23 l -0.84,-0.23 a 5.03,5.03 0 0 0 -3.22,0.26 5.2,5.2 0 0 0 -2.47,2.12000001 c -0.79,-0.31 -1.56,-0.46 -2.29,-0.46 -1.39,0 -2.62,0.44 -3.71,1.31 -1.09,0.87 -1.78,1.99 -2.1,3.35 -0.84,0.2 -1.58,0.6 -2.22,1.21 -0.64,0.61 -1.06,1.34 -1.31,2.1800002 m 1.58,8.58 c 0,0.24 0.09,0.43 0.26,0.59 0.17,0.18 0.37,0.27 0.59,0.27 h 18.65 c 0.23,0 0.43,-0.08 0.59,-0.25 0.16,-0.17 0.24,-0.37 0.24,-0.61 0,-0.23 -0.08,-0.42 -0.24,-0.58 -0.16,-0.16 -0.36,-0.23 -0.59,-0.23 H 5.2 c -0.24,0 -0.44,0.08 -0.6,0.23 -0.17,0.16 -0.26,0.35 -0.26,0.58 M 15.85,3.4318518 c 0.35,-0.57 0.82,-1.02 1.41,-1.33 0.59,-0.31 1.21,-0.44 1.87,-0.38 -0.07,1.04 0.17,2.02 0.7,2.93 0.54,0.91 1.28,1.58 2.22,2.02 -0.15,0.35 -0.4,0.71 -0.75,1.07 a 4.8,4.8 0 0 0 -3.14,-1.13 h -0.32 c -0.32,-1.31 -0.98,-2.37 -1.99,-3.18" id="path1" fill="currentColor"/>
</svg>
