<?xml version="1.0" encoding="UTF-8" standalone="no"?>
<svg xmlns="http://www.w3.org/2000/svg" xmlns:svg="http://www.w3.org/2000/svg" xml:space="preserve" viewBox="0 0 21.860001 22.669304" version="1.1" id="svg1" width="21.860001" height="22.669304" fill="currentColor">
  <defs id="defs1" fill="currentColor"/>
  <path d="m 0,11.639304 c 0,1.33 0.47,2.47 1.4,3.43 0.93,0.96 2.07,1.47 3.4,1.51 0.12,0 0.18,-0.06 0.18,-0.17 v -1.34 c 0,-0.11 -0.06,-0.17 -0.18,-0.17 -0.85,-0.04 -1.58,-0.39 -2.18,-1.03 -0.6,-0.64 -0.91,-1.39 -0.91,-2.23 0,-0.85 0.28,-1.59 0.85,-2.2100004 0.57,-0.62 1.27,-0.97 2.1,-1.04 l 0.53,-0.07 c 0.13,0 0.2,-0.06 0.2,-0.18 l 0.07,-0.51 c 0.11,-1.1 0.56,-2.02 1.37,-2.75 0.81,-0.73 1.76,-1.1 2.86,-1.1 1.09,0 2.04,0.37 2.86,1.1 0.82,0.73 1.29,1.64 1.4,2.72 l 0.07,0.57 c 0,0.12 0.06,0.19 0.17,0.19 h 1.62 c 0.91,0 1.68,0.32 2.33,0.97 0.65,0.64 0.97,1.4100004 0.97,2.3100004 0,0.55 -0.14,1.07 -0.41,1.56 -0.27,0.49 -0.65,0.89 -1.13,1.2 q -0.72,0.465 -1.56,0.51 c -0.13,0 -0.2,0.06 -0.2,0.17 v 1.34 c 0,0.11 0.07,0.17 0.2,0.17 0.88,-0.02 1.69,-0.26 2.42,-0.71 0.73,-0.45 1.31,-1.05 1.73,-1.8 q 0.63,-1.125 0.63,-2.43 c 0,-0.88 -0.23,-1.7200004 -0.68,-2.5100004 0.83,-0.74 1.36,-1.62 1.58,-2.62 l 0.14,-0.68 a 0.1,0.1 0 0 0 0.03,-0.07 c 0,-0.06 -0.06,-0.11 -0.17,-0.16 l -0.55,-0.18 c -0.57,-0.17 -1.07,-0.45 -1.47,-0.85 -0.41,-0.4 -0.7,-0.81 -0.87,-1.25 -0.17,-0.43 -0.26,-0.86 -0.26,-1.29 -0.02,-0.21 0.01,-0.49 0.09,-0.82 l 0.13,-0.57999998 c 0.04,-0.1 0,-0.18 -0.13,-0.23 l -0.8,-0.24 a 4.96,4.96 0 0 0 -2.41,-0.04 c -0.38,0.09 -0.78,0.22 -1.19,0.41 -0.41,0.19 -0.81,0.46 -1.2,0.80999998 -0.39,0.35 -0.72,0.76 -1,1.23 -0.81,-0.31 -1.6,-0.46 -2.35,-0.46 -1.41,0 -2.67,0.44 -3.76,1.32 -1.09,0.88 -1.8,2 -2.11,3.37 -1.12,0.29 -2.04,0.88 -2.75,1.77 C 0.35,9.4493036 0,10.479304 0,11.639304 m 5.41,7.05 c 0,0.17 0.05,0.34 0.16,0.51 0.11,0.17 0.27,0.28 0.47,0.35 0.23,0.07 0.44,0.06 0.64,-0.04 0.2,-0.1 0.32,-0.28 0.39,-0.56 l 0.14,-0.61 q 0.075,-0.345 -0.09,-0.63 a 0.82,0.82 0 0 0 -0.52,-0.4 c -0.23,-0.07 -0.44,-0.04 -0.64,0.08 -0.2,0.12 -0.34,0.3 -0.4,0.53 l -0.13,0.58 c -0.02,0.04 -0.02,0.1 -0.02,0.19 m 0.76,-2.9 c 0,0.21 0.08,0.4 0.25,0.57 0.16,0.17 0.34,0.25 0.56,0.25 q 0.36,0 0.6,-0.24 c 0.16,-0.16 0.24,-0.35 0.24,-0.59 0,-0.23 -0.08,-0.43 -0.24,-0.59 a 0.81,0.81 0 0 0 -0.6,-0.24 c -0.23,0 -0.43,0.08 -0.58,0.23 -0.15,0.15 -0.23,0.38 -0.23,0.61 m 0.61,-2.27 c -0.01,0.16 0.03,0.31 0.14,0.45 0.1,0.15 0.26,0.25 0.48,0.32 a 0.8,0.8 0 0 0 0.62,-0.07 c 0.21,-0.11 0.34,-0.28 0.41,-0.51 l 0.28,-0.9 c 0.07,-0.24 0.05,-0.46 -0.07,-0.65 a 0.9,0.9 0 0 0 -0.54,-0.39 0.74,0.74 0 0 0 -0.63,0.07 0.85,0.85 0 0 0 -0.41,0.5 l -0.24,0.92 c 0,0.02 -0.01,0.06 -0.02,0.12 -0.02,0.05 -0.02,0.1 -0.02,0.14 m 1.16,8.29 c 0,0.18 0.05,0.34 0.15,0.5 q 0.15,0.24 0.48,0.33 c 0.08,0.02 0.17,0.03 0.25,0.03 0.43,0 0.69,-0.2 0.79,-0.61 l 0.14,-0.59 c 0.06,-0.26 0.03,-0.48 -0.08,-0.68 -0.11,-0.2 -0.29,-0.32 -0.52,-0.37 a 0.74,0.74 0 0 0 -0.63,0.07 c -0.21,0.12 -0.34,0.29 -0.41,0.51 l -0.14,0.59 c -0.02,0.09 -0.03,0.16 -0.03,0.22 m 0.78,-2.9 c 0,0.22 0.08,0.41 0.25,0.58 q 0.24,0.24 0.57,0.24 c 0.24,0 0.43,-0.08 0.59,-0.23 0.16,-0.16 0.23,-0.35 0.23,-0.59 0,-0.23 -0.08,-0.42 -0.23,-0.58 -0.15,-0.16 -0.35,-0.23 -0.59,-0.23 -0.24,0 -0.43,0.08 -0.59,0.23 a 0.8,0.8 0 0 0 -0.23,0.58 m 0.63,-2.27 c -0.01,0.15 0.03,0.31 0.13,0.47 0.1,0.16 0.25,0.26 0.45,0.3 0.23,0.06 0.44,0.04 0.64,-0.06 0.19,-0.1 0.33,-0.29 0.41,-0.56 l 0.27,-0.9 c 0.07,-0.22 0.05,-0.43 -0.07,-0.63 a 0.87,0.87 0 0 0 -0.53,-0.4 c -0.22,-0.07 -0.43,-0.04 -0.64,0.08 -0.21,0.12 -0.34,0.3 -0.41,0.53 l -0.22,0.9 q -0.03,0.12 -0.03,0.27 m 2.75,2.15 q 0,0.24 0.15,0.48 c 0.15,0.24 0.26,0.27 0.46,0.33 0.03,0 0.08,0.01 0.14,0.02 0.06,0.01 0.1,0.02 0.14,0.02 0.41,0 0.66,-0.22 0.76,-0.66 l 0.14,-0.6 c 0.07,-0.21 0.05,-0.42 -0.07,-0.63 a 0.8,0.8 0 0 0 -0.51,-0.41 c -0.25,-0.06 -0.48,-0.04 -0.68,0.08 -0.2,0.12 -0.34,0.29 -0.41,0.53 l -0.09,0.59 c 0,0.02 -0.01,0.07 -0.02,0.12 0,0.05 -0.01,0.09 -0.01,0.13 m 0.74,-2.96 c 0,0.22 0.08,0.42 0.25,0.57 q 0.225,0.24 0.57,0.24 c 0.24,0 0.43,-0.08 0.59,-0.23 0.16,-0.15 0.23,-0.35 0.23,-0.58 0,-0.24 -0.08,-0.43 -0.23,-0.59 -0.15,-0.16 -0.35,-0.23 -0.59,-0.23 -0.24,0 -0.43,0.08 -0.59,0.23 -0.16,0.15 -0.23,0.35 -0.23,0.59 m 0.61,-2.31 c 0,0.17 0.05,0.33 0.16,0.48 0.11,0.15 0.27,0.26 0.49,0.32 0.02,0 0.06,0.01 0.12,0.02 0.06,0.01 0.11,0.02 0.14,0.02 q 0.15,0 0.36,-0.09 c 0.21,-0.11 0.35,-0.29 0.41,-0.52 l 0.24,-0.9 c 0.06,-0.23 0.04,-0.44 -0.08,-0.63 a 0.83,0.83 0 0 0 -0.51,-0.4 c -0.23,-0.07 -0.44,-0.05 -0.64,0.06 -0.2,0.11 -0.32,0.27 -0.39,0.51 l -0.28,0.91 c 0,0.02 -0.01,0.06 -0.02,0.12 0.01,0.03 0,0.07 0,0.1 M 13.52,3.4693036 c 0.32,-0.58 0.76,-1.02 1.31,-1.34 0.56,-0.32 1.13,-0.47 1.73,-0.46 q 0.135,0 0.3,0.03 v 0.31 c -0.01,0.98 0.25,1.9 0.77,2.76 0.53,0.86 1.27,1.5 2.22,1.94 -0.19,0.41 -0.46,0.78 -0.8,1.11 -0.92,-0.76 -2,-1.14 -3.23,-1.14 h -0.31 c -0.31,-1.31 -0.97,-2.38 -1.99,-3.21" id="path1" fill="currentColor"/>
</svg>
