<?xml version="1.0" encoding="UTF-8" standalone="no"?>
<svg xmlns="http://www.w3.org/2000/svg" xmlns:svg="http://www.w3.org/2000/svg" xml:space="preserve" viewBox="0 0 24.049999 20.18" version="1.1" id="svg1" width="24.049999" height="20.18" fill="currentColor">
  <defs id="defs1" fill="currentColor"/>
  <path d="m 0,15.69 q 0,0.345 0.27,0.6 c 0.17,0.17 0.37,0.25 0.61,0.25 h 5.74 c 0.26,0 0.49,0.1 0.69,0.29 0.2,0.19 0.3,0.42 0.3,0.68 q 0,0.405 -0.3,0.69 c -0.3,0.285 -0.43,0.29 -0.69,0.29 -0.26,0 -0.48,-0.1 -0.68,-0.3 A 0.9,0.9 0 0 0 5.33,17.95 q -0.36,0 -0.6,0.24 -0.24,0.24 -0.24,0.6 0,0.33 0.24,0.6 c 0.52,0.53 1.16,0.79 1.89,0.79 0.73,0 1.37,-0.26 1.89,-0.78 q 0.78,-0.78 0.78,-1.89 0,-1.11 -0.78,-1.89 C 7.73,14.84 7.36,14.83 6.62,14.83 H 0.88 A 0.87,0.87 0 0 0 0.26,15.09 C 0.09,15.26 0,15.46 0,15.69 m 0,-3.02 c 0,0.22 0.09,0.41 0.27,0.58 0.17,0.16 0.38,0.24 0.61,0.24 h 10.85 q 1.11,0 1.89,-0.78 C 14.14,12.19 14.4,11.56 14.4,10.83 14.4,10.09 14.14,9.47 13.62,8.95 13.1,8.43 12.47,8.18 11.73,8.18 10.97,8.18 10.34,8.43 9.84,8.94 9.69,9.1 9.61,9.3 9.61,9.55 c 0,0.25 0.08,0.45 0.23,0.6 0.15,0.15 0.35,0.23 0.59,0.23 0.24,0 0.44,-0.07 0.62,-0.23 0.19,-0.19 0.42,-0.28 0.68,-0.28 0.26,0 0.48,0.09 0.67,0.28 a 0.94,0.94 0 0 1 0,1.36 C 12.21,11.7 11.98,11.8 11.73,11.8 H 0.88 A 0.87,0.87 0 0 0 0.26,12.06 C 0.09,12.24 0,12.44 0,12.67 m 2.52,-2.35 c 0,0.09 0.05,0.13 0.16,0.13 h 1.44 c 0.08,0 0.15,-0.05 0.22,-0.15 Q 4.67,9.49 5.39,8.95 C 5.86,8.6 6.39,8.4 6.97,8.35 L 7.49,8.28 c 0.12,0 0.19,-0.06 0.19,-0.17 L 7.76,7.59 C 7.87,6.51 8.33,5.6 9.14,4.88 9.95,4.15 10.91,3.79 12,3.79 c 1.09,0 2.05,0.36 2.85,1.09 0.81,0.72 1.27,1.63 1.38,2.72 l 0.07,0.58 c 0,0.12 0.06,0.18 0.19,0.18 h 1.62 c 0.91,0 1.68,0.32 2.32,0.95 q 0.96,0.945 0.96,2.28 c 0,0.89 -0.32,1.65 -0.96,2.29 q -0.96,0.96 -2.31,0.96 h -6.91 c -0.11,0 -0.17,0.06 -0.17,0.18 v 1.37 c 0,0.11 0.06,0.17 0.17,0.17 h 6.91 c 0.89,0 1.72,-0.22 2.48,-0.67 0.76,-0.45 1.36,-1.05 1.8,-1.81 0.44,-0.76 0.67,-1.59 0.67,-2.48 0,-0.88 -0.23,-1.71 -0.68,-2.48 0.73,-0.71 1.23,-1.57 1.51,-2.58 L 24.02,5.85 A 0.1,0.1 0 0 0 24.05,5.78 C 24.05,5.74 24,5.68 23.91,5.62 L 23.31,5.41 C 22.47,5.15 21.83,4.7 21.39,4.05 20.95,3.4 20.73,2.73 20.73,2.03 c 0,-0.24 0.03,-0.51 0.09,-0.79 L 20.95,0.62 C 20.97,0.52 20.93,0.44 20.82,0.4 L 20.02,0.16 C 19.58,0.05 19.17,0 18.77,0 18.4,0 18.03,0.04 17.65,0.13 c -0.38,0.09 -0.77,0.22 -1.18,0.41 -0.4,0.18 -0.8,0.45 -1.18,0.8 -0.38,0.35 -0.72,0.75 -1,1.22 C 13.58,2.26 12.81,2.11 11.97,2.11 10.56,2.11 9.31,2.55 8.22,3.42 7.13,4.29 6.45,5.41 6.15,6.77 5.29,6.97 4.54,7.38 3.88,8 3.22,8.62 2.77,9.35 2.52,10.2 v 0.03 c 0.01,0.02 0,0.05 0,0.09 M 15.75,3.43 q 0.465,-0.825 1.29,-1.26 c 0.55,-0.29 1.12,-0.44 1.71,-0.44 0.14,0 0.24,0 0.31,0.01 -0.01,0.09 -0.02,0.21 -0.02,0.36 0,0.94 0.26,1.85 0.79,2.71 A 4.9,4.9 0 0 0 22,6.75 C 21.84,7.13 21.59,7.47 21.25,7.78 20.36,7.02 19.31,6.64 18.09,6.64 H 17.76 Q 17.37,4.75 15.75,3.43" id="path1" fill="currentColor"/>
</svg>
