<?xml version="1.0" encoding="UTF-8" standalone="no"?>
<svg xmlns="http://www.w3.org/2000/svg" xmlns:svg="http://www.w3.org/2000/svg" xml:space="preserve" viewBox="0 0 21.52 21.299999" version="1.1" id="svg1" width="21.52" height="21.299999" fill="currentColor">
  <defs id="defs1" fill="currentColor"/>
  <path d="m 0,10.54 c 0,0.66 0.12,1.28 0.38,1.88 0.25,0.6 0.59,1.11 1.02,1.55 0.43,0.44 0.94,0.79 1.53,1.06 0.59,0.27 1.22,0.42 1.88,0.45 0.12,0 0.18,-0.06 0.18,-0.17 V 13.97 C 4.99,13.86 4.93,13.8 4.81,13.8 3.96,13.76 3.23,13.41 2.63,12.77 2.03,12.13 1.73,11.38 1.73,10.53 1.73,9.68 2.01,8.95 2.57,8.33 3.13,7.71 3.83,7.37 4.67,7.3 L 5.2,7.23 q 0.15,0 0.15,-0.15 L 5.43,6.55 C 5.54,5.46 6.01,4.55 6.83,3.82 7.65,3.09 8.61,2.73 9.71,2.73 q 1.635,0 2.85,1.08 c 0.82,0.72 1.28,1.62 1.4,2.7 l 0.07,0.57 c 0,0.12 0.06,0.19 0.18,0.19 h 1.62 c 0.89,0 1.65,0.32 2.29,0.96 q 0.96,0.96 0.96,2.31 c 0,0.85 -0.3,1.6 -0.89,2.24 -0.59,0.64 -1.32,0.98 -2.17,1.03 -0.13,0 -0.19,0.06 -0.19,0.17 v 1.34 c 0,0.11 0.06,0.17 0.19,0.17 1.34,-0.06 2.47,-0.57 3.39,-1.52 0.93,-0.95 1.39,-2.09 1.39,-3.42 0,-0.64 -0.14,-1.31 -0.41,-2 0.76,-0.99 1.13,-2.09 1.13,-3.29 0,-0.94 -0.24,-1.82 -0.71,-2.63 C 20.34,1.82 19.7,1.18 18.89,0.71 18.08,0.24 17.21,0 16.27,0 14.74,0 13.45,0.56 12.41,1.67 A 6,6 0 0 0 9.71,1.02 C 8.29,1.02 7.03,1.46 5.94,2.34 4.85,3.22 4.15,4.35 3.84,5.72 2.71,5.98 1.79,6.56 1.08,7.44 0.37,8.32 0,9.36 0,10.54 m 5.39,6.75 q 0,0.255 0.15,0.48 c 0.1,0.15 0.26,0.27 0.48,0.34 0.11,0.06 0.24,0.08 0.37,0.07 0.13,-0.01 0.27,-0.08 0.4,-0.2 A 0.96,0.96 0 0 0 7.07,17.5 L 7.35,16.49 C 7.41,16.24 7.39,16.01 7.27,15.82 A 0.76,0.76 0 0 0 6.74,15.45 C 6.53,15.38 6.32,15.4 6.11,15.52 5.9,15.64 5.77,15.8 5.7,16.02 L 5.42,17.06 C 5.4,17.15 5.39,17.23 5.39,17.29 M 6.7,12.52 c 0.01,0.19 0.06,0.37 0.17,0.52 0.11,0.15 0.27,0.25 0.48,0.28 0.18,0.03 0.27,0.05 0.3,0.05 0.38,0 0.63,-0.22 0.76,-0.66 l 0.28,-1 C 8.75,11.48 8.73,11.26 8.61,11.05 A 0.86,0.86 0 0 0 8.08,10.63 C 7.86,10.57 7.64,10.59 7.44,10.71 7.24,10.83 7.11,11 7.04,11.23 l -0.3,1.05 C 6.72,12.4 6.7,12.48 6.7,12.52 m 1.24,7.9 c 0,0.18 0.05,0.34 0.15,0.5 q 0.15,0.24 0.48,0.33 c 0.14,0.03 0.23,0.05 0.28,0.05 0.09,0 0.21,-0.03 0.38,-0.1 0.17,-0.08 0.3,-0.27 0.38,-0.55 l 0.3,-1.01 C 9.97,19.39 9.94,19.16 9.83,18.96 A 0.74,0.74 0 0 0 9.31,18.59 0.76,0.76 0 0 0 8.67,18.66 0.88,0.88 0 0 0 8.25,19.17 l -0.28,1.04 q -0.03,0.12 -0.03,0.21 m 1.33,-4.8 c 0,0.17 0.05,0.33 0.16,0.49 0.11,0.16 0.27,0.27 0.49,0.33 0.22,0.07 0.44,0.05 0.63,-0.05 0.2,-0.1 0.33,-0.29 0.41,-0.56 l 0.28,-1.01 c 0.07,-0.25 0.05,-0.47 -0.07,-0.67 A 0.78,0.78 0 0 0 10.64,13.79 C 10.42,13.71 10.21,13.74 10,13.85 9.79,13.96 9.66,14.14 9.59,14.36 L 9.31,15.4 c -0.02,0.1 -0.04,0.17 -0.04,0.22 m 2.85,1.75 c -0.01,0.16 0.03,0.31 0.14,0.46 0.11,0.15 0.26,0.26 0.46,0.33 l 0.25,0.03 c 0.11,0.01 0.24,-0.02 0.38,-0.07 Q 13.665,18 13.77,17.58 l 0.28,-1.05 c 0.07,-0.23 0.05,-0.45 -0.07,-0.64 a 0.89,0.89 0 0 0 -0.51,-0.4 C 13.22,15.43 13,15.46 12.8,15.57 c -0.2,0.11 -0.32,0.3 -0.36,0.53 l -0.29,1 q -0.03,0.255 -0.03,0.27 m 1.35,-4.8 c 0,0.17 0.05,0.34 0.16,0.5 q 0.165,0.24 0.48,0.3 l 0.25,0.03 c 0.43,0 0.7,-0.21 0.81,-0.62 l 0.28,-1.03 c 0.06,-0.25 0.03,-0.48 -0.08,-0.68 -0.11,-0.2 -0.3,-0.32 -0.53,-0.37 a 0.75,0.75 0 0 0 -0.64,0.07 0.82,0.82 0 0 0 -0.39,0.53 l -0.3,1.02 c -0.02,0.12 -0.04,0.2 -0.04,0.25 m 0.34,-9.9 C 14.48,2.03 15.29,1.7 16.26,1.7 q 1.47,0 2.49,1.05 c 0.69,0.7 1.03,1.53 1.03,2.51 q 0,0.96 -0.48,1.77 C 18.34,6.07 17.18,5.59 15.81,5.59 H 15.49 C 15.25,4.49 14.69,3.52 13.81,2.67" id="path1" fill="currentColor"/>
</svg>
