<?xml version="1.0" encoding="UTF-8" standalone="no"?>
<svg xmlns="http://www.w3.org/2000/svg" xmlns:svg="http://www.w3.org/2000/svg" xml:space="preserve" viewBox="0 0 25.320007 19.66" version="1.1" id="svg1" width="25.320007" height="19.66" fill="currentColor">
  <defs id="defs1" fill="currentColor"/>
  <path d="m 7.1199714e-6,15.71 c 0,0.24 0.080000000029,0.43 0.2500000000286,0.59 0.17,0.16 0.38,0.23 0.63,0.23 H 10.280007 c 0.24,0 0.43,-0.08 0.59,-0.23 0.16,-0.16 0.23,-0.35 0.23,-0.59 0,-0.25 -0.08,-0.45 -0.23,-0.61 a 0.8,0.8 0 0 0 -0.59,-0.24 H 0.88000712 q -0.375,0 -0.63,0.24 C -0.00499288,15.34 7.1199714e-6,15.46 7.1199714e-6,15.71 M 2.6300071,12.66 c 0,0.24 0.09,0.44 0.26,0.6 0.16,0.17 0.36,0.25 0.6,0.25 h 9.4199999 c 0.23,0 0.43,-0.08 0.59,-0.25 q 0.24,-0.255 0.24,-0.6 c 0,-0.23 -0.08,-0.43 -0.23,-0.59 -0.15,-0.16 -0.35,-0.24 -0.59,-0.24 H 3.5000071 c -0.24,0 -0.44,0.08 -0.61,0.24 -0.17,0.16 -0.26,0.36 -0.26,0.59 m 1.04,-2.34 c 0,0.09 0.06,0.14 0.18,0.14 h 1.43 c 0.09,0 0.16,-0.05 0.22,-0.14 0.23,-0.54 0.57,-0.99 1.04,-1.35 0.47,-0.36 0.99,-0.56 1.58,-0.6 l 0.55,-0.07 c 0.12,0 0.18,-0.06 0.18,-0.17 l 0.07,-0.52 c 0.11,-1.09 0.57,-2 1.3799999,-2.72 0.82,-0.73 1.77,-1.09 2.87,-1.09 1.09,0 2.04,0.36 2.84,1.08 0.8,0.72 1.27,1.62 1.41,2.71 l 0.08,0.58 c 0,0.11 0.06,0.17 0.18,0.17 h 1.61 c 0.91,0 1.68,0.32 2.32,0.96 q 0.96,0.96 0.96,2.31 c 0,0.88 -0.32,1.65 -0.97,2.29 -0.65,0.65 -1.41,0.97 -2.3,0.97 h -6.91 c -0.11,0 -0.17,0.06 -0.17,0.17 v 1.34 c 0,0.11 0.06,0.17 0.17,0.17 h 6.91 q 1.35,0 2.49,-0.66 c 0.76,-0.44 1.37,-1.04 1.81,-1.8 0.44,-0.76 0.67,-1.59 0.67,-2.49 0,-0.9 -0.22,-1.72 -0.65,-2.47 0.72,-0.64 1.22,-1.5 1.51,-2.58 l 0.18,-0.68 c 0.01,-0.01 0.01,-0.03 0.01,-0.07 0,-0.08 -0.05,-0.13 -0.15,-0.16 l -0.62,-0.22 c -0.44,-0.13 -0.83,-0.32 -1.16,-0.57 -0.34,-0.25 -0.6,-0.53 -0.8,-0.84 -0.2,-0.31 -0.34,-0.62 -0.44,-0.94 -0.1,-0.32 -0.15,-0.63 -0.15,-0.95 0,-0.24 0.04,-0.53 0.11,-0.87 l 0.13,-0.61 c 0.04,-0.09 0,-0.17 -0.13,-0.23 l -0.84,-0.25 c -0.44,-0.11 -0.85,-0.16 -1.25,-0.16 -0.38,0 -0.75,0.04 -1.13,0.13 -0.38,0.09 -0.77,0.22 -1.18,0.41 -0.41,0.18 -0.8,0.45 -1.18,0.8 -0.38,0.35 -0.71,0.75 -0.99,1.22 -0.77,-0.32 -1.57,-0.48 -2.37,-0.48 q -2.115,0 -3.7499999,1.32 c -1.635,1.32 -1.78,2 -2.08,3.38 -0.87,0.2 -1.63,0.61 -2.28,1.22 a 4.9,4.9 0 0 0 -1.36,2.21 v 0.03 c -0.02,0.01 -0.03,0.04 -0.03,0.08 m 0.73,8.49 c 0,0.24 0.08,0.44 0.25,0.6 0.16,0.17 0.36,0.25 0.6,0.25 h 9.4299999 c 0.24,0 0.44,-0.08 0.61,-0.25 0.17,-0.17 0.25,-0.37 0.25,-0.6 0,-0.23 -0.08,-0.43 -0.25,-0.59 a 0.85,0.85 0 0 0 -0.61,-0.24 H 5.2500071 q -0.36,0 -0.6,0.24 c -0.17,0.16 -0.25,0.36 -0.25,0.59 M 16.980007,3.44 c 0.34,-0.55 0.79,-0.98 1.35,-1.28 0.55,-0.3 1.12,-0.45 1.7,-0.44 0.11,0 0.2,0 0.25,0.01 v 0.24 c 0,0.97 0.26,1.9 0.79,2.79 0.53,0.88 1.25,1.55 2.17,1.98 -0.17,0.4 -0.43,0.76 -0.76,1.07 -0.88,-0.79 -1.95,-1.18 -3.2,-1.18 h -0.32 c -0.25,-1.2 -0.91,-2.26 -1.98,-3.19" id="path1" fill="currentColor"/>
</svg>
