<?xml version="1.0" encoding="UTF-8" standalone="no"?>
<svg xmlns="http://www.w3.org/2000/svg" xmlns:svg="http://www.w3.org/2000/svg" xml:space="preserve" viewBox="0 0 16.450193 15.77" version="1.1" id="svg1" width="16.450193" height="15.77" fill="currentColor">
  <defs id="defs1" fill="currentColor"/>
  <path d="m 1.9312042e-4,12.19 c 0,0.97 0.34999999958,1.81 1.05999997958,2.52 0.71,0.71 1.55,1.06 2.52,1.06 h 6.8499999 q 1.455,0 2.49,-1.05 c 0.69,-0.7 1.04,-1.54 1.04,-2.53 q 0,-0.72 -0.21,-1.23 c 0.83,-0.53 1.49,-1.24 1.97,-2.12 0.48,-0.88 0.73,-1.83 0.73,-2.84 0,-0.81 -0.16,-1.59 -0.47,-2.33 -0.32,-0.74 -0.74,-1.38 -1.28,-1.91 -0.54,-0.53 -1.17,-0.96 -1.91,-1.28 -0.74,-0.32 -1.51,-0.48 -2.32,-0.48 -1.0899999,0 -2.0999999,0.27 -3.0199999,0.81 -0.92,0.54 -1.65,1.27 -2.18,2.18 -0.53,0.92 -0.79,1.92 -0.79,3.01 v 0.34 c -1.01,0.57 -1.67,1.41 -1.99,2.49 -0.76,0.24 -1.36,0.66 -1.80999998,1.27 A 3.44,3.44 0 0 0 1.9312042e-4,12.19 m 1.97999997958,0 c 0,-0.42 0.13,-0.78 0.4,-1.08 q 0.405,-0.45 1.02,-0.51 l 0.63,-0.08 c 0.12,0 0.19,-0.08 0.19,-0.23 l 0.1,-0.56 c 0.07,-0.58 0.31,-1.06 0.73,-1.44 0.42,-0.39 0.91,-0.58 1.48,-0.58 0.58,0 1.09,0.19 1.51,0.58 q 0.645,0.585 0.75,1.44 l 0.08,0.65 c 0.06,0.15 0.15,0.23 0.25,0.23 h 1.3099999 c 0.43,0 0.8,0.16 1.12,0.47 0.32,0.31 0.47,0.68 0.47,1.12 0,0.45 -0.16,0.83 -0.47,1.15 -0.31,0.32 -0.69,0.48 -1.12,0.48 H 3.5801931 q -0.675,0 -1.14,-0.48 c -0.465,-0.48 -0.46,-0.71 -0.46,-1.16 m 4.43,-6.39 c 0.07,-1.09 0.49,-2.01 1.27,-2.76 0.78,-0.74 1.71,-1.12 2.7999999,-1.12 1.11,0 2.06,0.4 2.84,1.19 0.78,0.79 1.17,1.76 1.17,2.89 q 0,1.05 -0.51,1.95 c -0.34,0.6 -0.8,1.08 -1.38,1.45 -0.59,-0.49 -1.27,-0.73 -2.03,-0.73 -0.29,-0.88 -0.8099999,-1.57 -1.5399999,-2.09 q -1.095,-0.78 -2.49,-0.78 z" id="path1" fill="currentColor"/>
</svg>
