<?xml version="1.0" encoding="UTF-8" standalone="no"?>
<svg xmlns="http://www.w3.org/2000/svg" xmlns:svg="http://www.w3.org/2000/svg" xml:space="preserve" viewBox="0 0 10.44 12.19" version="1.1" id="svg1" width="10.44" height="12.19" fill="currentColor">
  <defs id="defs1" fill="currentColor"/>
  <path d="m 0,6.97 c 0,0.94 0.24,1.82 0.71,2.62 0.47,0.8 1.11,1.44 1.91,1.9 0.8,0.47 1.67,0.7 2.61,0.7 0.96,0 1.83,-0.23 2.63,-0.69 q 1.2,-0.69 1.89,-1.89 c 0.46,-0.8 0.69,-1.68 0.69,-2.63 0,-0.24 -0.08,-0.44 -0.24,-0.61 A 0.76,0.76 0 0 0 9.61,6.12 C 9.38,6.12 9.18,6.2 9.01,6.37 8.84,6.54 8.76,6.74 8.76,6.98 8.76,7.96 8.41,8.8 7.72,9.49 7.03,10.18 6.19,10.53 5.21,10.53 4.24,10.53 3.42,10.18 2.74,9.49 2.06,8.8 1.72,7.96 1.72,6.98 1.72,6.13 1.98,5.36 2.51,4.67 3.04,3.98 3.65,3.61 4.35,3.57 L 3.97,3.94 C 3.81,4.12 3.73,4.31 3.73,4.52 q 0,0.33 0.24,0.6 c 0.36,0.35 0.77,0.35 1.21,0 L 7.02,3.3 C 7.18,3.18 7.26,2.97 7.26,2.68 Q 7.26,2.29 7.02,2.11 L 5.2,0.24 Q 4.93,0 4.63,0 C 4.38,0 4.17,0.08 4,0.25 3.83,0.42 3.75,0.62 3.75,0.85 3.75,1.09 3.83,1.3 3.99,1.46 L 4.37,1.82 Q 2.495,2.15 1.25,3.62 C 0.005,5.09 0,5.71 0,6.97" id="path1" fill="currentColor"/>
</svg>
