<?xml version="1.0" encoding="UTF-8" standalone="no"?>
<svg xmlns="http://www.w3.org/2000/svg" xmlns:svg="http://www.w3.org/2000/svg" xml:space="preserve" viewBox="0 0 7.96 11.03" version="1.1" id="svg1" width="7.96" height="11.03" fill="currentColor">
  <defs id="defs1" fill="currentColor"/>
  <path d="M 0,4.45 C 0,4.19 0.13,3.86 0.38,3.44 0.63,3.02 0.88,2.67 1.11,2.4 1.17,2.33 1.25,2.23 1.34,2.12 1.43,2.01 1.49,1.95 1.5,1.94 L 1.87,2.37 C 2.15,2.68 2.4,3.03 2.63,3.44 2.86,3.85 2.98,4.18 2.98,4.45 2.98,4.86 2.84,5.22 2.55,5.51 2.27,5.8 1.92,5.95 1.5,5.95 1.09,5.95 0.73,5.8 0.44,5.51 0.15,5.21 0,4.86 0,4.45 M 3.12,8.6 C 3.12,8.31 3.2,7.98 3.36,7.59 3.52,7.21 3.72,6.85 3.96,6.53 4.42,5.92 4.85,5.41 5.27,5 5.31,4.97 5.4,4.89 5.53,4.76 L 5.78,5 c 0.39,0.37 0.83,0.88 1.32,1.52 0.26,0.34 0.46,0.7 0.62,1.08 0.16,0.38 0.24,0.71 0.24,1 0,0.69 -0.23,1.26 -0.7,1.73 -0.47,0.47 -1.05,0.7 -1.73,0.7 -0.68,0 -1.25,-0.24 -1.72,-0.71 C 3.34,9.85 3.12,9.27 3.12,8.6 M 4.64,1.7 c 0,-0.43 0.33,-1 1,-1.7 L 5.89,0.28 C 6.08,0.5 6.25,0.74 6.4,1.02 6.55,1.29 6.63,1.52 6.63,1.7 6.63,1.98 6.53,2.2 6.34,2.39 6.15,2.57 5.92,2.67 5.64,2.67 5.35,2.67 5.11,2.58 4.92,2.39 A 0.98,0.98 0 0 1 4.64,1.7" id="path1" fill="currentColor"/>
</svg>
