<?xml version="1.0" encoding="UTF-8" standalone="no"?>
<svg xmlns="http://www.w3.org/2000/svg" xmlns:svg="http://www.w3.org/2000/svg" xml:space="preserve" viewBox="0 0 20.75 20.639999" version="1.1" id="svg1" width="20.75" height="20.639999" fill="currentColor">
  <defs id="defs1" fill="currentColor"/>
  <path d="m 0,9.48 c 0,1.12 0.33,2.11 0.98,2.99 0.65,0.87 1.5,1.47 2.55,1.79 0.09,0.02 0.17,-0.01 0.24,-0.08 l 1.16,-1.43 q -1.335,0 -2.28,-0.96 C 2.02,11.15 1.7,10.38 1.7,9.48 1.7,8.64 1.98,7.9 2.54,7.28 3.1,6.66 3.8,6.31 4.64,6.24 L 5.17,6.17 c 0.11,0 0.16,-0.04 0.16,-0.13 L 5.41,5.49 C 5.53,4.39 6,3.48 6.8,2.76 7.6,2.04 8.55,1.68 9.65,1.68 c 1.1,0 2.06,0.36 2.87,1.09 0.82,0.73 1.27,1.64 1.37,2.72 l 0.07,0.58 c 0.02,0.11 0.1,0.17 0.22,0.17 h 1.62 c 0.9,0 1.67,0.32 2.3,0.95 0.63,0.63 0.95,1.39 0.95,2.29 0,0.83 -0.28,1.56 -0.84,2.18 -0.56,0.62 -1.25,0.98 -2.07,1.08 -0.12,0 -0.28,0.02 -0.49,0.06 -0.19,0.02 -0.33,0.09 -0.41,0.23 l -2.36,2.79 a 0.78,0.78 0 0 0 -0.16,0.63 c 0.03,0.24 0.14,0.43 0.31,0.57 0.11,0.12 0.29,0.19 0.56,0.19 0.26,0 0.47,-0.12 0.61,-0.35 l 2.12,-2.44 c 1.24,-0.13 2.29,-0.66 3.15,-1.61 0.86,-0.95 1.28,-2.06 1.28,-3.33 0,-0.67 -0.13,-1.32 -0.39,-1.93 A 5,5 0 0 0 19.31,5.97 5,5 0 0 0 17.73,4.92 4.9,4.9 0 0 0 15.8,4.53 H 15.48 C 15.15,3.21 14.44,2.12 13.36,1.27 12.28,0.42 11.04,0 9.64,0 8.71,0 7.83,0.2 7.01,0.6 6.19,1 5.5,1.55 4.93,2.26 4.36,2.97 3.99,3.78 3.8,4.68 2.68,4.93 1.76,5.5 1.05,6.4 0.35,7.29 0,8.32 0,9.48 m 3.38,8.02 q 0,0.09 0.06,0.3 c 0.09,0.21 0.23,0.36 0.44,0.44 0.22,0.1 0.44,0.11 0.67,0.02 a 0.76,0.76 0 0 0 0.46,-0.45 c 0.1,-0.22 0.11,-0.43 0.02,-0.65 A 0.73,0.73 0 0 0 4.57,16.73 0.75,0.75 0 0 0 3.92,16.7 0.85,0.85 0 0 0 3.46,17.17 0.7,0.7 0 0 0 3.38,17.5 m 1.85,-2.44 v 0.1 c 0.02,0.23 0.12,0.41 0.3,0.56 0.23,0.13 0.43,0.19 0.62,0.19 0.22,0 0.43,-0.11 0.61,-0.33 l 2.32,-2.77 c 0.14,-0.17 0.21,-0.39 0.2,-0.66 A 0.8,0.8 0 0 0 9,11.62 C 8.84,11.48 8.67,11.4 8.48,11.4 c -0.06,0 -0.1,0 -0.14,0.01 -0.23,0.04 -0.42,0.15 -0.56,0.33 L 5.42,14.51 C 5.29,14.67 5.23,14.85 5.23,15.06 M 6,19.78 c 0,0.12 0.03,0.23 0.08,0.32 0.08,0.21 0.23,0.37 0.44,0.47 0.11,0.05 0.22,0.07 0.33,0.07 0.12,0 0.23,-0.02 0.31,-0.07 0.23,-0.09 0.39,-0.23 0.47,-0.41 0.1,-0.22 0.11,-0.44 0.02,-0.67 A 0.71,0.71 0 0 0 7.2,19.03 0.82,0.82 0 0 0 6.53,19.01 Q 6.185,19.145 6.08,19.46 C 6.02,19.55 6,19.66 6,19.78 m 1.67,-2.35 v 0.11 c 0.02,0.22 0.13,0.4 0.31,0.55 0.18,0.15 0.37,0.22 0.55,0.22 0.23,0 0.43,-0.11 0.63,-0.33 l 4.35,-5.24 c 0.11,-0.12 0.17,-0.3 0.17,-0.52 V 12.1 c -0.02,-0.23 -0.12,-0.4 -0.27,-0.53 -0.15,-0.13 -0.33,-0.2 -0.52,-0.2 h -0.13 c -0.23,0.01 -0.42,0.12 -0.55,0.31 l -4.35,5.2 c -0.14,0.18 -0.19,0.36 -0.19,0.55 m 3.51,1.15 q 0,0.135 0.06,0.3 c 0.09,0.22 0.24,0.38 0.46,0.47 0.14,0.04 0.24,0.06 0.31,0.06 0.14,0 0.26,-0.03 0.34,-0.08 0.22,-0.09 0.38,-0.23 0.46,-0.42 0.1,-0.17 0.11,-0.39 0.02,-0.67 A 0.76,0.76 0 0 0 12.39,17.8 l -0.36,-0.09 c -0.09,0.02 -0.19,0.04 -0.32,0.07 -0.22,0.08 -0.37,0.23 -0.45,0.44 -0.05,0.13 -0.08,0.25 -0.08,0.36" id="path1" fill="currentColor"/>
</svg>
