<?xml version="1.0" encoding="UTF-8" standalone="no"?>
<svg xmlns="http://www.w3.org/2000/svg" xmlns:svg="http://www.w3.org/2000/svg" xml:space="preserve" viewBox="0 0 10.43 13.47" version="1.1" id="svg1" width="10.43" height="13.47" fill="currentColor">
  <defs id="defs1" fill="currentColor"/>
  <path d="m 0,8.29 c 0,0.92 0.23,1.78 0.7,2.57 0.47,0.79 1.1,1.43 1.9,1.9 0.8,0.47 1.66,0.71 2.59,0.71 0.93,0 1.8,-0.24 2.61,-0.71 a 5.3,5.3 0 0 0 1.92,-1.9 c 0.47,-0.8 0.71,-1.65 0.71,-2.57 0,-0.6 -0.17,-1.31 -0.52,-2.14 C 9.56,5.32 9.14,4.55 8.65,3.85 8.21,3.28 7.69,2.65 7.09,1.97 6.49,1.29 5.44,0.24 5.2,0 L 3.92,1.29 C 3.3,1.89 2.7,2.58 2.13,3.37 1.56,4.16 1.06,5.01 0.64,5.92 0.2,6.83 0,7.62 0,8.29" id="path1" fill="currentColor"/>
</svg>
