<?xml version="1.0" encoding="UTF-8" standalone="no"?>
<svg xmlns="http://www.w3.org/2000/svg" xmlns:svg="http://www.w3.org/2000/svg" xml:space="preserve" viewBox="0 0 15.070176 15.090003" version="1.1" id="svg1" width="15.070176" height="15.090003" fill="currentColor">
  <defs id="defs1" fill="currentColor"/>
  <path d="m 1.7582187e-4,7.56 c 0,-0.19 0.0699999981,-0.36 0.19999999813,-0.5 a 0.63,0.63 0 0 1 0.48,-0.21 c 0.19,0 0.35999998,0.07 0.48999998,0.21 0.13,0.14 0.2,0.3 0.2,0.5 0,0.19 -0.07,0.35 -0.2,0.48 A 0.673,0.673 0 0 1 0.21017582,8.04 0.62,0.62 0 0 1 1.7582187e-4,7.56 M 1.9801758,7.56 c 0,-0.19 0.07,-0.36 0.2,-0.5 a 0.63,0.63 0 0 1 0.48,-0.21 h 3.23 l -2.28,-2.28 a 0.6,0.6 0 0 1 -0.21,-0.47 c 0,-0.19 0.07,-0.35 0.21,-0.49 0.14,-0.14 0.3,-0.21 0.49,-0.21 0.19,0 0.35,0.07 0.49,0.21 l 2.27,2.27 V 2.67 c 0,-0.19 0.07,-0.36 0.21,-0.5 0.14,-0.14 0.3,-0.21 0.5,-0.21 q 0.285,0 0.48,0.21 c 0.13,0.14 0.2,0.3 0.2,0.5 V 5.9 L 10.540176,3.6 q 0.21,-0.21 0.48,-0.21 c 0.18,0 0.35,0.07 0.49,0.21 0.12,0.14 0.18,0.3 0.18,0.49 0,0.19 -0.06,0.35 -0.18,0.47 L 9.2301758,6.84 h 3.2300002 c 0.18,0 0.34,0.07 0.47,0.21 0.13,0.14 0.2,0.3 0.2,0.5 0,0.18 -0.07,0.34 -0.2,0.47 a 0.65,0.65 0 0 1 -0.47,0.2 H 9.2301758 l 2.2900002,2.29 c 0.12,0.12 0.18,0.28 0.18,0.47 0,0.19 -0.06,0.35 -0.18,0.49 -0.14,0.14 -0.31,0.21 -0.49,0.21 -0.18,0 -0.35,-0.07 -0.48,-0.21 L 8.2601758,9.17 v 3.24 c 0,0.19 -0.07,0.36 -0.2,0.49 -0.13,0.13 -0.29,0.2 -0.48,0.2 a 0.72,0.72 0 0 1 -0.5,-0.2 0.65,0.65 0 0 1 -0.21,-0.49 V 9.19 l -2.27,2.27 c -0.14,0.14 -0.3,0.21 -0.49,0.21 -0.19,0 -0.35,-0.07 -0.49,-0.21 -0.14,-0.14 -0.21,-0.3 -0.21,-0.49 0,-0.19 0.07,-0.34 0.21,-0.47 l 2.3,-2.29 h -3.24 c -0.19,0 -0.35,-0.07 -0.48,-0.2 a 0.51,0.51 0 0 1 -0.22,-0.45 m 0.01,4.84 c 0,-0.18 0.07,-0.35 0.21,-0.48 0.12,-0.14 0.28,-0.21 0.47,-0.21 0.19,0 0.35,0.07 0.49,0.21 q 0.21,0.21 0.21,0.48 c 0,0.18 -0.07,0.35 -0.21,0.48 -0.14,0.14 -0.3,0.21 -0.49,0.21 -0.19,0 -0.35,-0.07 -0.47,-0.21 a 0.63,0.63 0 0 1 -0.21,-0.48 m 0,-9.71 c 0,-0.18 0.07,-0.35 0.21,-0.48 0.12,-0.14 0.28,-0.21 0.47,-0.21 0.19,0 0.35,0.07 0.49,0.21 q 0.21,0.21 0.21,0.48 c 0,0.27 -0.07,0.35 -0.21,0.49 -0.14,0.14 -0.3,0.21 -0.49,0.21 -0.19,0 -0.35,-0.07 -0.47,-0.21 a 0.68,0.68 0 0 1 -0.21,-0.49 m 4.85,11.71 c 0,-0.18 0.07,-0.34 0.21,-0.47 0.14,-0.13 0.3,-0.2 0.5,-0.2 0.19,0 0.35,0.07 0.48,0.2 0.13,0.13 0.2,0.29 0.2,0.47 0,0.19 -0.07,0.36 -0.2,0.49 -0.13,0.13 -0.29,0.2 -0.48,0.2 a 0.72,0.72 0 0 1 -0.5,-0.2 0.64,0.64 0 0 1 -0.21,-0.49 m 0,-13.71 c 0,-0.19 0.07,-0.36 0.21,-0.49 0.14,-0.13 0.3,-0.2 0.5,-0.2 0.19,0 0.35,0.07 0.48,0.2 a 0.68,0.68 0 0 1 -0.48,1.16 0.72,0.72 0 0 1 -0.5,-0.2 0.62,0.62 0 0 1 -0.21,-0.47 M 11.710176,12.4 c 0,-0.18 0.07,-0.35 0.21,-0.48 0.12,-0.14 0.28,-0.21 0.47,-0.21 0.19,0 0.35,0.07 0.49,0.21 q 0.21,0.21 0.21,0.48 c 0,0.18 -0.07,0.35 -0.21,0.48 -0.14,0.14 -0.3,0.21 -0.49,0.21 -0.19,0 -0.35,-0.07 -0.47,-0.21 a 0.63,0.63 0 0 1 -0.21,-0.48 m 0,-9.71 c 0,-0.18 0.07,-0.35 0.21,-0.48 0.12,-0.14 0.28,-0.21 0.47,-0.21 0.19,0 0.35,0.07 0.49,0.21 q 0.21,0.21 0.21,0.48 c 0,0.27 -0.07,0.35 -0.21,0.49 -0.14,0.14 -0.3,0.21 -0.49,0.21 -0.19,0 -0.35,-0.07 -0.47,-0.21 a 0.68,0.68 0 0 1 -0.21,-0.49 m 2,4.87 c 0,-0.19 0.07,-0.36 0.2,-0.5 0.13,-0.14 0.3,-0.21 0.49,-0.21 0.18,0 0.34,0.07 0.47,0.21 0.13,0.14 0.2,0.3 0.2,0.5 0,0.18 -0.07,0.34 -0.2,0.47 a 0.68,0.68 0 0 1 -0.96,0 0.65,0.65 0 0 1 -0.2,-0.47" id="path1" fill="currentColor"/>
</svg>
