<?xml version="1.0" encoding="UTF-8" standalone="no"?>
<svg xmlns="http://www.w3.org/2000/svg" xmlns:svg="http://www.w3.org/2000/svg" xml:space="preserve" viewBox="0 0 23.800001 12.75" version="1.1" id="svg1" width="23.800001" height="12.75" fill="currentColor">
  <defs id="defs1" fill="currentColor"/>
  <path d="m 2.2075109e-6,8.02 c 0,0.24 0.090000002489,0.45 0.2800000024891,0.62 0.16,0.19 0.37,0.28 0.63,0.28 H 15.600002 c 0.29,0 0.53,0.1 0.73,0.3 0.2,0.2 0.3,0.45 0.3,0.74 q 0,0.435 -0.3,0.72 c -0.2,0.19 -0.44,0.29 -0.74,0.29 -0.29,0 -0.54,-0.1 -0.73,-0.29 a 0.76,0.76 0 0 0 -0.6,-0.26 c -0.25,0 -0.46,0.09 -0.64,0.26 -0.18,0.17 -0.27,0.38 -0.27,0.61 0,0.25 0.09,0.46 0.28,0.63 0.56,0.55 1.22,0.83 1.96,0.83 q 1.17,0 2.01,-0.81 c 0.56,-0.54 0.83,-1.19 0.83,-1.97 0,-0.78 -0.28,-1.44 -0.84,-2 -0.56,-0.56 -1.23,-0.84 -2,-0.84 H 0.91000221 a 0.9,0.9 0 0 0 -0.64,0.26 Q 2.2075109e-6,7.645 2.2075109e-6,8.02 m 0,-3.28 c 0,0.23 0.090000002489,0.43 0.2800000024891,0.61 0.17,0.18 0.38,0.26 0.63,0.26 H 20.950002 c 0.78,0 1.45,-0.27 2.01,-0.82 0.56,-0.54 0.84,-1.2 0.84,-1.97 0,-0.77 -0.28,-1.44 -0.84,-1.99 -0.56,-0.55 -1.23,-0.83 -2.01,-0.83 -0.77,0 -1.42,0.27 -1.95,0.8 -0.18,0.16 -0.27,0.38 -0.27,0.67 0,0.26 0.09,0.47 0.26,0.63 q 0.255,0.24 0.63,0.24 0.36,0 0.63,-0.24 c 0.19,-0.21 0.42,-0.31 0.7,-0.31 0.29,0 0.53,0.1 0.73,0.3 0.2,0.2 0.3,0.44 0.3,0.73 q 0,0.435 -0.3,0.72 c -0.2,0.19 -0.44,0.29 -0.73,0.29 H 0.91000221 A 0.908,0.908 0 0 0 2.2075109e-6,4.74" id="path1" fill="currentColor"/>
</svg>
