<?xml version="1.0" encoding="UTF-8" standalone="no"?>
<svg xmlns="http://www.w3.org/2000/svg" xmlns:svg="http://www.w3.org/2000/svg" xml:space="preserve" viewBox="0 0 19.26 19.09" version="1.1" id="svg1" width="19.26" height="19.09" fill="currentColor">
  <defs id="defs1" fill="currentColor"/>
  <path d="M 0,11.95 Q 0.975,11.905 1.65,11.2 C 2.1,10.73 2.33,10.17 2.33,9.52 2.33,10.17 2.55,10.73 3,11.2 Q 3.675,11.905 4.65,11.95 3.675,11.995 3,12.7 A 2.34,2.34 0 0 0 2.33,14.38 C 2.33,13.73 2.11,13.17 1.65,12.7 Q 0.975,11.995 0,11.95 M 2.33,4.75 Q 4.22,4.66 5.54,3.28 C 6.42,2.36 6.86,1.27 6.86,0 6.86,1.27 7.3,2.36 8.18,3.28 9.06,4.2 10.13,4.68 11.4,4.75 10.57,4.79 9.81,5.02 9.11,5.46 8.42,5.89 7.87,6.47 7.46,7.19 7.06,7.91 6.86,8.68 6.86,9.52 6.86,8.25 6.42,7.15 5.54,6.23 4.66,5.3 3.59,4.81 2.33,4.75 m 3.32,10.77 c 0.95,-0.04 1.76,-0.41 2.42,-1.1 0.66,-0.69 0.99,-1.51 0.99,-2.47 0,0.96 0.33,1.78 0.99,2.47 0.66,0.69 1.46,1.06 2.41,1.1 -0.95,0.04 -1.75,0.41 -2.41,1.1 -0.66,0.69 -0.99,1.51 -0.99,2.47 0,-0.96 -0.33,-1.78 -0.99,-2.47 a 3.5,3.5 0 0 0 -2.42,-1.1 m 6.81,-4.74 c 0.95,-0.04 1.75,-0.41 2.41,-1.1 0.66,-0.69 0.98,-1.51 0.98,-2.48 0,0.96 0.33,1.78 0.99,2.47 0.66,0.69 1.47,1.06 2.42,1.1 -0.95,0.04 -1.76,0.41 -2.42,1.1 -0.66,0.69 -0.99,1.51 -0.99,2.47 0,-0.96 -0.33,-1.78 -0.98,-2.47 -0.66,-0.68 -1.46,-1.05 -2.41,-1.09" id="path1" fill="currentColor"/>
</svg>
