<?xml version="1.0" encoding="UTF-8" standalone="no"?>
<svg xmlns="http://www.w3.org/2000/svg" xmlns:svg="http://www.w3.org/2000/svg" xml:space="preserve" viewBox="0 0 20.719999 20.15" version="1.1" id="svg1" width="20.719999" height="20.15" fill="currentColor">
  <defs id="defs1" fill="currentColor"/>
  <path d="m 0,9.46 q 0,1.665 0.99,2.97 c 0.99,1.305 1.51,1.47 2.56,1.79 L 2.9,15.9 c -0.03,0.14 0.02,0.22 0.14,0.22 H 5.17 L 4.13,19.9 H 4.41 L 8.38,14.68 C 8.42,14.64 8.42,14.59 8.4,14.54 8.38,14.49 8.33,14.47 8.26,14.47 H 6.08 L 8.56,9.83 C 8.62,9.69 8.58,9.62 8.42,9.62 H 5.48 A 0.25,0.25 0 0 0 5.26,9.76 L 4.17,12.63 C 3.46,12.45 2.87,12.06 2.4,11.47 1.93,10.88 1.7,10.21 1.7,9.46 Q 1.7,8.215 2.54,7.3 C 3.38,6.385 3.8,6.34 4.64,6.24 L 5.16,6.17 C 5.29,6.17 5.36,6.11 5.36,6 L 5.43,5.48 C 5.53,4.4 5.98,3.49 6.79,2.76 7.6,2.03 8.55,1.66 9.64,1.66 c 1.09,0 2.04,0.37 2.85,1.1 0.82,0.73 1.28,1.64 1.4,2.72 l 0.06,0.58 c 0,0.12 0.06,0.18 0.19,0.18 h 1.61 c 0.91,0 1.68,0.32 2.32,0.95 q 0.96,0.945 0.96,2.28 c 0,0.85 -0.3,1.59 -0.89,2.21 -0.59,0.62 -1.32,0.96 -2.19,1.03 -0.13,0 -0.2,0.06 -0.2,0.19 v 1.37 c 0,0.11 0.07,0.17 0.2,0.17 0.65,-0.02 1.27,-0.17 1.86,-0.44 0.59,-0.27 1.1,-0.63 1.52,-1.07 0.42,-0.44 0.76,-0.96 1.01,-1.57 0.25,-0.6 0.38,-1.23 0.38,-1.88 0,-0.9 -0.22,-1.73 -0.67,-2.49 A 4.96,4.96 0 0 0 15.76,4.53 H 15.44 C 15.11,3.2 14.41,2.11 13.33,1.27 12.25,0.43 11.03,0 9.65,0 8.24,0 6.98,0.44 5.89,1.31 4.8,2.18 4.1,3.3 3.79,4.67 2.69,4.93 1.78,5.5 1.06,6.4 0.34,7.3 0,8.31 0,9.46 m 8.16,9.86 a 0.822,0.822 0 0 0 0.61,0.78 c 0.14,0.03 0.22,0.05 0.25,0.05 0.09,0 0.21,-0.03 0.38,-0.1 0.21,-0.09 0.35,-0.27 0.42,-0.52 l 0.28,-1.05 c 0.06,-0.22 0.04,-0.43 -0.08,-0.63 -0.12,-0.2 -0.29,-0.33 -0.53,-0.4 a 0.78,0.78 0 0 0 -0.63,0.08 c -0.2,0.12 -0.34,0.29 -0.41,0.53 l -0.27,1 C 8.17,19.23 8.16,19.32 8.16,19.32 M 9.5,14.55 c 0,0.14 0.05,0.29 0.15,0.44 q 0.15,0.225 0.45,0.33 c 0.22,0.07 0.44,0.06 0.64,-0.05 0.2,-0.11 0.33,-0.28 0.4,-0.52 l 0.3,-1.04 c 0.06,-0.22 0.03,-0.43 -0.08,-0.63 -0.12,-0.2 -0.3,-0.34 -0.53,-0.41 -0.23,-0.06 -0.44,-0.04 -0.65,0.08 -0.21,0.12 -0.34,0.29 -0.41,0.52 L 9.53,14.28 Q 9.5,14.535 9.5,14.55 m 2.82,1.65 c 0,0.17 0.05,0.34 0.16,0.51 0.11,0.17 0.27,0.28 0.47,0.35 0.02,0 0.06,0.01 0.12,0.02 0.05,0.01 0.09,0.02 0.12,0.02 0.13,0 0.26,-0.02 0.38,-0.08 0.19,-0.07 0.33,-0.26 0.41,-0.57 l 0.25,-1.01 q 0.105,-0.345 -0.06,-0.66 a 0.83,0.83 0 0 0 -0.5,-0.42 0.93,0.93 0 0 0 -0.68,0.08 c -0.2,0.12 -0.33,0.3 -0.37,0.53 L 12.35,16 c -0.02,0.06 -0.03,0.13 -0.03,0.2 m 1.36,-4.79 c -0.01,0.16 0.04,0.31 0.15,0.47 0.11,0.16 0.27,0.28 0.49,0.38 0.08,0.04 0.16,0.06 0.26,0.06 0.11,0 0.22,-0.03 0.34,-0.08 0.21,-0.1 0.35,-0.29 0.44,-0.57 l 0.29,-1.03 c 0.02,-0.13 0.03,-0.2 0.03,-0.22 0,-0.17 -0.05,-0.33 -0.16,-0.49 C 15.41,9.77 15.25,9.66 15.03,9.6 15.01,9.6 14.97,9.59 14.92,9.58 14.86,9.55 14.82,9.55 14.79,9.55 14.62,9.55 14.46,9.6 14.3,9.7 q -0.24,0.15 -0.33,0.48 l -0.27,1.01 c -0.01,0.08 -0.02,0.15 -0.02,0.22" id="path1" fill="currentColor"/>
</svg>
