<?xml version="1.0" encoding="UTF-8" standalone="no"?>
<svg xmlns="http://www.w3.org/2000/svg" xmlns:svg="http://www.w3.org/2000/svg" xml:space="preserve" viewBox="0 0 17.310436 18.640265" version="1.1" id="svg1" width="17.310436" height="18.640265" fill="currentColor">
  <defs id="defs1" fill="currentColor"/>
  <path d="m 4.3649776e-4,7.760264 c 0,-0.94 0.30000000224,-1.77 0.90000000224,-2.5 0.6,-0.73 1.37,-1.21 2.31,-1.43 0.23,-1.11 0.79,-2.03 1.7,-2.75 a 4.9,4.9 0 0 1 3.12,-1.08000003404 c 1.12,0 2.1299995,0.35000000404 2.9999995,1.04000003404 0.88,0.69 1.45,1.59 1.72,2.7 h 0.28 c 0.76,0 1.46,0.16 2.12,0.49 0.66,0.33 1.18,0.77 1.57,1.34 0.39,0.57 0.59,1.18 0.59,1.84 0,1.12 -0.43,2.08 -1.29,2.86 0,0.35 -0.11,0.75 -0.32,1.2 -0.22,0.45 -0.5,0.86 -0.87,1.23 -0.36,0.37 -0.73,0.59 -1.1,0.68 -0.12,0.62 -0.41,1.14 -0.86,1.57 -0.45,0.43 -0.99,0.71 -1.63,0.85 0.3,0.3 0.45,0.65 0.45,1.06 0,0.49 -0.17,0.91 -0.52,1.26 -0.35,0.35 -0.77,0.52 -1.2699995,0.52 -0.49,0 -0.91,-0.17 -1.26,-0.52 -0.35,-0.35 -0.53,-0.77 -0.53,-1.26 0,-0.06 0.01,-0.14 0.04,-0.26 0.03,-0.12 0.04,-0.21 0.04,-0.27 h -0.08 c -0.59,0 -1.09,-0.21 -1.51,-0.63 a 2.07,2.07 0 0 1 -0.63,-1.51 c 0,-0.23 0.12,-0.58 0.37,-1.06 -0.49,-0.26 -0.88,-0.67 -1.17,-1.26 h -1.25 a 4.3,4.3 0 0 1 -2.78,-1.3 3.89,3.89 0 0 1 -1.14000000224,-2.81" id="path1" fill="currentColor"/>
</svg>
