<?xml version="1.0" encoding="UTF-8" standalone="no"?>
<svg xmlns="http://www.w3.org/2000/svg" xmlns:svg="http://www.w3.org/2000/svg" xml:space="preserve" viewBox="0 0 20.709999 20.000002" version="1.1" id="svg1" width="20.709999" height="20.000002" fill="currentColor">
  <defs id="defs1" fill="currentColor"/>
  <path d="m 0,9.5100022 c 0,-1.16 0.35,-2.18 1.06,-3.08 0.71,-0.9 1.62,-1.48 2.74,-1.76 q 0.465,-2.04 2.1,-3.36 C 7.535,-0.00999777 8.24,2.2276662e-6 9.65,2.2276662e-6 c 1.38,0 2.6,0.4300000023338 3.68,1.2799999723338 1.08,0.85 1.78,1.95 2.1,3.29 h 0.32 c 0.89,0 1.72,0.22 2.48,0.66 0.76,0.44 1.37,1.04 1.81,1.8 0.44,0.76 0.67,1.59 0.67,2.48 0,1.3199998 -0.46,2.4699998 -1.39,3.4199998 -0.92,0.96 -2.05,1.46 -3.38,1.5 -0.13,0 -0.2,-0.06 -0.2,-0.17 v -1.33 c 0,-0.12 0.07,-0.18 0.2,-0.18 0.85,-0.04 1.58,-0.38 2.18,-1.02 0.6,-0.64 0.9,-1.38 0.9,-2.2299998 0,-0.89 -0.32,-1.65 -0.97,-2.3 -0.65,-0.65 -1.42,-0.97 -2.32,-0.97 h -1.61 c -0.12,0 -0.18,-0.06 -0.18,-0.17 l -0.08,-0.58 c -0.11,-1.08 -0.58,-1.99 -1.39,-2.72 -0.82,-0.73 -1.76,-1.1 -2.85,-1.1 -1.1,0 -2.05,0.37 -2.86,1.11 -0.81,0.74 -1.27,1.65 -1.37,2.75 l -0.06,0.5 c 0,0.12 -0.07,0.19 -0.2,0.19 l -0.53,0.07 c -0.83,0.07 -1.53,0.41 -2.1,1.04 -0.57,0.63 -0.85,1.35 -0.85,2.19 0,0.8499998 0.3,1.5899998 0.9,2.2299998 0.6,0.64 1.33,0.97 2.18,1.02 0.11,0 0.17,0.06 0.17,0.18 v 1.33 c 0,0.11 -0.06,0.17 -0.17,0.17 -1.34,-0.04 -2.47,-0.54 -3.4,-1.5 -0.87,-0.96 -1.33,-2.11 -1.33,-3.4299998 m 6.36,4.0699998 c 0,-0.22 0.08,-0.42 0.24,-0.58 0.16,-0.16 0.35,-0.24 0.59,-0.24 0.23,0 0.43,0.08 0.59,0.24 0.16,0.16 0.24,0.36 0.24,0.58 q 0,0.36 -0.24,0.6 c -0.16,0.17 -0.35,0.25 -0.59,0.25 -0.23,0 -0.43,-0.08 -0.59,-0.25 a 0.81,0.81 0 0 1 -0.24,-0.6 m 0,3.63 q 0,-0.36 0.24,-0.6 c 0.16,-0.15 0.35,-0.23 0.58,-0.23 0.23,0 0.43,0.08 0.59,0.23 0.16,0.16 0.24,0.35 0.24,0.59 0,0.24 -0.08,0.43 -0.24,0.59 -0.16,0.16 -0.35,0.23 -0.59,0.23 a 0.84,0.84 0 0 1 -0.59,-0.23 0.8,0.8 0 0 1 -0.23,-0.58 m 3.19,-1.7 c 0,-0.23 0.08,-0.44 0.25,-0.62 q 0.24,-0.24 0.57,-0.24 c 0.23,0 0.43,0.09 0.6,0.26 0.17,0.17 0.26,0.37 0.26,0.6 0,0.23 -0.08,0.43 -0.25,0.6 -0.17,0.17 -0.37,0.25 -0.61,0.25 -0.23,0 -0.42,-0.08 -0.58,-0.25 -0.16,-0.17 -0.24,-0.37 -0.24,-0.6 m 0,-3.62 c 0,-0.23 0.08,-0.43 0.25,-0.6 q 0.27,-0.24 0.57,-0.24 c 0.24,0 0.44,0.08 0.61,0.25 a 0.8,0.8 0 0 1 0.25,0.6 c 0,0.23 -0.08,0.43 -0.25,0.59 -0.17,0.16 -0.37,0.24 -0.61,0.24 -0.23,0 -0.42,-0.08 -0.58,-0.24 a 0.85,0.85 0 0 1 -0.24,-0.6 m 0,7.28 c 0,-0.23 0.08,-0.43 0.25,-0.61 q 0.24,-0.24 0.57,-0.24 c 0.24,0 0.44,0.08 0.61,0.25 0.17,0.17 0.25,0.37 0.25,0.6 0,0.23 -0.08,0.43 -0.25,0.59 -0.17,0.16 -0.37,0.24 -0.61,0.24 a 0.824,0.824 0 0 1 -0.82,-0.83 m 3.22,-5.59 c 0,-0.22 0.08,-0.41 0.25,-0.58 0.17,-0.17 0.37,-0.25 0.6,-0.25 0.23,0 0.43,0.08 0.59,0.24 0.16,0.16 0.24,0.36 0.24,0.58 q 0,0.36 -0.24,0.6 c -0.16,0.17 -0.35,0.25 -0.59,0.25 -0.24,0 -0.44,-0.08 -0.6,-0.25 a 0.82,0.82 0 0 1 -0.25,-0.59 m 0,3.63 c 0,-0.22 0.08,-0.42 0.25,-0.6 0.16,-0.15 0.36,-0.23 0.6,-0.23 0.24,0 0.43,0.08 0.59,0.23 0.16,0.15 0.23,0.35 0.23,0.59 0,0.24 -0.08,0.43 -0.23,0.59 -0.16,0.16 -0.35,0.23 -0.59,0.23 q -0.36,0 -0.6,-0.24 a 0.76,0.76 0 0 1 -0.25,-0.57" id="path1" fill="currentColor"/>
</svg>
