<?xml version="1.0" encoding="UTF-8" standalone="no"?>
<svg xmlns="http://www.w3.org/2000/svg" xmlns:svg="http://www.w3.org/2000/svg" xml:space="preserve" viewBox="0 0 21.51026 20.73" version="1.1" id="svg1" width="21.51026" height="20.73" fill="currentColor">
  <defs id="defs1" fill="currentColor"/>
  <path d="M 2.6028112e-4,9.92 V 9.6 c 0,-0.1 0.0299999989,-0.18 0.0999999989,-0.25 0.07,-0.07 0.15,-0.1 0.25,-0.1 H 7.9302603 c 0.1,0 0.18,0.03 0.25,0.1 0.07,0.07 0.1,0.15 0.1,0.25 v 0.32 c 0,0.1 -0.03,0.18 -0.1,0.25 -0.07,0.07 -0.15,0.1 -0.25,0.1 h -0.44 v 1.65 h 2.12 c 0.02,-0.28 0.14,-0.52 0.35,-0.71 0.2099997,-0.19 0.4599997,-0.29 0.7499997,-0.29 0.29,0 0.53,0.1 0.74,0.29 0.21,0.19 0.32,0.43 0.35,0.71 h 1.32 V 8.53 a 0.52,0.52 0 0 1 -0.35,-0.16 c -0.1,-0.1 -0.15,-0.23 -0.15,-0.37 V 7.69 c 0,-0.14 0.05,-0.27 0.16,-0.38 0.11,-0.11 0.24,-0.16 0.39,-0.16 h 1.99 c 0.15,0 0.28,0.05 0.38,0.16 0.1,0.11 0.15,0.23 0.15,0.38 V 8 c 0,0.14 -0.05,0.27 -0.14,0.37 -0.09,0.1 -0.2,0.16 -0.34,0.16 v 3.39 h 1.56 c 0.27,0 0.51,0.1 0.71,0.3 0.2,0.2 0.3,0.44 0.3,0.71 v 2.93 l 3.73,4.87 h -4.74 v -3.04 h -0.71 c 0.11,0.26 0.16,0.54 0.16,0.83 0,0.61 -0.21,1.12 -0.64,1.56 -0.43,0.43 -0.95,0.65 -1.55,0.65 -0.61,0 -1.12,-0.22 -1.56,-0.65 a 2.13,2.13 0 0 1 -0.65,-1.56 c 0,-0.29 0.05,-0.57 0.16,-0.83 h -1 c 0.11,0.27 0.17,0.55 0.17,0.83 0,0.61 -0.22,1.12 -0.65,1.56 -0.43,0.44 -0.9499997,0.65 -1.5599997,0.65 -0.61,0 -1.12,-0.22 -1.55,-0.65 -0.43,-0.43 -0.64,-0.95 -0.64,-1.56 0,-0.29 0.05,-0.57 0.16,-0.83 h -1.19 c 0.12,0.29 0.18,0.57 0.18,0.83 0,0.61 -0.22,1.12 -0.65,1.56 -0.43,0.44 -0.95,0.65 -1.56,0.65 -0.61,0 -1.12,-0.22 -1.56,-0.65 -0.44,-0.43 -0.65,-0.95 -0.65,-1.56 0,-0.29 0.06,-0.57 0.17,-0.84 -0.24,-0.04 -0.45,-0.15 -0.61,-0.34 C 0.88026028,17.15 0.80026028,16.93 0.80026028,16.68 v -0.86 h -0.02 v -5.55 h -0.43 c -0.1,0 -0.18,-0.03 -0.25,-0.1 A 0.33,0.33 0 0 1 2.6028112e-4,9.92 M 2.0502603,13.86 c 0,0.21 0.07,0.39 0.22,0.54 0.15,0.15 0.33,0.22 0.54,0.22 h 1.44 c 0.21,0 0.39,-0.07 0.53,-0.22 0.14,-0.15 0.22,-0.33 0.22,-0.54 v -2.3 a 0.7,0.7 0 0 0 -0.22,-0.53 0.7,0.7 0 0 0 -0.53,-0.22 h -1.43 c -0.21,0 -0.39,0.07 -0.54,0.23 -0.15,0.15 -0.22,0.32 -0.22,0.52 v 2.3 z M 11.53026,2.67 c 0,0.41 0.16,0.76 0.47,1.04 0,0.2 0.09,0.43 0.26,0.68 0.17,0.25 0.36,0.4 0.56,0.44 0.04,0.22 0.15,0.41 0.31,0.57 0.16,0.15 0.36,0.25 0.59,0.3 -0.11,0.11 -0.16,0.24 -0.16,0.39 q 0,0.27 0.18,0.45 0.18,0.18 0.45,0.18 c 0.18,0 0.33,-0.06 0.46,-0.19 0.13,-0.12 0.19,-0.28 0.19,-0.45 0,-0.02 0,-0.05 -0.01,-0.09 -0.01,-0.04 -0.01,-0.08 -0.01,-0.1 h 0.03 c 0.21,0 0.39,-0.08 0.54,-0.23 0.15,-0.15 0.23,-0.34 0.23,-0.55 0,-0.1 -0.04,-0.22 -0.12,-0.38 0.17,-0.09 0.31,-0.25 0.41,-0.47 h 0.45 c 0.39,-0.02 0.73,-0.17 1,-0.45 0.28,-0.28 0.42,-0.61 0.42,-1.01 q 0,-0.51 -0.33,-0.9 c -0.22,-0.26 -0.5,-0.43 -0.83,-0.52 -0.08,-0.4 -0.29,-0.73 -0.62,-0.99 -0.33,-0.26 -0.71,-0.39 -1.12,-0.39 -0.41,0 -0.77,0.13 -1.08,0.38 -0.31,0.25 -0.52,0.58 -0.62,0.97 h -0.11 q -0.615,0 -1.08,0.39 c -0.31,0.25 -0.46,0.57 -0.46,0.93" id="path1" fill="currentColor"/>
</svg>
