<?xml version="1.0" encoding="UTF-8" standalone="no"?>
<svg xmlns="http://www.w3.org/2000/svg" xmlns:svg="http://www.w3.org/2000/svg" xml:space="preserve" viewBox="0 0 19.870344 18.110001" version="1.1" id="svg1" width="19.870344" height="18.110001" fill="currentColor">
  <defs id="defs1" fill="currentColor"/>
  <path d="m 3.4493369e-4,17.51 c 0,-0.16 0.0599999963,-0.3 0.16999999631,-0.42 0.12,-0.12 0.25,-0.18 0.41,-0.18 h 0.4 c -0.21,-0.66 -0.39,-1.35 -0.53,-2.07 -0.21,-1.1 -0.32,-2.1 -0.32,-2.99 0,-1.71 0.3,-3.32 0.90999997,-4.81 0.62,-1.46 1.48,-2.71 2.59,-3.76 1.12,-1.06 2.42,-1.87 3.9,-2.42 1.51,-0.57 3.1400001,-0.86 4.9100001,-0.86 1.06,0 2.06,0.09 3,0.28 0.94,0.22 1.85,0.56 2.73,1.03 l 1.7,0.91 -1.88,0.39 q -0.87,0.195 -1.2,0.78 -0.24,0.48 0.03,1.11 l 0.41,0.95 -1.02,0.05 c -0.43,0.03 -0.83,0.12 -1.18,0.27 -0.33,0.16 -0.52,0.32 -0.58,0.5 -0.11,0.23 0.01,0.56 0.36,1 l 0.81,0.96 -1.26,0.18 q -2.325,0.345 -3.81,0.96 c -1.4850001,0.615 -1.7700001,0.94 -2.3500001,1.59 -0.56,0.62 -0.98,1.42 -1.25,2.37 -0.27,0.96 -0.42,2.15 -0.45,3.59 h 5.2600001 v -2.78 l -0.38,0.23 a 0.55,0.55 0 0 1 -0.45,0.07 0.53,0.53 0 0 1 -0.37,-0.28 c -0.09,-0.14 -0.11,-0.29 -0.08,-0.45 0.03,-0.16 0.12,-0.29 0.27,-0.38 l 3.82,-2.38 0.02,-0.02 c 0.01,0 0.01,0 0.01,-0.01 h 0.02 c 0.01,0 0.02,0 0.03,-0.01 0.07,-0.02 0.14,-0.05 0.23,-0.07 h 0.06 c 0.01,0.01 0.02,0.02 0.03,0.02 h 0.07 c 0,0.01 0.01,0.01 0.02,0.01 h 0.03 l 0.02,0.01 h 0.02 c 0.01,0.01 0.02,0.02 0.02,0.03 h 0.02 c 0.01,0 0.01,0 0.01,0.01 0.02,0 0.03,0 0.03,0.01 0.01,0 0.02,0 0.03,0.01 l 0.02,0.01 3.82,2.35 c 0.14,0.09 0.23,0.22 0.27,0.38 0.03,0.17 0.01,0.32 -0.08,0.46 -0.08,0.14 -0.2,0.23 -0.37,0.26 -0.17,0.03 -0.32,0.01 -0.45,-0.08 l -0.31,-0.19 v 2.77 h 0.96 c 0.16,0 0.29,0.06 0.4,0.18 0.11,0.12 0.16,0.26 0.16,0.42 0.01,0.17 -0.05,0.31 -0.16,0.43 -0.11,0.12 -0.25,0.18 -0.4,0.18 H 0.58034493 A 0.58,0.58 0 0 1 3.4493369e-4,17.51 M 1.5503449,11.85 q 0,1.065 0.3,2.73 c 0.15,0.81 0.33,1.52 0.54,2.12 h 2.69 c 0.05,-1.45 0.2,-2.65 0.45,-3.59 0.35,-1.27 0.88,-2.31 1.6,-3.09 0.73,-0.82 1.69,-1.47 2.8900001,-1.96 0.82,-0.34 1.86,-0.63 3.11,-0.87 l -0.08,-0.25 q -0.15,-0.69 0.09,-1.23 c 0.22,-0.51 0.65,-0.92 1.28,-1.21 0.07,-0.03 0.13,-0.06 0.19,-0.07 -0.86,-0.2 -1.73,-0.25 -2.6,-0.14 -0.99,0.12 -1.92,0.41 -2.7800001,0.85 -1.11,0.58 -2.11,1.41 -3.01,2.48 -0.1,0.12 -0.23,0.18 -0.38,0.18 a 0.48,0.48 0 0 1 -0.31,-0.1 c -0.1,-0.09 -0.16,-0.2 -0.17,-0.34 -0.01,-0.14 0.02,-0.26 0.11,-0.37 1,-1.19 2.11,-2.1 3.34,-2.73 0.98,-0.49 2.0300001,-0.81 3.1400001,-0.95 a 7.2,7.2 0 0 1 1.67,-0.02 c 0.54,0.06 0.92,0.12 1.14,0.17 0.22,0.05 0.37,0.09 0.45,0.12 l 0.08,0.03 q 0.075,-0.465 0.24,-0.84 c 0.16,-0.29 0.37,-0.56 0.64,-0.8 -0.3,-0.09 -0.65,-0.19 -1.04,-0.28 -0.8,-0.18 -1.7,-0.26 -2.69,-0.26 -1.58,0 -3.0500001,0.26 -4.4200001,0.77 -1.34,0.51 -2.48,1.22 -3.42,2.14 -0.98,0.91 -1.73,2 -2.23,3.26 -0.55,1.32 -0.82,2.74 -0.82,4.25 m 11.4300001,5.06 h 3.88 v -3.52 l -1.98,-1.21 -1.9,1.19 z" id="path1" fill="currentColor"/>
</svg>
