<?xml version="1.0" encoding="UTF-8" standalone="no"?>
<svg xmlns="http://www.w3.org/2000/svg" xmlns:svg="http://www.w3.org/2000/svg" xml:space="preserve" viewBox="0 0 15.363813 19.26" version="1.1" id="svg1" width="15.363811" height="19.26" fill="currentColor">
  <defs id="defs1" fill="currentColor"/>
  <path d="m 0.072,18.75 q -0.18,-0.405 0.09,-0.81 l 1.4,-2.67 c 0.01,-0.04 0.05,-0.09 0.11,-0.15 0.04,-0.04 0.17,-0.14 0.38,-0.29 0.02,-0.01 0.25,-0.18 0.68,-0.5 0.48,-0.32 1.03,-0.72 1.68,-1.19 l 1.8,-2.98 c 0.17,-0.27 0.41,-0.41 0.72,-0.41 h 0.7 q -0.24,0.285 -0.45,0.6 c -0.14,0.21 -0.27,0.5 -0.38,0.85 -0.12,0.36 -0.18,0.71 -0.18,1.07 0,0.36 0.09,0.77 0.28,1.25 0.19,0.47 0.48,0.94 0.88,1.39 0.27,0.31 0.44,0.62 0.5,0.93 0.06,0.31 0.02,0.58 -0.1,0.83 -0.12,0.25 -0.32,0.5 -0.59,0.74 -0.27,0.24 -0.56,0.45 -0.88,0.63 -0.32,0.18 -0.68,0.35 -1.07,0.52 -0.39,0.17 -0.75,0.3 -1.05,0.41 -0.31,0.1 -0.62,0.2 -0.93,0.29 h -2.82 c -0.16,0 -0.32,-0.05 -0.46,-0.14 A 0.7,0.7 0 0 1 0.072,18.75 M 2.822,3.88 C 2.822,3.42 2.972,3 3.272,2.64 3.572,2.27 3.962,2.04 4.432,1.92 4.542,1.36 4.832,0.9 5.282,0.54 5.732,0.18 6.262,0 6.842,0 c 0.56,0 1.06,0.17 1.5,0.52 0.44,0.35 0.73,0.8 0.86,1.35 h 0.14 q 0.855,0 1.5,0.54 c 0.42,0.36 0.64,0.79 0.64,1.3 0,0.56 -0.22,1.03 -0.65,1.43 0,0.27 -0.12,0.59 -0.36,0.93 -0.24,0.35 -0.5,0.55 -0.78,0.61 -0.06,0.31 -0.21,0.57 -0.43,0.78 -0.23,0.22 -0.5,0.36 -0.82,0.43 0.15,0.16 0.22,0.34 0.22,0.54 0,0.25 -0.09,0.46 -0.26,0.63 a 0.9,0.9 0 0 1 -0.64,0.25 c -0.24,0 -0.45,-0.09 -0.63,-0.26 A 0.82,0.82 0 0 1 6.872,8.43 c 0,-0.03 0.01,-0.08 0.02,-0.14 0.01,-0.06 0.02,-0.11 0.02,-0.13 h -0.03 c -0.29,0 -0.54,-0.11 -0.75,-0.32 A 1.03,1.03 0 0 1 5.812,7.09 c 0,-0.12 0.06,-0.3 0.18,-0.53 Q 5.632,6.38 5.422,5.93 H 4.792 A 2.2,2.2 0 0 1 3.402,5.28 C 3.022,4.9 2.822,4.43 2.822,3.88 m 4.62,7.74 c 0,-0.16 0.02,-0.34 0.07,-0.54 0.05,-0.2 0.11,-0.35 0.16,-0.47 q 0.075,-0.18 0.21,-0.45 c 0.09,-0.18 0.15,-0.31 0.19,-0.41 h 0.38 c 0.28,0 0.49,0.11 0.66,0.32 l 0.07,0.1 1.31,2.48 4.65,5.23 0.04,0.03 c 0.21,0.27 0.24,0.56 0.08,0.88 -0.15,0.31 -0.4,0.46 -0.75,0.46 h -5.63 c 0.17,-0.16 0.32,-0.29 0.44,-0.39 0.12,-0.11 0.27,-0.27 0.45,-0.49 0.18,-0.22 0.33,-0.43 0.42,-0.61 0.09,-0.18 0.17,-0.42 0.23,-0.69 0.06,-0.27 0.07,-0.53 0.01,-0.79 -0.06,-0.25 -0.18,-0.53 -0.38,-0.84 -0.19,-0.31 -0.46,-0.61 -0.81,-0.91 -0.34,-0.3 -0.64,-0.59 -0.88,-0.88 -0.24,-0.28 -0.43,-0.54 -0.56,-0.76 -0.13,-0.22 -0.23,-0.45 -0.29,-0.68 -0.04,-0.23 -0.07,-0.43 -0.07,-0.59" id="path1" fill="currentColor"/>
</svg>
