<?xml version="1.0" encoding="UTF-8" standalone="no"?>
<svg xmlns="http://www.w3.org/2000/svg" xmlns:svg="http://www.w3.org/2000/svg" xml:space="preserve" viewBox="0 0 20.23 13.44" version="1.1" id="svg1" width="20.23" height="13.44" fill="currentColor">
  <defs id="defs1" fill="currentColor"/>
  <path d="m 0,5.04 c 0,0.18 0.06,0.31 0.17,0.4 0.12,0.11 0.26,0.17 0.42,0.17 h 10.4 c 0.18,0 0.33,0.06 0.46,0.19 0.13,0.12 0.2,0.28 0.2,0.46 0,0.18 -0.07,0.34 -0.2,0.47 A 0.63,0.63 0 0 1 10.52,6.72 0.6,0.6 0 0 0 10.12,6.56 C 9.96,6.56 9.82,6.61 9.71,6.72 9.6,6.83 9.55,6.96 9.55,7.11 c 0,0.16 0.06,0.3 0.17,0.41 0.36,0.36 0.78,0.53 1.28,0.53 0.49,0 0.91,-0.17 1.26,-0.52 0.35,-0.35 0.52,-0.77 0.52,-1.27 0,-0.49 -0.17,-0.92 -0.52,-1.27 C 11.91,4.64 11.49,4.46 11,4.46 H 0.59 C 0.43,4.46 0.29,4.52 0.17,4.63 0.06,4.75 0,4.88 0,5.04 M 0,3.02 c 0,0.17 0.06,0.3 0.17,0.39 0.12,0.11 0.26,0.16 0.42,0.16 H 14.4 c 0.49,0 0.92,-0.18 1.27,-0.52 C 16.02,2.7 16.19,2.28 16.19,1.78 16.19,1.29 16.02,0.87 15.67,0.52 15.32,0.17 14.9,0 14.4,0 c -0.49,0 -0.91,0.17 -1.27,0.51 -0.11,0.12 -0.16,0.27 -0.16,0.42 0,0.16 0.05,0.3 0.16,0.4 0.11,0.1 0.24,0.15 0.4,0.15 0.15,0 0.29,-0.05 0.41,-0.16 a 0.6,0.6 0 0 1 0.45,-0.18 c 0.17,0 0.33,0.06 0.46,0.18 0.13,0.12 0.2,0.27 0.2,0.45 0,0.18 -0.07,0.34 -0.2,0.47 -0.13,0.13 -0.28,0.2 -0.46,0.2 H 0.59 C 0.43,2.44 0.29,2.5 0.17,2.61 0.06,2.72 0,2.86 0,3.02 m 13.41,7.24 q 0,1.44 0.75,2.31 c 0.5,0.58 1.26,0.87 2.29,0.87 0.95,0 1.73,-0.29 2.35,-0.87 0.62,-0.58 0.92,-1.34 0.92,-2.28 0,-0.64 -0.22,-1.17 -0.67,-1.57 -0.45,-0.4 -0.99,-0.6 -1.65,-0.6 -0.73,0 -1.3,0.25 -1.72,0.75 h -0.02 q 0.495,-1.74 1.65,-1.74 c 0.25,0 0.44,0.05 0.58,0.14 0.12,0.09 0.2,0.22 0.23,0.41 h 2.11 A 2.3,2.3 0 0 0 20.04,6.84 C 19.92,6.59 19.78,6.38 19.6,6.22 19.42,6.06 19.21,5.92 18.97,5.82 18.73,5.71 18.48,5.64 18.22,5.59 17.96,5.55 17.7,5.52 17.42,5.52 q -0.93,0 -1.68,0.36 c -0.75,0.36 -0.88,0.54 -1.17,0.89 -0.28,0.35 -0.52,0.75 -0.71,1.2 -0.19,0.45 -0.31,0.86 -0.38,1.23 -0.04,0.38 -0.07,0.73 -0.07,1.06 m 2.05,0.45 c 0,-0.37 0.12,-0.65 0.37,-0.84 0.24,-0.19 0.52,-0.29 0.82,-0.29 0.19,0 0.35,0.03 0.48,0.08 0.13,0.05 0.23,0.12 0.3,0.19 q 0.105,0.105 0.15,0.27 c 0.04,0.11 0.06,0.19 0.07,0.25 0.01,0.06 0.01,0.12 0.01,0.19 0,0.31 -0.11,0.58 -0.32,0.79 -0.21,0.21 -0.5,0.32 -0.85,0.32 -0.31,0 -0.55,-0.09 -0.75,-0.27 a 0.9,0.9 0 0 1 -0.28,-0.69" id="path1" fill="currentColor"/>
</svg>
