<?xml version="1.0" encoding="UTF-8" standalone="no"?>
<svg xmlns="http://www.w3.org/2000/svg" xmlns:svg="http://www.w3.org/2000/svg" xml:space="preserve" viewBox="0 0 19.920403 13.44" version="1.1" id="svg1" width="19.920403" height="13.44" fill="currentColor">
  <defs id="defs1" fill="currentColor"/>
  <path d="m 4.0262337e-4,5.04 c 0,0.18 0.0599999966,0.31 0.16999999663,0.4 0.12,0.11 0.26,0.17 0.42,0.17 H 10.990403 c 0.18,0 0.33,0.06 0.46,0.19 0.13,0.12 0.2,0.28 0.2,0.46 0,0.18 -0.07,0.34 -0.2,0.47 a 0.63,0.63 0 0 1 -0.93,-0.01 0.6,0.6 0 0 0 -0.4,-0.16 c -0.1600004,0 -0.3000004,0.05 -0.4100004,0.16 -0.11,0.11 -0.16,0.24 -0.16,0.39 0,0.16 0.06,0.3 0.17,0.41 0.3600004,0.36 0.7800004,0.53 1.2700004,0.53 0.49,0 0.91,-0.17 1.26,-0.52 0.35,-0.35 0.52,-0.77 0.52,-1.27 0,-0.49 -0.17,-0.92 -0.52,-1.27 -0.35,-0.35 -0.77,-0.53 -1.26,-0.53 H 0.59040262 c -0.16,0 -0.3,0.06 -0.42,0.17 -0.12,0.12 -0.16999999663,0.25 -0.16999999663,0.41 m 0,-2.02 c 0,0.17 0.0599999966,0.3 0.16999999663,0.39 0.12,0.11 0.26,0.16 0.42,0.16 H 14.400403 c 0.49,0 0.92,-0.18 1.27,-0.52 0.35,-0.35 0.52,-0.77 0.52,-1.27 0,-0.49 -0.17,-0.91 -0.52,-1.26 -0.35,-0.35 -0.77,-0.52 -1.27,-0.52 -0.49,0 -0.91,0.17 -1.27,0.51 -0.11,0.12 -0.16,0.27 -0.16,0.42 0,0.16 0.05,0.3 0.16,0.4 0.11,0.1 0.24,0.15 0.4,0.15 0.15,0 0.29,-0.05 0.41,-0.16 a 0.6,0.6 0 0 1 0.45,-0.18 c 0.17,0 0.33,0.06 0.46,0.18 0.13,0.12 0.2,0.27 0.2,0.45 0,0.18 -0.07,0.34 -0.2,0.47 -0.13,0.13 -0.28,0.2 -0.46,0.2 H 0.59040262 c -0.16,0 -0.3,0.06 -0.42,0.17 A 0.53,0.53 0 0 0 4.0262337e-4,3.02 M 13.090403,11.3 c 0.02,0.39 0.11,0.73 0.28,1.02 0.17,0.29 0.39,0.51 0.67,0.67 0.28,0.16 0.58,0.27 0.9,0.34 0.32,0.07 0.67,0.11 1.04,0.11 0.57,0 1.09,-0.11 1.55,-0.32 0.47,-0.21 0.84,-0.48 1.13,-0.81 0.29,-0.33 0.53,-0.7 0.73,-1.13 0.2,-0.43 0.33,-0.84 0.41,-1.23 0.08,-0.39 0.12,-0.78 0.12,-1.15 q 0,-1.59 -0.81,-2.43 c -0.54,-0.57 -1.26,-0.85 -2.17,-0.85 -0.93,0 -1.72,0.28 -2.36,0.85 -0.64,0.57 -0.97,1.32 -0.97,2.24 q 0,0.99 0.63,1.62 c 0.42,0.42 0.96,0.63 1.63,0.63 0.36,0 0.7,-0.07 1.05,-0.22 0.34,-0.14 0.58,-0.33 0.72,-0.54 h 0.03 c -0.12,0.48 -0.31,0.88 -0.58,1.22 -0.27,0.34 -0.62,0.51 -1.06,0.51 -0.29,0 -0.48,-0.03 -0.59,-0.1 a 0.74,0.74 0 0 1 -0.24,-0.42 h -2.11 z m 2.57,-2.88 c 0,-0.31 0.1,-0.58 0.29,-0.81 0.19,-0.23 0.48,-0.34 0.86,-0.34 0.34,0 0.6,0.09 0.77,0.26 0.18,0.17 0.27,0.43 0.27,0.76 0,0.09 -0.02,0.2 -0.06,0.31 -0.04,0.11 -0.1,0.23 -0.18,0.36 -0.08,0.12 -0.2,0.23 -0.37,0.31 -0.17,0.08 -0.35,0.12 -0.56,0.12 -0.21,0 -0.39,-0.04 -0.54,-0.11 a 0.7,0.7 0 0 1 -0.32,-0.29 c -0.07,-0.12 -0.11,-0.22 -0.14,-0.31 -0.03,-0.09 -0.02,-0.18 -0.02,-0.26" id="path1" fill="currentColor"/>
</svg>
