<?xml version="1.0" encoding="UTF-8" standalone="no"?>
<svg xmlns="http://www.w3.org/2000/svg" xmlns:svg="http://www.w3.org/2000/svg" xml:space="preserve" viewBox="0 0 17.010403 13.39" version="1.1" id="svg1" width="17.010403" height="13.39" fill="currentColor">
  <defs id="defs1" fill="currentColor"/>
  <path d="m 4.0262337e-4,5.04 c 0,0.18 0.0599999966,0.31 0.16999999663,0.4 0.12,0.11 0.26,0.17 0.42,0.17 H 10.990403 c 0.17,0 0.33,0.06 0.46,0.19 0.13,0.12 0.2,0.28 0.2,0.46 0,0.18 -0.07,0.34 -0.2,0.47 a 0.63,0.63 0 0 1 -0.93,-0.01 0.58,0.58 0 0 0 -0.4,-0.16 c -0.1600004,0 -0.3000004,0.05 -0.4100004,0.16 -0.11,0.11 -0.16,0.24 -0.16,0.39 0,0.16 0.06,0.3 0.17,0.41 0.3600004,0.36 0.7800004,0.53 1.2700004,0.53 0.49,0 0.91,-0.17 1.26,-0.52 0.35,-0.35 0.52,-0.77 0.52,-1.27 0,-0.49 -0.17,-0.92 -0.52,-1.27 -0.35,-0.35 -0.77,-0.53 -1.26,-0.53 H 0.59040262 c -0.16,0 -0.3,0.06 -0.42,0.17 -0.12,0.12 -0.16999999663,0.25 -0.16999999663,0.41 m 0,-2.02 c 0,0.17 0.0599999966,0.3 0.16999999663,0.39 0.12,0.11 0.26,0.16 0.42,0.16 H 14.400403 c 0.49,0 0.92,-0.18 1.27,-0.52 0.35,-0.35 0.52,-0.77 0.52,-1.27 0,-0.49 -0.17,-0.91 -0.52,-1.26 -0.35,-0.35 -0.77,-0.52 -1.27,-0.52 -0.49,0 -0.91,0.17 -1.27,0.51 -0.11,0.12 -0.16,0.27 -0.16,0.42 0,0.16 0.05,0.3 0.16,0.4 0.11,0.1 0.24,0.15 0.4,0.15 0.15,0 0.29,-0.05 0.41,-0.16 a 0.6,0.6 0 0 1 0.45,-0.18 c 0.17,0 0.33,0.06 0.46,0.18 0.13,0.12 0.2,0.27 0.2,0.45 0,0.18 -0.07,0.34 -0.2,0.47 -0.13,0.13 -0.28,0.2 -0.46,0.2 H 0.59040262 c -0.16,0 -0.3,0.06 -0.42,0.17 A 0.53,0.53 0 0 0 4.0262337e-4,3.02 M 12.890403,13.39 h 2.47 l 1.65,-7.98 h -2.47 z" id="path1" fill="currentColor"/>
</svg>
