<?xml version="1.0" encoding="UTF-8" standalone="no"?>
<svg xmlns="http://www.w3.org/2000/svg" xmlns:svg="http://www.w3.org/2000/svg" xml:space="preserve" viewBox="0 0 20.220404 13.39" version="1.1" id="svg1" width="20.220404" height="13.39" fill="currentColor">
  <defs id="defs1" fill="currentColor"/>
  <path d="m 4.0262337e-4,5.04 c 0,0.18 0.0599999966,0.31 0.16999999663,0.4 0.12,0.11 0.26,0.17 0.42,0.17 H 10.990403 c 0.17,0 0.33,0.06 0.46,0.19 0.13,0.12 0.2,0.28 0.2,0.46 0,0.18 -0.07,0.34 -0.2,0.47 a 0.63,0.63 0 0 1 -0.93,-0.01 0.58,0.58 0 0 0 -0.4,-0.16 c -0.1600004,0 -0.3000004,0.05 -0.4100004,0.16 -0.11,0.11 -0.16,0.24 -0.16,0.39 0,0.16 0.06,0.3 0.17,0.41 0.3600004,0.36 0.7800004,0.53 1.2700004,0.53 0.49,0 0.91,-0.17 1.26,-0.52 0.35,-0.35 0.52,-0.77 0.52,-1.27 0,-0.49 -0.17,-0.92 -0.52,-1.27 -0.35,-0.35 -0.77,-0.53 -1.26,-0.53 H 0.59040262 c -0.16,0 -0.3,0.06 -0.42,0.17 -0.12,0.12 -0.16999999663,0.25 -0.16999999663,0.41 m 0,-2.02 c 0,0.17 0.0599999966,0.3 0.16999999663,0.39 0.12,0.11 0.26,0.16 0.42,0.16 H 14.400403 c 0.49,0 0.92,-0.18 1.27,-0.52 0.35,-0.35 0.52,-0.77 0.52,-1.27 0,-0.49 -0.17,-0.91 -0.52,-1.26 -0.35,-0.35 -0.77,-0.52 -1.27,-0.52 -0.49,0 -0.91,0.17 -1.27,0.51 -0.11,0.12 -0.16,0.27 -0.16,0.42 0,0.16 0.05,0.3 0.16,0.4 0.11,0.1 0.24,0.15 0.4,0.15 0.15,0 0.29,-0.05 0.41,-0.16 0.12,-0.12 0.27,-0.18 0.46,-0.18 0.17,0 0.33,0.06 0.46,0.18 0.13,0.12 0.2,0.27 0.2,0.45 0,0.18 -0.07,0.34 -0.2,0.47 -0.13,0.13 -0.28,0.2 -0.46,0.2 H 0.59040262 c -0.16,0 -0.3,0.06 -0.42,0.17 A 0.53,0.53 0 0 0 4.0262337e-4,3.02 M 12.720403,13.39 h 6.62 l 0.4,-1.89 h -3.68 v -0.03 c 0.2,-0.09 0.49,-0.22 0.86,-0.37 0.38,-0.15 0.69,-0.28 0.95,-0.38 0.26,-0.1 0.55,-0.25 0.87,-0.44 0.32,-0.19 0.57,-0.38 0.77,-0.57 0.19,-0.19 0.36,-0.44 0.5,-0.75 0.14,-0.31 0.21,-0.64 0.21,-1 0,-0.56 -0.14,-1.02 -0.43,-1.4 -0.29,-0.38 -0.65,-0.65 -1.08,-0.81 a 4.2,4.2 0 0 0 -1.45,-0.24 c -0.97,0 -1.76,0.26 -2.38,0.78 -0.62,0.52 -0.98,1.29 -1.1,2.31 h 2.09 c 0,-0.37 0.11,-0.68 0.32,-0.94 0.22,-0.26 0.52,-0.38 0.91,-0.38 0.3,0 0.52,0.08 0.67,0.24 0.15,0.16 0.23,0.34 0.23,0.54 0,0.12 -0.01,0.23 -0.03,0.32 -0.02,0.09 -0.07,0.19 -0.15,0.28 -0.08,0.09 -0.15,0.16 -0.21,0.22 -0.06,0.06 -0.17,0.13 -0.34,0.23 -0.17,0.09 -0.3,0.17 -0.4,0.22 -0.1,0.05 -0.27,0.13 -0.53,0.25 -0.88,0.43 -1.43,0.71 -1.64,0.83 -0.8,0.48 -1.35,1.07 -1.66,1.78 -0.16,0.36 -0.27,0.76 -0.32,1.2" id="path1" fill="currentColor"/>
</svg>
