<?xml version="1.0" encoding="UTF-8" standalone="no"?>
<svg xmlns="http://www.w3.org/2000/svg" xmlns:svg="http://www.w3.org/2000/svg" xml:space="preserve" viewBox="0 0 23.940001 13.44" version="1.1" id="svg1" width="23.940001" height="13.44" fill="currentColor">
  <defs id="defs1" fill="currentColor"/>
  <path d="m 0,5.04 c 0,0.18 0.06,0.31 0.17,0.4 0.12,0.11 0.26,0.17 0.42,0.17 h 10.4 c 0.17,0 0.33,0.06 0.46,0.19 0.13,0.12 0.2,0.28 0.2,0.46 0,0.18 -0.07,0.34 -0.2,0.47 A 0.63,0.63 0 0 1 10.52,6.72 0.6,0.6 0 0 0 10.12,6.56 C 9.96,6.56 9.82,6.61 9.71,6.72 9.6,6.83 9.55,6.96 9.55,7.11 c 0,0.16 0.06,0.3 0.17,0.41 0.36,0.36 0.78,0.53 1.28,0.53 0.5,0 0.91,-0.17 1.26,-0.52 0.35,-0.35 0.52,-0.77 0.52,-1.27 0,-0.49 -0.17,-0.92 -0.52,-1.27 C 11.91,4.64 11.49,4.46 11,4.46 H 0.59 C 0.43,4.46 0.29,4.52 0.17,4.63 0.06,4.75 0,4.88 0,5.04 M 0,3.02 c 0,0.17 0.06,0.3 0.17,0.39 0.12,0.11 0.26,0.16 0.42,0.16 H 14.4 c 0.49,0 0.92,-0.18 1.27,-0.52 C 16.02,2.7 16.19,2.28 16.19,1.78 16.19,1.29 16.02,0.87 15.67,0.52 15.32,0.17 14.9,0 14.4,0 c -0.49,0 -0.91,0.17 -1.27,0.51 -0.11,0.12 -0.16,0.27 -0.16,0.42 0,0.16 0.05,0.3 0.16,0.4 0.11,0.1 0.24,0.15 0.4,0.15 0.15,0 0.29,-0.05 0.41,-0.16 a 0.6,0.6 0 0 1 0.45,-0.18 c 0.17,0 0.33,0.06 0.46,0.18 0.13,0.12 0.2,0.27 0.2,0.45 0,0.18 -0.07,0.34 -0.2,0.47 -0.13,0.13 -0.28,0.2 -0.46,0.2 H 0.59 C 0.43,2.44 0.29,2.5 0.17,2.61 0.06,2.72 0,2.86 0,3.02 m 12.89,10.42 h 2.47 l 1.65,-7.99 h -2.47 z m 3.55,0 h 6.62 l 0.4,-1.9 h -3.67 v -0.02 c 0.2,-0.09 0.49,-0.22 0.86,-0.37 0.38,-0.15 0.69,-0.28 0.95,-0.38 0.26,-0.1 0.54,-0.25 0.86,-0.44 0.32,-0.19 0.58,-0.38 0.77,-0.58 C 23.42,9.55 23.59,9.3 23.73,9 23.87,8.7 23.94,8.36 23.94,8 23.94,7.44 23.8,6.98 23.51,6.6 23.22,6.22 22.86,5.96 22.43,5.8 22,5.64 21.51,5.57 20.98,5.57 q -1.455,0 -2.37,0.78 C 18,6.87 17.63,7.64 17.51,8.66 h 2.07 c 0,-0.38 0.11,-0.69 0.33,-0.95 0.22,-0.26 0.53,-0.38 0.93,-0.38 0.3,0 0.52,0.08 0.67,0.24 0.15,0.16 0.22,0.34 0.22,0.55 0,0.32 -0.11,0.58 -0.33,0.76 -0.22,0.18 -0.63,0.42 -1.25,0.72 -0.04,0.01 -0.07,0.02 -0.08,0.04 -0.89,0.43 -1.44,0.7 -1.65,0.83 -0.79,0.47 -1.34,1.06 -1.65,1.74 q -0.24,0.54 -0.33,1.23" id="path1" fill="currentColor"/>
</svg>
