<?xml version="1.0" encoding="UTF-8" standalone="no"?>
<svg xmlns="http://www.w3.org/2000/svg" xmlns:svg="http://www.w3.org/2000/svg" xml:space="preserve" viewBox="0 0 20.710491 7.3100786" version="1.1" id="svg1" width="20.710491" height="7.3100786" fill="currentColor">
  <defs id="defs1" fill="currentColor"/>
  <path d="m 4.9050074e-4,3.6800788 c 0,-0.22 0.0799999993,-0.41 0.22999999926,-0.56 a 0.8,0.8 0 0 1 0.57,-0.22 H 12.880491 c 0.22,0 0.4,0.07 0.54,0.22 0.14,0.15 0.22,0.34 0.22,0.57 0,0.22 -0.07,0.4 -0.22,0.54 -0.14,0.14 -0.32,0.22 -0.54,0.22 H 0.8004905 c -0.22,0 -0.42,-0.07 -0.57,-0.22 a 0.71,0.71 0 0 1 -0.22999999926,-0.55 M 2.4104905,0.78007878 c 0,-0.22 0.08,-0.4 0.23,-0.55 a 0.77,0.77 0 0 1 0.56,-0.229999997222 H 15.290491 c 0.21,0 0.39,0.07999999722 0.54,0.229999997222 0.15,0.15 0.22,0.33 0.22,0.55 0,0.22000002 -0.07,0.40000002 -0.22,0.56000002 -0.15,0.15 -0.33,0.23 -0.54,0.23 H 3.2104905 c -0.22,0 -0.41,-0.08 -0.56,-0.23 -0.15,-0.15 -0.24,-0.34 -0.24,-0.56000002 m 1.62,5.74000002 q 0,-0.315 0.24,-0.54 c 0.14,-0.14 0.32,-0.22 0.54,-0.22 H 16.910491 c 0.22,0 0.41,0.07 0.56,0.22 0.15,0.14 0.22,0.32 0.22,0.54 0,0.22 -0.08,0.41 -0.23,0.56 -0.15,0.15 -0.34,0.23 -0.56,0.23 H 4.8104905 c -0.22,0 -0.4,-0.08 -0.56,-0.23 -0.16,-0.15 -0.22,-0.34 -0.22,-0.56 m 10.5800005,-2.84 c 0,-0.23 0.07,-0.42 0.22,-0.57 0.15,-0.15 0.34,-0.22 0.57,-0.22 h 4.52 c 0.23,0 0.42,0.07 0.57,0.22 0.15,0.15 0.22,0.34 0.22,0.56 0,0.22 -0.07,0.4 -0.22,0.54 -0.15,0.14 -0.34,0.22 -0.56,0.22 h -4.52 c -0.23,0 -0.42,-0.07 -0.57,-0.22 -0.16,-0.13 -0.23,-0.31 -0.23,-0.53" id="path1" fill="currentColor"/>
</svg>
